<svg width="39" height="27" fill="none" xmlns="http://www.w3.org/2000/svg"><rect y=".971" width="38.191" height="25.231" rx="1.91" fill="#EDEDED"/><path d="M33.418 14.242v-1.327h-2.11v-2.24h-1.51v2.24h-2.109v1.327h2.109v2.255h1.51v-2.255h2.11zM11.493 6.793c.75 0 1.441.086 2.073.258.631.16 1.178.406 1.638.737.46.32.816.713 1.066 1.18.263.467.395.996.395 1.585 0 .7-.158 1.37-.474 2.01-.302.639-.75 1.26-1.342 1.862-.58.602-1.29 1.192-2.132 1.77a33.83 33.83 0 01-2.843 1.695h6.85v2.489H5.73V17.89a476.15 476.15 0 012.823-1.899A32.187 32.187 0 0011 14.166c.723-.602 1.302-1.185 1.737-1.75.434-.566.651-1.125.651-1.678 0-.578-.197-1.002-.592-1.272-.395-.283-.862-.424-1.402-.424-.29 0-.579.049-.868.147a1.931 1.931 0 00-.75.443c-.21.209-.382.498-.514.866-.131.357-.184.799-.157 1.327H5.887c-.026-.786.092-1.493.355-2.12A4.402 4.402 0 017.407 8.12c.5-.43 1.099-.756 1.796-.977a7.175 7.175 0 012.29-.35zm10.094 13.586V11.4H18.33V9.17a8.984 8.984 0 001.54-.148 4.34 4.34 0 001.145-.405 2.63 2.63 0 00.79-.645c.21-.27.394-.59.552-.959h2.468V20.38h-3.238z" fill="#00003D"/></svg>