<svg width="58" height="28" fill="none" xmlns="http://www.w3.org/2000/svg"><path fill-rule="evenodd" clip-rule="evenodd" d="M13.153 0c.024.238.035.478.031.717a5.145 5.145 0 01-1.452 3.27c-.393.413-.827.776-1.362.99-.457.183-.935.219-1.417.254l-.007.001h-.001c-.002 0-.003 0-.005-.002a.036.036 0 01-.004-.002l-.005-.003-.008-.005C8.993 2.395 10.41.568 13.153 0zm4.256 7.004l-.172.158c-.162.148-.324.296-.483.447-.763.726-1.337 1.57-1.539 2.621a4.922 4.922 0 00.898 3.992c.44.599.965 1.096 1.663 1.384a5.749 5.749 0 00.264.102 11.75 11.75 0 00-.047.131l-.036.1-.007.019-.008.022a9.44 9.44 0 01-.17.459c-.57 1.384-1.31 2.665-2.319 3.776a5.57 5.57 0 01-.616.57c-.735.6-1.562.831-2.494.554-.465-.136-.925-.29-1.387-.432a5.323 5.323 0 00-1.461-.277c-.623-.015-1.194.172-1.773.385a11.83 11.83 0 01-1.327.436c-.71.17-1.353-.049-1.94-.45a5.786 5.786 0 01-1.47-1.518A15.563 15.563 0 01.71 14.711a11.123 11.123 0 01-.305-4.67c.208-1.39.724-2.646 1.696-3.683 1.01-1.074 2.256-1.517 3.713-1.37.725.071 1.418.283 2.113.486.128.037.258.071.389.103l.1.025.106.025.145.036c.046.01.092.022.138.034.41.093.838.072 1.237-.062.3-.088.599-.182.896-.277h.002c.27-.086.538-.17.807-.25a5.339 5.339 0 012.584-.156c1.131.22 2.026.83 2.775 1.687l.276.325c.01.013.018.026.026.04zm10.508-3.995a26.78 26.78 0 00-4.464.35v17.88h2.325v-7.248c.535.134 1.176.16 1.87.16 2.273 0 4.276-.672 5.508-1.989.909-.94 1.39-2.229 1.39-3.866 0-1.609-.588-2.925-1.576-3.784-1.072-.966-2.756-1.503-5.053-1.503zm-.215 9.258c-.775 0-1.417-.05-1.924-.184v-7.04c.4-.105 1.176-.185 2.191-.185 2.566 0 4.25 1.154 4.25 3.543 0 2.498-1.711 3.866-4.517 3.866zm15.23 8.971l-.184-1.638h-.08c-.722 1.02-2.113 1.933-3.956 1.933-2.618 0-3.955-1.852-3.955-3.732 0-3.138 2.78-4.859 7.777-4.832V12.7c0-1.073-.294-3.007-2.94-3.007-1.203 0-2.458.377-3.367.968l-.535-1.557c1.07-.699 2.62-1.155 4.25-1.155 3.955 0 4.917 2.712 4.917 5.315v4.856c0 1.128.053 2.23.213 3.115l-2.14.003zm-.348-6.631c-2.565-.054-5.478.402-5.478 2.925 0 1.53 1.015 2.256 2.219 2.256 1.683 0 2.756-1.074 3.123-2.174.083-.243.128-.496.133-.752l.003-2.255zm8.228 1.316L47.98 8.245h-2.565l4.779 11.97c.107.295.16.482.16.617s-.076.322-.183.564a7.167 7.167 0 01-1.977 2.631 6.226 6.226 0 01-2.058 1.158l.588 1.986c.589-.107 1.737-.509 2.885-1.53 1.604-1.397 2.753-3.677 4.437-8.134l3.527-9.262h-2.485l-2.57 7.625a45.44 45.44 0 00-.563 1.827c-.091.313-.179.612-.263.884h-.053a47.605 47.605 0 00-.827-2.658z" fill="#fff"/></svg>