<svg width="56" height="23" fill="none" xmlns="http://www.w3.org/2000/svg"><path fill-rule="evenodd" clip-rule="evenodd" d="M9.927 4.428a4.916 4.916 0 013.45 1.332l2.564-2.535A8.699 8.699 0 009.927.912a9.066 9.066 0 00-4.715 1.32 8.928 8.928 0 00-3.314 3.571v.002a8.787 8.787 0 000 7.973v.003a8.928 8.928 0 003.314 3.57 9.065 9.065 0 004.715 1.322v-.003c2.426 0 4.468-.787 5.955-2.144h.014c1.696-1.546 2.673-3.83 2.673-6.533h-.01c.001-.607-.05-1.213-.153-1.812H9.927v3.426h4.863a4.073 4.073 0 01-.618 1.531c-.308.464-.709.86-1.177 1.167v.01l-.014-.01c-.806.538-1.845.85-3.054.85-2.343 0-4.333-1.56-5.038-3.664h-.006a5.253 5.253 0 010-3.399v-.001c.711-2.105 2.7-3.664 5.038-3.664l.006.001zM26.68 9.443V4.047h3.359c.54-.004 1.07.15 1.522.443.452.292.806.71 1.019 1.202a2.68 2.68 0 01-.556 2.953 2.666 2.666 0 01-1.985.798h-3.36zm0 8.158v-6.254H30c1.37.001 2.52-.438 3.451-1.316a4.459 4.459 0 001.067-1.486 4.415 4.415 0 00-1.067-5.052 4.831 4.831 0 00-1.59-1.01 4.873 4.873 0 00-1.86-.328h-5.33v15.446h2.009zm10.424-2.51a1.574 1.574 0 01-.175-.729c0-.573.274-1.054.82-1.443.547-.388 1.227-.583 2.042-.583 1.121 0 1.995.244 2.621.734a2.878 2.878 0 01-.994 2.179c-.6.592-1.413.926-2.261.927a2.474 2.474 0 01-1.56-.517 1.592 1.592 0 01-.493-.568zm5.933-7.23c-.855-.784-2.026-1.176-3.512-1.176-1.907 0-3.348.69-4.32 2.069l1.77 1.1c.657-.935 1.545-1.402 2.664-1.402a2.865 2.865 0 011.944.721 2.268 2.268 0 01.83 1.76v.452c-.772-.43-1.755-.646-2.949-.646-1.403-.001-2.522.322-3.36.97-.836.649-1.254 1.519-1.254 2.61-.01.492.093.98.299 1.428.206.448.51.846.892 1.163.792.691 1.782 1.035 2.96 1.035 1.384 0 2.49-.604 3.32-1.812h.088v1.468h1.915v-6.515c-.003-1.366-.432-2.44-1.287-3.225zm12.326-.835L48.655 22.26H46.58l2.49-5.33-4.412-9.904h2.185l3.19 7.596h.042l3.103-7.596h2.185z" fill="#fff"/></svg>