<svg width="792" height="976" fill="none" xmlns="http://www.w3.org/2000/svg"><path d="M399.483 540.835l-.241 4.127-145.427-52.767.24-4.122 145.428 52.762zm139.045 0l-.24 4.127-145.427-52.767.24-4.122 145.427 52.762zm-139.045-90.026l-.241 4.444-145.427-56.825.24-4.439 145.428 56.82zm0-102.519l-.241 4.127-145.427-52.767.24-4.122 145.428 52.762zm139.045 102.519l-.24 4.444-145.427-56.825.24-4.439 145.427 56.82zm0-102.519l-.24 4.127-145.427-52.767.24-4.122 145.427 52.762z" fill="#181A1A"/><path d="M253.815 540.835l.24 4.127 145.428-52.767-.241-4.122-145.427 52.762zm139.046 0l.24 4.127 145.427-52.767-.24-4.122-145.427 52.762zm-139.046-90.026l.24 4.444 145.428-56.825-.241-4.439-145.427 56.82zm0-102.519l.24 4.127 145.428-52.767-.241-4.122-145.427 52.762zm139.046 102.519l.24 4.444 145.427-56.825-.24-4.439-145.427 56.82zm0-102.519l.24 4.127 145.427-52.767-.24-4.122-145.427 52.762zm6.622 479.175l-.241 4.126-145.427-52.766.24-4.122 145.428 52.762zm139.045 0l-.24 4.126-145.427-52.766.24-4.122 145.427 52.762zm-139.045-90.026l-.241 4.443-145.427-56.825.24-4.439 145.428 56.821zm0-102.519l-.241 4.126-145.427-52.766.24-4.122 145.428 52.762zm139.045 102.519l-.24 4.443-145.427-56.825.24-4.439 145.427 56.821zm0-102.519l-.24 4.126-145.427-52.766.24-4.122 145.427 52.762z" fill="#181A1A"/><path d="M253.815 827.465l.24 4.126 145.428-52.766-.241-4.122-145.427 52.762zm139.046 0l.24 4.126 145.427-52.766-.24-4.122-145.427 52.762zm-139.046-90.026l.24 4.443 145.428-56.825-.241-4.439-145.427 56.821zm0-102.519l.24 4.126 145.428-52.766-.241-4.122-145.427 52.762zm139.046 102.519l.24 4.443 145.427-56.825-.24-4.439-145.427 56.821zm0-102.519l.24 4.126 145.427-52.766-.24-4.122-145.427 52.762z" fill="#181A1A"/><path d="M269.265 400.552h-26.484v575.447h26.484V400.552z" fill="url(#paint0_linear_120_1077)"/><path d="M269.265 400.552h-26.484v575.447h26.484V400.552z" fill="url(#paint1_linear_120_1077)" style="mix-blend-mode:screen" opacity=".35"/><path d="M269.265 411.492h-26.484v564.507h26.484V411.492z" fill="url(#paint2_linear_120_1077)" style="mix-blend-mode:screen" opacity=".35"/><path d="M268.941 410.184h-26.356v9.464h26.356v-9.464z" fill="url(#paint3_linear_120_1077)" style="mix-blend-mode:multiply"/><path d="M273.518 166.696H238v246.136h35.518V166.696z" fill="url(#paint4_linear_120_1077)"/><path d="M273.518 166.696H238v246.136h35.518V166.696z" fill="url(#paint5_linear_120_1077)" style="mix-blend-mode:screen" opacity=".35"/><path d="M273.518 166.696H238v246.136h35.518V166.696z" fill="url(#paint6_linear_120_1077)" style="mix-blend-mode:screen" opacity=".35"/><path d="M272.232 414.678h-32.941L238 412.786h35.519l-1.287 1.892z" fill="url(#paint7_linear_120_1077)"/><path d="M549.567 400.553h-26.485V976h26.485V400.553z" fill="url(#paint8_linear_120_1077)"/><path d="M549.567 400.553h-26.485V976h26.485V400.553z" fill="url(#paint9_linear_120_1077)" style="mix-blend-mode:screen" opacity=".35"/><path d="M549.567 402.741h-26.485V976h26.485V402.741z" fill="url(#paint10_linear_120_1077)" style="mix-blend-mode:screen" opacity=".35"/><path d="M549.94 410.184h-26.356v9.464h26.356v-9.464z" fill="url(#paint11_linear_120_1077)" style="mix-blend-mode:multiply"/><path d="M554.518 166.695H519v246.137h35.518V166.695z" fill="url(#paint12_linear_120_1077)"/><path d="M554.518 166.695H519v246.137h35.518V166.695z" fill="url(#paint13_linear_120_1077)" style="mix-blend-mode:screen" opacity=".35"/><path d="M554.518 166.695H519v246.137h35.518V166.695z" fill="url(#paint14_linear_120_1077)" style="mix-blend-mode:screen" opacity=".35"/><path d="M553.231 414.677H520.29l-1.29-1.891h35.518l-1.287 1.891z" fill="url(#paint15_linear_120_1077)"/><path d="M410.518 435.562h-26.485V976h26.485V435.562z" fill="url(#paint16_linear_120_1077)"/><path d="M410.518 435.562h-26.485V976h26.485V435.562z" fill="url(#paint17_linear_120_1077)" style="mix-blend-mode:screen" opacity=".35"/><path d="M410.518 448.69h-26.485V976h26.485V448.69z" fill="url(#paint18_linear_120_1077)" style="mix-blend-mode:screen" opacity=".35"/><path d="M409.942 445.873h-26.355v9.464h26.355v-9.464z" fill="url(#paint19_linear_120_1077)" style="mix-blend-mode:multiply"/><path d="M414.52 202.384h-35.518v246.137h35.518V202.384z" fill="url(#paint20_linear_120_1077)"/><path d="M414.52 202.384h-35.518v246.137h35.518V202.384z" fill="url(#paint21_linear_120_1077)" style="mix-blend-mode:screen" opacity=".35"/><path d="M414.52 202.384h-35.518v246.137h35.518V202.384z" fill="url(#paint22_linear_120_1077)" style="mix-blend-mode:screen" opacity=".35"/><path d="M413.234 450.366h-32.941l-1.291-1.891h35.518l-1.286 1.891z" fill="url(#paint23_linear_120_1077)"/><path d="M45.584 184.54h712.832c1.991 0 3.584-.881 3.584-1.982 0-1.102-1.593-1.983-3.584-1.983H45.584c-1.991.22-3.584 1.101-3.584 2.203 0 .881 1.593 1.762 3.584 1.762zm0-73.36h712.832c1.991 0 3.584-.882 3.584-1.983 0-1.102-1.593-1.983-3.584-1.983H45.584c-1.991.221-3.584 1.102-3.584 2.203 0 .881 1.593 1.763 3.584 1.763zm0-76.335h712.832c1.991 0 3.584-.881 3.584-1.983 0-1.101-1.593-1.983-3.584-1.983H45.584C43.593 31.1 42 31.981 42 33.082c0 .882 1.593 1.763 3.584 1.763zm712.832 203.228H45.584c-1.991 0-3.584.882-3.584 1.983 0 1.102 1.593 1.983 3.584 1.983h712.832c1.991 0 3.584-.881 3.584-1.983 0-1.101-1.593-1.983-3.584-1.983zm0-73.36H45.584c-1.991 0-3.584.881-3.584 1.982 0 1.102 1.593 1.983 3.584 1.983h712.832c1.991 0 3.584-.881 3.584-1.983 0-1.101-1.593-1.982-3.584-1.982zm0-76.334H45.584c-1.991 0-3.584.88-3.584 1.982 0 1.102 1.593 1.983 3.584 1.983h712.832c1.991 0 3.584-.881 3.584-1.983 0-1.101-1.593-1.983-3.584-1.983zm0 111.031H45.584c-1.991 0-3.584.7-3.584 1.866 0 1.167 1.593 2.1 3.584 2.1h712.832c1.991 0 3.584-.933 3.584-2.1 0-1.166-1.593-1.866-3.584-1.866zm0-73.36H45.584c-1.991 0-3.584.699-3.584 1.866 0 1.166 1.593 2.099 3.584 2.099h712.832c1.991 0 3.584-.933 3.584-2.099 0-1.167-1.593-1.866-3.584-1.866zm0-76.335H45.584c-1.991 0-3.584.7-3.584 1.866 0 1.166 1.593 2.1 3.584 2.1h712.832c1.991 0 3.584-.933 3.584-2.1 0-1.166-1.593-1.866-3.584-1.866zm0 170.514H45.584c-1.991 0-3.584.881-3.584 1.983 0 1.101 1.593 1.982 3.584 1.982h712.832c1.991 0 3.584-.881 3.584-1.982 0-1.102-1.593-1.983-3.584-1.983zm0-73.36H45.584c-1.991 0-3.584.881-3.584 1.982 0 1.102 1.593 1.983 3.584 1.983h712.832c1.991 0 3.584-.881 3.584-1.983 0-1.101-1.593-1.982-3.584-1.982zm0-76.335H45.584c-1.991 0-3.584.88-3.584 1.982 0 1.102 1.593 1.983 3.584 1.983h712.832c1.991 0 3.584-.881 3.584-1.983 0-1.101-1.593-1.982-3.584-1.982z" fill="#271010"/><g filter="url(#filter0_i_120_1077)"><path d="M707.541 17H102.587c-6.44 0-11.504 5.509-10.96 11.927l14.677 173.619a11 11 0 006.335 9.054l285.595 132.369a11.001 11.001 0 009.317-.031l280.931-132.48a11.001 11.001 0 006.207-8.457l23.75-173.51c.904-6.606-4.23-12.491-10.898-12.491z" fill="url(#paint24_radial_120_1077)"/></g><path d="M268.939 403.682h-26.355V586h26.355V403.682z" fill="url(#paint25_linear_120_1077)"/><path d="M268.939 403.682h-26.355V586h26.355V403.682z" fill="url(#paint26_linear_120_1077)" style="mix-blend-mode:screen" opacity=".35"/><path d="M269 414h-26v172h26V414z" fill="url(#paint27_linear_120_1077)" style="mix-blend-mode:screen" opacity=".35"/><path d="M268.939 413.611h-26.355v9.546h26.355v-9.546z" fill="url(#paint28_linear_120_1077)" style="mix-blend-mode:multiply"/><path d="M273.518 168H238v248.282h35.518V168z" fill="url(#paint29_linear_120_1077)"/><path d="M273.518 168H238v248.282h35.518V168z" fill="url(#paint30_linear_120_1077)" style="mix-blend-mode:screen" opacity=".35"/><path d="M273.518 168H238v248.282h35.518V168z" fill="url(#paint31_linear_120_1077)" style="mix-blend-mode:screen" opacity=".35"/><path d="M272.232 418.143h-32.941L238 416.235h35.518l-1.286 1.908z" fill="url(#paint32_linear_120_1077)"/><path d="M549.939 403.682h-26.355V586h26.355V403.682z" fill="url(#paint33_linear_120_1077)"/><path d="M549.939 403.682h-26.355V586h26.355V403.682z" fill="url(#paint34_linear_120_1077)" style="mix-blend-mode:screen" opacity=".35"/><path d="M550 414h-26v172h26V414z" fill="url(#paint35_linear_120_1077)" style="mix-blend-mode:screen" opacity=".35"/><path d="M549.939 413.611h-26.355v9.546h26.355v-9.546z" fill="url(#paint36_linear_120_1077)" style="mix-blend-mode:multiply"/><path d="M554.518 168H519v248.282h35.518V168z" fill="url(#paint37_linear_120_1077)"/><path d="M554.518 168H519v248.282h35.518V168z" fill="url(#paint38_linear_120_1077)" style="mix-blend-mode:screen" opacity=".35"/><path d="M554.518 168H519v248.282h35.518V168z" fill="url(#paint39_linear_120_1077)" style="mix-blend-mode:screen" opacity=".35"/><path d="M553.232 418.143h-32.941L519 416.235h35.518l-1.286 1.908z" fill="url(#paint40_linear_120_1077)"/><path d="M409.939 439.682h-26.355V622h26.355V439.682z" fill="url(#paint41_linear_120_1077)"/><path d="M409.939 439.682h-26.355V622h26.355V439.682z" fill="url(#paint42_linear_120_1077)" style="mix-blend-mode:screen" opacity=".35"/><path d="M410 450h-26v172h26V450z" fill="url(#paint43_linear_120_1077)" style="mix-blend-mode:screen" opacity=".35"/><path d="M409.939 449.611h-26.355v9.546h26.355v-9.546z" fill="url(#paint44_linear_120_1077)" style="mix-blend-mode:multiply"/><path d="M414.518 204H379v248.282h35.518V204z" fill="url(#paint45_linear_120_1077)"/><path d="M414.518 204H379v248.282h35.518V204z" fill="url(#paint46_linear_120_1077)" style="mix-blend-mode:screen" opacity=".35"/><path d="M414.518 204H379v248.282h35.518V204z" fill="url(#paint47_linear_120_1077)" style="mix-blend-mode:screen" opacity=".35"/><path d="M413.232 454.143h-32.941L379 452.235h35.518l-1.286 1.908z" fill="url(#paint48_linear_120_1077)"/><path d="M45.584 186h712.832c1.991 0 3.584-.889 3.584-2s-1.593-2-3.584-2H45.584c-1.991.222-3.584 1.111-3.584 2.222 0 .889 1.593 1.778 3.584 1.778zm0-74h712.832c1.991 0 3.584-.889 3.584-2s-1.593-2-3.584-2H45.584c-1.991.222-3.584 1.111-3.584 2.222 0 .889 1.593 1.778 3.584 1.778zm0-77h712.832c1.991 0 3.584-.889 3.584-2s-1.593-2-3.584-2H45.584C43.593 31.222 42 32.111 42 33.222c0 .89 1.593 1.778 3.584 1.778zm712.832 205H45.584c-1.991 0-3.584.889-3.584 2s1.593 2 3.584 2h712.832c1.991 0 3.584-.889 3.584-2s-1.593-2-3.584-2zm0-74H45.584c-1.991 0-3.584.889-3.584 2s1.593 2 3.584 2h712.832c1.991 0 3.584-.889 3.584-2s-1.593-2-3.584-2zm0-77H45.584C43.593 89 42 89.889 42 91s1.593 2 3.584 2h712.832c1.991 0 3.584-.889 3.584-2s-1.593-2-3.584-2zm0 112H45.584c-1.991 0-3.584.706-3.584 1.882 0 1.177 1.593 2.118 3.584 2.118h712.832c1.991 0 3.584-.941 3.584-2.118 0-1.176-1.593-1.882-3.584-1.882zm0-74H45.584c-1.991 0-3.584.706-3.584 1.882 0 1.177 1.593 2.118 3.584 2.118h712.832c1.991 0 3.584-.941 3.584-2.118 0-1.176-1.593-1.882-3.584-1.882zm0-77H45.584C43.593 50 42 50.706 42 51.882 42 53.06 43.593 54 45.584 54h712.832c1.991 0 3.584-.941 3.584-2.118 0-1.176-1.593-1.882-3.584-1.882zm0 172H45.584c-1.991 0-3.584.889-3.584 2s1.593 2 3.584 2h712.832c1.991 0 3.584-.889 3.584-2s-1.593-2-3.584-2zm0-74H45.584c-1.991 0-3.584.889-3.584 2s1.593 2 3.584 2h712.832c1.991 0 3.584-.889 3.584-2s-1.593-2-3.584-2zm0-77H45.584C43.593 71 42 71.889 42 73s1.593 2 3.584 2h712.832c1.991 0 3.584-.889 3.584-2s-1.593-2-3.584-2z" fill="#271010"/><g filter="url(#filter1_i_120_1077)"><path d="M710.214 17H99.969c-6.44 0-11.503 5.509-10.961 11.926l14.815 175.294a10.999 10.999 0 006.334 9.053l288.082 133.563a11.001 11.001 0 009.32-.031l283.375-133.674a11.002 11.002 0 006.206-8.457l23.972-175.183C722.016 22.885 716.881 17 710.214 17z" fill="url(#paint49_radial_120_1077)"/></g><path d="M391.452 416.379l-13.014-2.842c-.793-.115-1.444.381-1.659 1.059a1.513 1.513 0 001.028 1.688l13.013 2.842.113.016c.681.099 1.445-.381 1.546-1.076.215-.678-.251-1.455-1.027-1.687zm-116.863-52.864l10.788 2.255c.673.098 1.249.866.927 1.503a1.473 1.473 0 01-1.638 1.015l-10.788-2.256c-4.681-.91-8.637-3.651-11.259-7.679-2.638-3.917-3.543-8.721-2.524-13.359l11.281-41.016 2.502.365-11.01 41.283c-.809 3.985-.127 7.958 2.127 11.363 2.255 3.406 5.586 5.714 9.594 6.526z" fill="#2C2324"/><path d="M233.196 339.253l12.738-47.41 2.494.451-12.475 47.702c-1.149 5.53-1.289 11.207-.161 16.841 1.048 5.395 3.171 10.49 6.161 15.142 2.989 4.652 6.783 8.509 11.363 11.683 4.676 3.302 9.852 5.538 15.527 6.706l10.676 2.239c.657.21 1.137.849 1.023 1.631-.097.669-.852 1.129-1.525 1.031l-.112-.017-10.677-2.239c-5.995-1.329-11.603-3.741-16.6-7.204-4.901-3.335-8.982-7.576-12.164-12.483a45.375 45.375 0 01-6.479-16.1c-1.079-5.969-1.003-11.997.211-17.973zm210.264 73.725L413.071 385.3c-.413-.29-.843-.467-1.323-.308-.479.16-.767.576-.944 1.008l-1.313 5.879-24.994-5.244c-.782-.114-1.421.365-1.631 1.022a1.473 1.473 0 001.015 1.637l26.318 5.552.112.016c.781.114 1.532-.349 1.63-1.022l1.054-4.886 26.858 24.529-34.558 11.115 2.156-10.109a1.47 1.47 0 00-1.015-1.636 1.47 1.47 0 00-1.631 1.022l-2.722 12.431c-.066.449.092.93.378 1.315.207.145.414.29.748.338.224.033.447.066.575-.03l39.11-12.629c.479-.159.768-.575.945-1.007.176-.433.019-.914-.379-1.315z" fill="#2C2324"/><path fill-rule="evenodd" clip-rule="evenodd" d="M294.885 363.685l-8.014 40.317 82.757 16.449 8.014-40.317-82.757-16.449zm-2.122-.433a2.149 2.149 0 012.533-1.693l82.778 16.453a2.15 2.15 0 011.694 2.534l-8.018 40.338a2.15 2.15 0 01-2.534 1.693l-82.778-16.453a2.15 2.15 0 01-1.693-2.534l8.018-40.338z" fill="#2C2324"/><path fill-rule="evenodd" clip-rule="evenodd" d="M323.328 368.444l-8.436 42.441-2.124-.422 8.436-42.441 2.124.422zm28.315 5.629l-8.436 42.44-2.124-.422 8.436-42.441 2.124.423zm-53.29-1.874l2.858 1.369.004.002c.636.311 1.366.565 2.171.759l13.543 2.692-.855 4.299-.487.578-.005.004c-1.948 2.253-3.454 4.181-4.475 5.727-1.02 1.553-1.863 3.062-2.507 4.49-.639 1.416-1.221 3.155-1.746 5.195a64.618 64.618 0 01-.688 2.503l-.284.942-9.153-1.82.243-1.221c.193-.97.563-2.024 1.111-3.223.551-1.211 1.518-2.812 2.912-4.863 1.789-2.647 3.335-4.785 4.603-6.314l.001-.002.018-.021-3.459-.687c-.177.346-.419.855-.735 1.595l-.346.807-6.853-1.363 4.129-11.448zm6.216 4.573l-.002.011-1.062-.212c-1.166-.231-2.263-.578-3.237-1.054l-.691-.33-2.462 6.827 2.672.531c.477-1.048.758-1.514.892-1.728l.397-.632 8.545 1.698-2.356 2.818-.002.001c-1.2 1.447-2.698 3.516-4.474 6.143l-.001.002-.001.001c-1.381 2.032-2.262 3.508-2.732 4.544l-.001.001v.001c-.32.699-.558 1.31-.727 1.854l5.037 1.001c.113-.405.243-.889.392-1.473l.001-.001c.545-2.119 1.164-3.983 1.868-5.546.699-1.55 1.602-3.16 2.672-4.79l.001-.002.001-.001c1.093-1.654 2.664-3.66 4.641-5.945l.119-.141.323-1.627-9.813-1.951zm21.643.965l2.857 1.368.004.002c.636.311 1.366.566 2.171.759l13.533 2.69-.855 4.299-.488.578-.004.005c-1.948 2.252-3.454 4.181-4.476 5.726-1.019 1.553-1.862 3.063-2.506 4.491-.639 1.416-1.221 3.155-1.746 5.195a64.448 64.448 0 01-.688 2.502l-.284.942-9.153-1.819.243-1.221c.192-.97.563-2.024 1.111-3.223.551-1.212 1.518-2.812 2.912-4.864 1.789-2.646 3.335-4.785 4.603-6.313l.001-.002.018-.021-3.459-.688c-.177.347-.419.856-.735 1.595l-.346.807-6.855-1.362 4.142-11.446zm6.215 4.573l-.002.01-1.062-.211c-1.165-.231-2.263-.578-3.237-1.054l-.691-.331-2.471 6.826 2.671.531c.477-1.048.758-1.515.892-1.728l.397-.633 8.545 1.699-2.356 2.817-.002.002c-1.2 1.447-2.698 3.516-4.474 6.143l-.001.001-.001.001c-1.381 2.032-2.262 3.508-2.732 4.545l-.001.001-.001.001a15.943 15.943 0 00-.727 1.853l5.038 1.002c.112-.405.243-.89.392-1.474h.001c.544-2.119 1.164-3.983 1.868-5.546.699-1.55 1.601-3.16 2.672-4.791l.001-.001.001-.001c1.093-1.654 2.664-3.66 4.641-5.946l.119-.141.323-1.627-9.803-1.948zm22.198 1.075l2.857 1.368.004.001c.636.311 1.366.566 2.171.76l13.532 2.689-.854 4.3-.488.577-.004.005c-1.948 2.253-3.454 4.181-4.476 5.727-1.019 1.552-1.863 3.062-2.507 4.49-.638 1.416-1.221 3.155-1.745 5.195a62.424 62.424 0 01-.689 2.503l-.283.942-9.154-1.82.243-1.221c.193-.97.564-2.024 1.112-3.223.55-1.211 1.517-2.812 2.912-4.864 1.789-2.646 3.334-4.784 4.602-6.313l.002-.002.017-.021-3.459-.687c-.176.346-.418.855-.735 1.595l-.345.806-6.855-1.362 4.142-11.445zm6.215 4.572l-.002.01-1.062-.211c-1.166-.231-2.263-.578-3.237-1.054l-.692-.331-2.47 6.826 2.67.531c.478-1.048.759-1.514.893-1.728l.396-.632 8.545 1.698-2.356 2.817-.001.002c-1.2 1.447-2.699 3.516-4.475 6.143v.001l-.001.002c-1.381 2.032-2.262 3.508-2.733 4.544v.001l-.001.001a16.013 16.013 0 00-.727 1.853l5.038 1.002c.112-.405.242-.889.392-1.473v-.001c.545-2.119 1.164-3.983 1.869-5.546.699-1.55 1.601-3.16 2.671-4.79l.001-.002.001-.001c1.093-1.654 2.665-3.66 4.641-5.946l.119-.14.324-1.628-9.803-1.948zm175.924 72.857c-16.434 0-29.756 13.321-29.756 29.755 0 16.433 13.322 29.755 29.756 29.755 16.433 0 29.755-13.322 29.755-29.755 0-16.434-13.322-29.755-29.755-29.755zm-31.432 29.755c0-17.359 14.072-31.432 31.432-31.432 17.359 0 31.431 14.073 31.431 31.432 0 17.359-14.072 31.431-31.431 31.431-17.36 0-31.432-14.072-31.432-31.431z" fill="#2C2324"/><path fill-rule="evenodd" clip-rule="evenodd" d="M535.977 468l.431.539.098.123.023.03.003.004c.487.602 1.647 2.033 3.283 3.913 1.015 1.165 2.698 2.834 4.685 4.803l.405.401c2.153 2.135 4.605 4.578 6.874 7.053 4.659 5.081 5.046 10.203 4.165 14.429v.001c-.92 4.388-5.479 8.397-12.455 7.524a7.935 7.935 0 01-3.884-1.572c.439 2.191 1.329 4.907 3.136 6.926l.814.91h-15.606l.974-.938v-.001l.004-.004a8.508 8.508 0 00.453-.51c.29-.354.688-.889 1.111-1.601a16.365 16.365 0 001.874-4.785 7.902 7.902 0 01-3.89 1.575c-6.982.873-11.535-3.136-12.455-7.524-.886-4.228-.493-9.35 4.164-14.43 2.27-2.477 4.722-4.921 6.875-7.055l.426-.422c1.978-1.96 3.653-3.619 4.664-4.78v-.001a121.604 121.604 0 003.287-3.917l.003-.004.017-.022a7.6 7.6 0 00.096-.122l.425-.543zm.006 1.752c-.591.73-1.633 1.996-3.012 3.574-1.038 1.193-2.741 2.88-4.7 4.821l-.443.439c-2.154 2.135-4.589 4.562-6.839 7.018-4.379 4.776-4.728 9.521-3.901 13.468.794 3.787 4.786 7.473 11.252 6.665 1.959-.243 3.383-1.18 4.435-2.359l1.177-1.32-.228 1.753c-.388 2.978-1.388 5.247-2.295 6.776a14.572 14.572 0 01-.943 1.405h10.71c-1.936-2.677-2.652-6.028-2.928-8.148l-.227-1.734 1.173 1.298c1.052 1.164 2.471 2.086 4.41 2.329 6.46.808 10.458-2.878 11.252-6.664.822-3.949.478-8.694-3.901-13.469-2.25-2.453-4.685-4.88-6.839-7.016l-.422-.419c-1.969-1.95-3.679-3.646-4.722-4.844a140.913 140.913 0 01-3.009-3.573z" fill="#2C2324"/><path fill-rule="evenodd" clip-rule="evenodd" d="M530.136 480.918a244.25 244.25 0 003.167-3.174l.784.76c-.92.948-2.021 2.038-3.22 3.227-2.053 2.033-4.396 4.354-6.623 6.746l-.306.331-.002.001-.308.333-.801-.742.307-.331.002-.001.308-.333v-.001h.001c2.234-2.401 4.622-4.767 6.691-6.816zm6.628-89.673c-16.434 0-29.756 13.322-29.756 29.755s13.322 29.755 29.756 29.755c16.433 0 29.755-13.322 29.755-29.755s-13.322-29.755-29.755-29.755zM505.332 421c0-17.359 14.072-31.432 31.432-31.432 17.359 0 31.431 14.073 31.431 31.432 0 17.359-14.072 31.431-31.431 31.431-17.36 0-31.432-14.072-31.432-31.431z" fill="#2C2324"/><path fill-rule="evenodd" clip-rule="evenodd" d="M527.772 398.423l-.225.68c.225-.68.226-.679.226-.679h.001l.003.001.007.002.02.008a4.838 4.838 0 01.287.117c.187.083.45.211.771.397.644.371 1.523.972 2.506 1.905 1.928 1.829 4.235 4.917 5.958 10.005a39.208 39.208 0 017.836 3.945c7.727 5.052 11.925 11.706 13.982 15.683l.529 1.023-1.143.025h-.001l-.006.001h-.027a13.42 13.42 0 00-.581.038c-.404.035-.986.099-1.689.218-1.41.238-3.292.693-5.199 1.555-3.796 1.716-7.656 5.018-8.167 11.491l-1.418-.113c.564-7.146 4.886-10.825 9.002-12.686 2.05-.926 4.056-1.409 5.547-1.661.529-.089.996-.15 1.378-.191-2.145-3.9-6.126-9.698-12.981-14.18a37.81 37.81 0 00-7.866-3.918l-.327-.118-.109-.332c-1.664-5.07-3.905-8.044-5.694-9.742a12.737 12.737 0 00-1.73-1.39l2.98 11.065v.002a3.89 3.89 0 01-.133 2.456 3.884 3.884 0 01-1.841 2.037l-2.121 1.089h-.001a2.993 2.993 0 00-1.359 1.438l-1.441 3.239-.926.647a318.623 318.623 0 00-6.644 4.789c-.315.232-.605.44-.855.619l-.385.277c-.206.15-.361.267-.475.361l1.432.915.012.009c.415.289 1.783 1.133 3.345.784l.002-.001h.003a3.49 3.49 0 00.95-.365l1.925-1.117.001-.001.005-.003c.643-.373 1.286-.747 1.928-1.118l.045-.027.049-.019a4.321 4.321 0 012.801-.131c.478.137 1.033.25 1.55.248.524-.002.925-.12 1.192-.353l.565-.493 2.269 2.919.001.001a2.405 2.405 0 01-.044 3.008l-.001.001a15.886 15.886 0 00-1.993 3.1l-.001.001c-1.735 3.546-1.693 6.878-1.556 8.546l-1.418.118c-.148-1.796-.198-5.424 1.698-9.298a17.276 17.276 0 012.173-3.379.965.965 0 00.024-1.21l-.001-.001-1.417-1.823c-.483.222-1.006.295-1.486.297-.705.002-1.405-.148-1.946-.304h-.001a2.91 2.91 0 00-1.842.069l-1.884 1.093h-.001c-.644.374-1.288.749-1.931 1.121l-.005.003-.005.003a4.896 4.896 0 01-1.343.515c-2.163.482-3.958-.657-4.449-.997l-1.672-1.069-.03-.025c-.197-.159-.513-.45-.549-.9-.036-.465.248-.8.432-.983.205-.205.493-.423.815-.657l.41-.295c.242-.174.512-.367.824-.597a318.977 318.977 0 016.673-4.809l.6-.42 1.279-2.874a4.408 4.408 0 012.01-2.128v-.001h.001l2.123-1.09c.528-.27.943-.727 1.164-1.288a2.45 2.45 0 00.084-1.545l-.001-.002L526.513 398l1.259.423zm-12.559 29.927l.005.006-.005-.006zm.023.387l-.006.008.006-.008z" fill="#2C2324"/><path fill-rule="evenodd" clip-rule="evenodd" d="M538.291 417.733c-1.957 0-3.542 1.438-3.542 3.214 0 1.582 1.255 2.895 2.91 3.162l-.271 1.383c-2.384-.384-4.188-2.273-4.188-4.545 0-2.551 2.279-4.619 5.091-4.619 2.812 0 5.091 2.068 5.091 4.619 0 1.199-.504 2.293-1.329 3.113l-1.144-.946c.575-.572.925-1.332.925-2.167 0-1.776-1.586-3.214-3.543-3.214z" fill="#2C2324"/><path fill-rule="evenodd" clip-rule="evenodd" d="M532.758 425.392l2.478-1.863-.982-1.091-3.283 2.467.191.472c.191.47.023.929-.309 1.355a3.433 3.433 0 01-.656.635l-.044.031a.028.028 0 01-.008.005h.001l.001-.001.453.573.454.572.002-.001.003-.002.008-.006.023-.016a4.835 4.835 0 00.326-.252 4.82 4.82 0 00.696-.718c.397-.508.798-1.273.646-2.16zm1.803-26.716l-.382.557.383-.557v.001l.002.001.005.004a.39.39 0 01.015.012l.05.043c.043.036.102.089.178.158.15.139.361.344.618.62.512.553 1.205 1.39 1.946 2.545 1.484 2.311 3.156 5.885 3.97 10.978l-1.267.235c-.779-4.879-2.374-8.266-3.759-10.423a17.114 17.114 0 00-1.7-2.246l-.152.99-1.268-.227.516-3.367.845.676zm.708 39.037l1.773-13.239 1.283.216-1.775 13.253-.001.007c-.109.711.383 1.364 1.031 1.364h1.422c.638 0 1.127-.636 1.034-1.345v-.001l-1.286-9.597 1.283-.215 1.287 9.6v.001c.207 1.578-.881 3.009-2.318 3.009h-1.422c-1.446 0-2.551-1.455-2.311-3.053zm2.51-18.056c-.516.001-.928.332-.928.744 0 .413.414.744.93.744.517 0 .931-.33.931-.744 0-.405-.411-.74-.933-.744zm-2.543.744c0-1.127 1.137-2.036 2.545-2.036h.006c1.401.007 2.54.912 2.54 2.036 0 1.127-1.137 2.037-2.546 2.037-1.408 0-2.545-.91-2.545-2.037zm-6.631.17l1.54-.945-.637-1.261-1.961 1.203-.457 1.346 1.228.505.287-.848zm8.159-98.895c-16.434 0-29.756 13.322-29.756 29.756 0 16.433 13.322 29.755 29.756 29.755 16.433 0 29.755-13.322 29.755-29.755 0-16.434-13.322-29.756-29.755-29.756zm-31.432 29.756c0-17.36 14.072-31.432 31.432-31.432 17.359 0 31.431 14.072 31.431 31.432 0 17.359-14.072 31.431-31.431 31.431-17.36 0-31.432-14.072-31.432-31.431z" fill="#2C2324"/><path fill-rule="evenodd" clip-rule="evenodd" d="M529.799 330.507c1.819-.483 4.244-.773 6.465.135 2.222.909 3.746 2.815 4.703 4.434a16.587 16.587 0 011.314 2.802l.064.187.016.052.005.014.001.004.001.002-.513.157.256.471-.002.001-.004.002-.013.007-.048.025a12.99 12.99 0 01-.827.386 16.57 16.57 0 01-2.251.778c-1.818.484-4.241.774-6.463-.135-2.221-.908-3.747-2.814-4.705-4.433a16.706 16.706 0 01-1.061-2.134 13.425 13.425 0 01-.319-.855l-.017-.051-.004-.015-.002-.004v-.002l.512-.157-.255-.471.002-.001.004-.002a.13.13 0 01.013-.007l.047-.025.178-.089a16.734 16.734 0 012.903-1.076zm-2.892 1.671l-.255-.471-.385.209.128.419.512-.157zm.662.271a15.364 15.364 0 001.151 2.401c.91 1.536 2.284 3.208 4.189 3.987 1.906.78 4.056.55 5.782.092a15.643 15.643 0 002.502-.906 15.36 15.36 0 00-1.149-2.401c-.908-1.537-2.28-3.208-4.186-3.987-1.905-.78-4.057-.55-5.784-.092a15.684 15.684 0 00-2.505.906zm14.286 5.845l.256.47.384-.208-.127-.419-.513.157zm2.487 13.271c-5.899 0-10.681 4.782-10.681 10.681 0 5.899 4.782 10.682 10.681 10.682 5.899 0 10.682-4.783 10.682-10.682s-4.783-10.681-10.682-10.681zm-11.753 10.681c0-6.491 5.262-11.753 11.753-11.753 6.491 0 11.754 5.262 11.754 11.753 0 6.491-5.263 11.754-11.754 11.754s-11.753-5.263-11.753-11.754z" fill="#2C2324"/><path fill-rule="evenodd" clip-rule="evenodd" d="M544.342 369.733a7.486 7.486 0 007.487-7.487h1.072a8.558 8.558 0 01-8.559 8.559c-.155 0-.303-.006-.44-.011h-.004l.041-1.071c.141.005.27.01.403.01zm-16.937-18.169c-5.9 0-10.682 4.782-10.682 10.681 0 5.9 4.782 10.682 10.682 10.682a10.66 10.66 0 008.064-3.675l.808.704a11.73 11.73 0 01-8.872 4.043c-6.492 0-11.754-5.262-11.754-11.754 0-6.491 5.262-11.753 11.754-11.753a11.73 11.73 0 018.872 4.043l-.808.704a10.66 10.66 0 00-8.064-3.675z" fill="#2C2324"/><path fill-rule="evenodd" clip-rule="evenodd" d="M527.406 369.449a7.181 7.181 0 005.044-2.061l.75.766a8.251 8.251 0 01-5.794 2.367 8.238 8.238 0 01-2.04-.253l.264-1.039a7.16 7.16 0 001.776.22zm25.128-30.436l-.045.534-.045.534h-.006l-.021-.002a3.58 3.58 0 01-.084-.006c-.074-.005-.185-.013-.329-.021a40.045 40.045 0 00-5.292.076c-3.215.266-6.959 1.011-9.405 2.859-2.479 1.873-4.763 5.307-6.444 8.334a60.966 60.966 0 00-2.513 5.091c-.062.141-.108.251-.139.324l-.035.084a.648.648 0 00-.009.021l-.002.005v.001l-.496-.203-.496-.203.003-.008.01-.023.037-.089a49.682 49.682 0 01.691-1.556 61.327 61.327 0 012.012-3.964c1.689-3.042 4.063-6.651 6.735-8.669 2.704-2.043 6.713-2.804 9.963-3.072a41.235 41.235 0 015.44-.078c.149.008.266.016.345.022l.092.007.024.002h.009z" fill="#2C2324"/><path fill-rule="evenodd" clip-rule="evenodd" d="M543.369 342.824c-.492 1.564-.991 3.536-1.066 5.252-.109 2.509.391 4.727.921 6.321.264.795.535 1.432.739 1.868a12.038 12.038 0 00.312.621l.016.03.004.006v.001l-.464.268-.464.268-.001-.001-.002-.004a.156.156 0 00-.006-.011l-.021-.038a12.271 12.271 0 01-.345-.686 18.42 18.42 0 01-.785-1.984c-.559-1.68-1.091-4.031-.975-6.705.081-1.858.614-3.936 1.115-5.528a36.913 36.913 0 01.905-2.546l.062-.154.017-.041.005-.01.001-.004.494.208.494.208-.001.002-.004.009-.015.037-.059.145a37.219 37.219 0 00-.877 2.468zM67.137 24.124C65.883 11.195 76.044 0 89.034 0H719.46c13.188 0 23.413 11.523 21.844 24.617l-8.41 70.185a2 2 0 11-3.972-.476l8.411-70.184C738.616 13.428 730.251 4 719.46 4H89.034c-10.628 0-18.942 9.16-17.916 19.738L77.97 94.37a2 2 0 01-3.981.386l-6.852-70.633zm18.62 189.016a2 2 0 012.664-.951l305.953 144.947a18 18 0 0015.413 0l305.954-144.947a2 2 0 111.712 3.615L411.5 360.751a22.003 22.003 0 01-18.838 0L86.708 215.804a2 2 0 01-.95-2.664z" fill="#2C2324"/><path fill-rule="evenodd" clip-rule="evenodd" d="M88.095 28.086C87.453 21.613 92.537 16 99.041 16H709.7c6.605 0 11.722 5.781 10.918 12.338l-8.615 70.291a1 1 0 11-1.985-.243l8.615-70.291C719.29 22.73 715.104 18 709.7 18H99.041c-5.322 0-9.481 4.593-8.956 9.889l6.997 70.52a1 1 0 11-1.99.197l-6.997-70.52zm18.283 182.873a1 1 0 011.327-.487L398.869 345.34a8 8 0 006.725 0l291.163-134.868a1 1 0 01.841 1.815L406.434 347.155a9.999 9.999 0 01-8.406 0L106.865 212.287a1 1 0 01-.487-1.328zm477.403-38.985c-3.172 20.496-19.764 34.526-42.09 34.526-27.572 0-44.286-17.568-44.286-45.872 0-27.938 17.324-45.628 44.896-45.628 22.204 0 37.82 14.396 40.87 34.526h-20.496c-2.318-12.078-11.224-17.324-21.106-17.324-12.444 0-22.082 10.37-22.082 28.426 0 18.666 9.638 28.67 22.326 28.67 9.028 0 19.032-3.904 21.472-17.324h20.496zm-518.633-55.51H0v88.45h20.862V168.68h41.602v-18.422H20.862v-15.494h44.286v-18.3zm50.58 0H92.792l-33.306 88.45H81.69l5.246-15.738h34.16l5.368 15.738h22.692l-33.428-88.45zm-.244 55.754H92.67l11.468-33.672 11.346 33.672zm44.839-55.754l20.374 65.026 20.374-65.026h21.228l-30.012 88.45h-24.4l-29.768-88.45h22.204zm107.813 0h-38.552v88.45h40.138c21.472 0 35.746-7.442 35.746-27.206 0-10.736-5.856-16.958-14.03-19.886 6.71-4.148 10.492-10.37 10.492-18.422 0-18.422-14.396-22.936-33.794-22.936zm.732 35.38h-18.422v-17.812h18.422c7.198 0 11.346 3.294 11.346 8.784s-4.148 9.028-11.346 9.028zm1.098 35.502h-19.52v-20.008h19.52c8.906 0 13.42 3.782 13.42 10.004 0 6.222-4.514 10.004-13.42 10.004zm46.71-70.882h67.832v18.3h-46.97v15.494h44.408v18.422h-44.408v17.812h46.97v18.422h-67.832v-88.45zm73.454 18.3h28.304v70.15h20.984v-70.15h28.426v-18.3H390.13v18.3zm204.143 70.15h20.862v-88.45h-20.862v88.45zm57.677-70.15h-28.304v-18.3h77.714v18.3h-28.426v70.15H651.95v-70.15zm95.267 15.616l-19.764-33.916h-24.4l33.306 54.046v34.404h20.862v-34.16l34.16-54.29h-24.156l-20.008 33.916zM542.5 121.5c-12.494 0-21.623 4.961-27.556 12.804-5.862 7.748-8.444 18.084-8.444 28.696 0 10.8 3.562 20.309 9.92 27.141C522.793 196.988 531.843 201 542.5 201c8.759 0 15.821-3.75 21.022-8.307 5.176-4.534 8.634-9.968 10.267-13.688l-4.578-2.01c-1.367 3.113-4.409 7.929-8.983 11.937-4.549 3.985-10.487 7.068-17.728 7.068-9.343 0-17.043-3.488-22.42-9.266-5.392-5.793-8.58-14.034-8.58-23.734 0-9.888 2.418-19.052 7.431-25.679 4.942-6.532 12.563-10.821 23.569-10.821 17.368 0 24.965 12.254 26.589 18.163l4.822-1.326c-2.042-7.424-11.179-21.837-31.411-21.837zm59.5.5v76.5h5V122h-5zm-546 .5H7V201h5v-38.5h44v-5H12v-30h44v-5zm54.749 0H98.773l-28.611 75.615 4.676 1.77 6.578-17.385h45.903l6.332 17.357 4.698-1.714-27.6-75.643zm-8.522 5l-18.919 50h42.186l-18.243-50h-5.024zm171.273-5h-35v77H281c3.695 0 7.696-2.257 10.675-5.582A20.846 20.846 0 00297 180c0-5.971-3.371-10.954-7.134-14.606-2.392-2.322-5.071-4.235-7.49-5.67C287.349 156.192 294 150.178 294 139.5c0-6.896-3.101-11.329-7.407-13.897-4.119-2.457-9.143-3.103-13.093-3.103zM241 197zm40-2.5h-37.5v-32h33.459c2.605 1.215 6.324 3.471 9.425 6.481 3.32 3.223 5.616 6.99 5.616 11.019 0 4.316-1.724 7.986-4.05 10.582-2.396 2.675-5.145 3.918-6.95 3.918zm-3.93-37.223l-.333.223H243.5v-30h30c3.55 0 7.526.604 10.532 2.397 2.819 1.682 4.968 4.499 4.968 9.603 0 9.799-6.996 14.478-11.93 17.777zM378.5 122.5h-53v77h53v-5h-48v-32h43v-5h-43v-30h48v-5zm19 5H427V197h5v-69.5h27v-5h-61.5v5zm346.5 71v-32.27l-26.107-40.885 4.214-2.69 24.469 38.318 26.363-38.388 4.122 2.83L749 166.276V198.5h-5zm-590.125-75.781l-4.75 1.562L173.19 197.5h14.096l24.579-71.689-4.73-1.622-23.421 68.311h-6.904l-22.935-69.781zM629.5 128h29.75v70.5h5V128H694v-5h-64.5v5z" fill="#2C2324"/><path d="M116.784 86l18.048-46.08h-2.88l.48-3.072h9.504l3.36 46.08h2.88l-.48 3.072h-7.968l-3.168-43.008-17.088 43.776-2.688-.768zm37.909-8.64c0-.384.096-.864.192-1.344.864-5.376 7.104-9.984 13.728-9.984h6.72l.768-4.608c.096-.576.096-1.248.096-1.824 0-4.128-2.208-7.392-6.048-7.392-1.92 0-4.032.288-6.24.96l-.192-2.88c2.496-.768 4.608-1.152 7.584-1.152 6.144 0 10.368 4.512 10.368 10.368 0 .672 0 1.344-.096 1.92l-3.36 21.408C173.125 85.04 170.149 86 165.445 86c-6.24 0-10.752-3.648-10.752-8.64zm5.568-.192c0 3.36 2.304 5.76 6.432 5.76 1.92 0 3.936-.288 6.144-.96l2.016-12.864h-6.72c-3.84 0-7.2 3.072-7.776 6.912-.096.48-.096.768-.096 1.152zm28.879-1.44c0-.672 0-1.344.192-2.016l1.92-12.288c1.056-6.816 7.392-12.288 14.208-12.288 4.512 0 7.104.768 10.944 2.592l-2.784 7.392-2.496-.768-.384-5.376c-1.92-.576-2.976-.768-5.088-.768-4.416 0-8.16 4.224-8.928 9.216l-1.92 12.288c-.192.672-.192 1.344-.192 1.92 0 4.128 2.208 7.296 6.144 7.296 2.976 0 5.376-.576 8.448-1.824l.192 2.88c-3.456 1.44-6.048 2.016-9.792 2.016-6.24 0-10.464-4.416-10.464-10.272zM221.568 86l8.256-52.224h-2.784l.48-3.072h8.256l-5.568 35.328h7.2l10.176-18.24 2.4 1.344-9.408 16.896 3.84 16.896h2.784L246.72 86h-7.104l-3.936-16.896h-6.048L227.04 86h-5.472zm32.031-8.64c0-.384.096-.864.192-1.344.864-5.376 7.104-9.984 13.728-9.984h6.72l.768-4.608c.096-.576.096-1.248.096-1.824 0-4.128-2.208-7.392-6.048-7.392-1.92 0-4.032.288-6.24.96l-.192-2.88c2.496-.768 4.608-1.152 7.584-1.152 6.144 0 10.368 4.512 10.368 10.368 0 .672 0 1.344-.096 1.92l-3.36 21.408C272.031 85.04 269.055 86 264.351 86c-6.24 0-10.752-3.648-10.752-8.64zm5.568-.192c0 3.36 2.304 5.76 6.432 5.76 1.92 0 3.936-.288 6.144-.96l2.016-12.864h-6.72c-3.84 0-7.2 3.072-7.776 6.912-.096.48-.096.768-.096 1.152zm28.975 6.048l6.336-40.224c1.056-6.624 7.008-12.288 12.96-12.288 5.472 0 9.6 4.032 9.6 9.216 0 .48-.096 1.056-.096 1.536-.576 3.648-2.976 6.912-6.144 8.832 3.168 1.824 5.28 5.184 5.28 9.312 0 .576 0 1.248-.096 1.824l-1.92 12.288C313.006 80.432 306.574 86 299.854 86c-2.592 0-4.8-.768-6.528-2.112L288.718 86l-.576-2.784zm6.72-7.296c0 4.128 2.112 7.008 5.472 7.008 3.744 0 7.488-4.224 8.256-9.216l1.92-12.288c.096-.672.096-1.344.096-2.016 0-4.128-2.208-7.2-6.048-7.2-1.92 0-4.032.288-6.24.96l-3.264 20.544c-.192.768-.192 1.536-.192 2.208zm3.936-25.824c2.208-.672 4.32-.96 6.24-.96 2.88 0 5.76-3.552 6.432-7.68 0-.48.096-1.056.096-1.632 0-3.456-1.824-6.048-4.224-6.048-3.456 0-6.528 4.032-7.392 9.216l-1.152 7.104zm23.373 25.536c0-.672 0-1.248.192-1.92l1.92-12.288c1.056-6.624 7.872-12.288 14.88-12.288 6.432 0 11.04 4.608 11.04 10.464 0 .672 0 1.248-.096 1.824l-1.92 12.288C347.131 80.432 340.315 86 333.307 86c-6.528 0-11.136-4.512-11.136-10.368zm5.472.096c0 4.224 2.4 7.2 6.144 7.2 4.032 0 8.16-4.224 8.928-9.216l1.92-12.288c0-.48.096-1.056.096-1.632 0-4.224-2.496-7.584-6.048-7.584-4.224 0-8.064 4.032-8.928 9.216l-1.92 12.288c-.192.672-.192 1.344-.192 2.016zM382.256 86l5.376-33.696c5.088-2.208 7.968-3.168 12.672-3.168 6.144 0 10.368 4.512 10.368 10.368 0 .672 0 1.344-.096 1.92l-3.36 21.504h2.688l-.48 3.072h-8.16l3.84-24.576c.096-.672.096-1.344.096-2.016 0-4.128-2.208-7.2-6.048-7.2-1.92 0-4.032.288-6.24.96L387.728 86h-5.472zm32.939 16.416l7.968-50.112c5.088-2.208 7.968-3.168 12.672-3.168 6.144 0 10.368 4.512 10.368 10.368 0 .672 0 1.344-.096 1.92l-1.92 12.288C443.131 80.336 436.603 86 429.979 86c-2.496 0-4.608-.768-6.336-2.016l-3.072 19.008-4.8 2.208-.576-2.784zm9.792-26.784c0 4.128 2.208 7.296 5.472 7.296 3.84 0 7.392-4.032 8.256-9.216l1.92-12.288c.096-.672.096-1.344.096-2.016 0-4.128-2.208-7.2-6.048-7.2-1.92 0-4.032.288-6.24.96l-3.264 20.544c-.192.672-.192 1.344-.192 1.92zm27.403 0c0-.672 0-1.248.192-1.92l1.92-12.288c1.056-6.624 7.872-12.288 14.88-12.288 6.432 0 11.04 4.608 11.04 10.464 0 .672 0 1.248-.096 1.824l-1.92 12.288C477.35 80.432 470.534 86 463.526 86c-6.528 0-11.136-4.512-11.136-10.368zm5.472.096c0 4.224 2.4 7.2 6.144 7.2 4.032 0 8.16-4.224 8.928-9.216l1.92-12.288c0-.48.096-1.056.096-1.632 0-4.224-2.496-7.584-6.048-7.584-4.224 0-8.064 4.032-8.928 9.216l-1.92 12.288c-.192.672-.192 1.344-.192 2.016zm28.746 0c0-.672 0-1.344.192-2.016l1.92-12.288c1.056-6.816 7.392-12.288 14.208-12.288 4.512 0 7.104.768 10.944 2.592l-2.784 7.392-2.496-.768-.384-5.376c-1.92-.576-2.976-.768-5.088-.768-4.416 0-8.16 4.224-8.928 9.216l-1.92 12.288c-.192.672-.192 1.344-.192 1.92 0 4.128 2.208 7.296 6.144 7.296 2.976 0 5.376-.576 8.448-1.824l.192 2.88c-3.456 1.44-6.048 2.016-9.792 2.016-6.24 0-10.464-4.416-10.464-10.272zm34.157 0c0-.672 0-1.344.192-2.016l3.36-21.504h-2.688l.48-3.072h8.16l-3.84 24.576c-.192.768-.192 1.44-.192 2.112 0 4.128 2.208 7.104 6.144 7.104 1.92 0 4.032-.288 6.24-.96l5.184-32.832h5.472l-5.376 33.696C538.813 85.04 535.933 86 531.229 86c-6.24 0-10.464-4.416-10.464-10.272zM554.568 86l5.376-33.792h-2.784l.48-3.072h9.696l2.112 30.72 11.712-30.72h7.008l-5.376 33.792h2.688L585 86h-8.16l4.8-30.72L569.928 86h-5.664l-2.112-30.72L557.256 86h-2.688zm39.197-10.368c0-.672 0-1.248.192-1.92l1.92-12.288c1.056-6.624 7.872-12.288 14.88-12.288 6.432 0 11.04 4.608 11.04 10.464 0 .672 0 1.248-.096 1.824l-1.92 12.288C618.725 80.432 611.909 86 604.901 86c-6.528 0-11.136-4.512-11.136-10.368zm5.472.096c0 4.224 2.4 7.2 6.144 7.2 4.032 0 8.16-4.224 8.928-9.216l1.92-12.288c0-.48.096-1.056.096-1.632 0-4.224-2.496-7.584-6.048-7.584-4.224 0-8.064 4.032-8.928 9.216l-1.92 12.288c-.192.672-.192 1.344-.192 2.016zm57.204-23.52l.48-3.072h7.584l2.016 30.72 12.096-31.488 2.496.768-15.744 41.184-2.016 12.672-4.8 2.208-.576-2.784L664.217 86h-2.88l-2.208-33.792h-2.688zM123.057 247.755l.279-3.096 23.47-1.531 2.637.598-2.849 9.421-2.733-.591-.878-6.1-5.652.369-4.004 43.36 2.874-.187-.279 3.096-8.622.562 4.283-46.457-8.526.556zm32.846 41.247l3.706-40.551c.622-6.679 6.193-12.718 12.133-13.106 5.46-.356 9.842 3.399 10.179 8.572.031.479-.027 1.06.004 1.539-.337 3.678-2.52 7.091-5.556 9.213 3.28 1.614 5.606 4.83 5.874 8.949.038.575.082 1.245.023 1.826l-1.116 12.387c-.617 6.775-6.673 12.749-13.378 13.187-2.587.168-4.84-.454-6.652-1.683l-4.461 2.407-.756-2.74zm6.231-7.718c.269 4.119 2.564 6.856 5.917 6.637 3.736-.244 7.197-4.702 7.639-9.734l1.116-12.387c.052-.676.008-1.347-.035-2.018-.269-4.119-2.672-7.041-6.504-6.791-1.916.125-4.005.55-6.164 1.364l-1.921 20.713c-.141.779-.091 1.545-.048 2.216zm2.248-26.026c2.159-.814 4.248-1.239 6.164-1.364 2.874-.187 5.517-3.919 5.919-8.082-.032-.479.027-1.06-.011-1.635-.225-3.448-2.213-5.916-4.608-5.76-3.449.225-6.252 4.448-6.777 9.678l-.687 7.163zm24.985 23.962c-.044-.671-.082-1.246.066-1.929l1.117-12.387c.623-6.678 7.056-12.774 14.049-13.23 6.418-.418 11.316 3.88 11.697 9.724.044.67.081 1.245.023 1.826l-1.116 12.387c-.617 6.774-7.056 12.774-14.049 13.23-6.515.425-11.406-3.778-11.787-9.621zm5.466-.261c.275 4.215 2.864 7.029 6.6 6.785 4.023-.262 7.868-4.746 8.309-9.777l1.117-12.387c-.032-.479.027-1.06-.011-1.635-.275-4.215-2.984-7.405-6.528-7.174-4.215.275-7.785 4.548-8.31 9.777l-1.116 12.387c-.148.683-.104 1.354-.061 2.024zm28.686-1.87c-.044-.671-.087-1.341.061-2.024l1.116-12.387c.61-6.87 6.577-12.743 13.378-13.187 4.503-.293 7.139.305 11.09 1.875l-2.297 7.557-2.541-.604-.733-5.339c-1.953-.45-3.02-.573-5.127-.436-4.407.288-7.868 4.746-8.31 9.778l-.37 4.642 15.231-.993-.279 3.096-15.231.993-.467 4.649c-.148.683-.104 1.353-.067 1.928.269 4.119 2.678 7.137 6.606 6.881 2.97-.194 5.327-.925 8.311-2.37l.379 2.862c-3.355 1.661-5.904 2.405-9.64 2.648-6.226.406-10.729-3.725-11.11-9.569zm59.223 6.432l3.166-34.07-2.778.181.279-3.096 9.675-.631 4.106 30.517 9.689-31.417 6.993-.456-3.166 34.07 2.682-.174-.279 3.096-8.143.531 2.792-30.967-9.689 31.417-5.652.368-4.106-30.517-2.887 30.973-2.682.175zm38.73-2.525l3.07-34.064-2.682.175.279-3.097 8.143-.531-3.071 34.064 2.683-.175-.279 3.097-8.143.531zm3.655-45.743c-.012-.191-.025-.383.053-.677.156-2.03 1.774-3.771 3.594-3.89 1.629-.106 2.77 1.167 2.882 2.891l.038.575c-.157 2.03-1.775 3.771-3.595 3.89-1.724.112-2.859-1.064-2.972-2.789zm12.525 34.394c-.044-.67-.088-1.341.06-2.024l1.117-12.387c.61-6.87 6.576-12.743 13.378-13.186 4.502-.294 7.139.304 11.089 1.874l-2.297 7.558-2.54-.604-.733-5.34c-1.954-.45-3.02-.573-5.127-.435-4.407.287-7.868 4.746-8.31 9.777l-1.116 12.387c-.148.683-.105 1.354-.067 1.928.269 4.12 2.678 7.137 6.606 6.881 2.969-.193 5.327-.924 8.311-2.37l.379 2.862c-3.355 1.662-5.904 2.405-9.64 2.649-6.227.406-10.729-3.726-11.11-9.57zm33.028 8.14l3.172-33.974c4.934-2.534 7.745-3.68 12.439-3.986 2.874-.187 5.529.698 7.456 2.208 4.383-2.114 7.105-3.157 11.512-3.444 6.035-.394 10.544 3.834 10.925 9.677.043.671.081 1.246.029 1.922l-1.954 21.677 2.682-.174-.279 3.096-8.142.531 2.328-24.78c.052-.677.009-1.347-.035-2.018-.269-4.119-2.768-7.035-6.6-6.785-1.916.125-3.909.544-6.068 1.358l-3.037 33.1-5.46.356 2.233-24.774c.052-.677.008-1.347-.036-2.018-.268-4.119-2.672-7.041-6.504-6.791-1.915.125-4.004.549-6.164 1.364l-3.037 33.099-5.46.356zm54.062-13.915c-.044-.67-.081-1.245.067-1.928l1.116-12.387c.623-6.678 7.056-12.774 14.049-13.23 6.418-.418 11.316 3.88 11.697 9.724.044.67.082 1.245.023 1.826l-1.116 12.387c-.617 6.774-7.056 12.774-14.049 13.23-6.514.425-11.406-3.778-11.787-9.622zm5.467-.26c.274 4.215 2.863 7.029 6.599 6.785 4.023-.262 7.868-4.746 8.309-9.777l1.117-12.387c-.031-.479.027-1.06-.011-1.635-.274-4.215-2.984-7.405-6.528-7.174-4.215.275-7.785 4.548-8.31 9.777l-1.116 12.387c-.148.683-.104 1.354-.06 2.024zm53.646 23.247l4.691-50.524c4.934-2.535 7.745-3.68 12.439-3.986 6.131-.4 10.64 3.828 11.021 9.671.043.671.087 1.342.029 1.923l-1.117 12.386c-.622 6.679-6.768 12.756-13.378 13.187-2.491.162-4.648-.467-6.454-1.6l-1.828 19.168-4.647 2.516-.756-2.741zm8.029-27.364c.269 4.119 2.678 7.137 5.935 6.924 3.832-.25 7.114-4.504 7.639-9.733l1.116-12.387c.053-.677.009-1.348-.035-2.018-.268-4.12-2.672-7.041-6.504-6.792-1.915.125-4.004.55-6.164 1.364l-1.92 20.713c-.148.683-.104 1.354-.067 1.929zm27.345-1.783c-.044-.671-.081-1.246.066-1.929l1.117-12.387c.623-6.678 7.056-12.774 14.049-13.23 6.418-.418 11.316 3.88 11.697 9.724.044.67.081 1.245.023 1.826l-1.116 12.387c-.617 6.775-7.056 12.774-14.049 13.23-6.514.425-11.406-3.778-11.787-9.621zm5.466-.261c.275 4.216 2.864 7.029 6.6 6.785 4.023-.262 7.868-4.746 8.309-9.777l1.117-12.387c-.032-.479.027-1.06-.011-1.635-.275-4.215-2.984-7.405-6.528-7.174-4.215.275-7.785 4.548-8.31 9.777l-1.116 12.387c-.148.683-.104 1.354-.061 2.024zm30.088-3.982l.279-3.096 8.622-.562c3.831-.25 6.984-3.534 7.309-7.404l.467-4.648-.069-1.054c-.218-3.353-2.68-5.693-6.703-5.431-3.066.2-5.327.924-8.312 2.37l-.379-2.862c3.355-1.662 5.904-2.405 9.64-2.649 6.131-.399 10.979 3.133 11.304 8.114.025.383-.039.869-.014 1.252l-.473 4.552c-.35 3.486-2.653 6.523-6.163 8.772 3.364 1.416 5.748 4.05 5.948 7.116l.069 1.054-.933 9.296c-.792 8.518-7.887 13.309-13.562 16.277l-.756-2.741c3.719-1.974 8.182-5.824 8.682-11.437l1.108-11.039-.056-.863c-.218-3.352-3.267-5.847-7.482-5.573l-8.526.556zm30.989 7.504l3.705-40.551c.623-6.679 6.194-12.718 12.133-13.105 5.461-.356 9.842 3.399 10.179 8.572.032.479-.027 1.06.005 1.539-.338 3.677-2.52 7.091-5.557 9.213 3.28 1.614 5.606 4.829 5.875 8.948.037.575.081 1.246.023 1.827l-1.117 12.387c-.616 6.774-6.672 12.749-13.378 13.186-2.586.169-4.84-.454-6.652-1.683l-4.46 2.408-.756-2.741zm6.231-7.718c.268 4.12 2.563 6.856 5.916 6.637 3.736-.243 7.197-4.702 7.639-9.733l1.116-12.387c.052-.677.009-1.348-.035-2.018-.269-4.119-2.672-7.041-6.504-6.791-1.916.125-4.004.549-6.164 1.364l-1.92 20.712c-.142.779-.092 1.546-.048 2.216zm2.247-26.025c2.16-.814 4.249-1.239 6.164-1.364 2.874-.187 5.517-3.919 5.919-8.082-.031-.479.027-1.06-.01-1.635-.225-3.449-2.214-5.917-4.609-5.76-3.448.224-6.252 4.448-6.776 9.677l-.688 7.164zm23.373 25.798c-.025-.383.04-.869.104-1.354.513-5.421 6.44-10.425 13.05-10.856l6.705-.437.467-4.648c.058-.581.015-1.252-.023-1.827-.268-4.119-2.684-7.232-6.516-6.983-1.916.125-4.005.55-6.164 1.364l-.379-2.861c2.44-.929 4.523-1.449 7.493-1.643 6.131-.4 10.639 3.828 11.02 9.671.044.671.088 1.342.029 1.923l-1.96 21.581c-4.933 2.534-7.84 3.686-12.534 3.992-6.227.406-10.967-2.941-11.292-7.922zm5.544-.554c.219 3.353 2.674 5.598 6.793 5.329 1.916-.125 3.909-.543 6.069-1.358l1.174-12.967-6.705.437c-3.832.25-6.985 3.534-7.31 7.403-.065.485-.046.773-.021 1.156zm28.453-1.567c-.031-.479.033-.964.098-1.449 1.077-11.519 16.767-11.387 17.435-18.838-.025-.384.046-.773.027-1.06-.193-2.97-2.438-4.94-6.27-4.69-2.97.193-5.327.924-8.312 2.369l-.379-2.861c3.26-1.656 5.904-2.405 9.641-2.649 6.035-.393 10.398 3.074 10.716 7.96.031.479-.033.964-.008 1.347-1.077 11.519-16.767 11.387-17.435 18.838-.071.39-.046.773-.021 1.156.193 2.97 2.432 4.844 6.551 4.576l-.375 3.103-.67.043c-6.227.406-10.679-2.959-10.998-7.845z" fill="#2C2324"/><defs><linearGradient id="paint0_linear_120_1077" x1="242.781" y1="688.276" x2="269.261" y2="688.276" gradientUnits="userSpaceOnUse"><stop stop-color="#545A5A"/><stop offset=".26" stop-color="#363D3D"/><stop offset=".4" stop-color="#434A4C"/><stop offset=".49" stop-color="#4F5659"/><stop offset=".67" stop-color="#3A4243"/><stop offset=".83" stop-color="#2C3434"/></linearGradient><linearGradient id="paint1_linear_120_1077" x1="238.046" y1="688.276" x2="269.908" y2="688.276" gradientUnits="userSpaceOnUse"><stop stop-color="#fff"/><stop offset=".07" stop-color="#F2B9E7"/><stop offset=".15" stop-color="#E470CE"/><stop offset=".17" stop-color="#C661B3"/><stop offset=".2" stop-color="#9D4D8E"/><stop offset=".23" stop-color="#773A6C"/><stop offset=".26" stop-color="#572B4E"/><stop offset=".29" stop-color="#3B1D36"/><stop offset=".33" stop-color="#251222"/><stop offset=".38" stop-color="#150A13"/><stop offset=".44" stop-color="#090408"/><stop offset=".52" stop-color="#020102"/><stop offset=".75"/><stop offset=".78" stop-color="#0F080E"/><stop offset=".83" stop-color="#381B32"/><stop offset=".9" stop-color="#793B6D"/><stop offset=".98" stop-color="#D167BD"/><stop offset="1" stop-color="#E470CE"/></linearGradient><linearGradient id="paint2_linear_120_1077" x1="237.94" y1="693.746" x2="260.394" y2="693.746" gradientUnits="userSpaceOnUse"><stop offset=".06" stop-color="#fff"/><stop offset=".09" stop-color="#FFCED9"/><stop offset=".13" stop-color="#FF9AAF"/><stop offset=".16" stop-color="#FF718F"/><stop offset=".19" stop-color="#FF5377"/><stop offset=".22" stop-color="#FF4169"/><stop offset=".24" stop-color="#F63960"/><stop offset=".27" stop-color="#C82E4E"/><stop offset=".31" stop-color="#9D243D"/><stop offset=".35" stop-color="#771C2F"/><stop offset=".39" stop-color="#571422"/><stop offset=".43" stop-color="#3B0E17"/><stop offset=".48" stop-color="#25090F"/><stop offset=".54" stop-color="#140508"/><stop offset=".61" stop-color="#090203"/><stop offset=".72" stop-color="#020001"/><stop offset="1"/></linearGradient><linearGradient id="paint3_linear_120_1077" x1="255.761" y1="419.698" x2="255.761" y2="412.41" gradientUnits="userSpaceOnUse"><stop stop-opacity="0"/><stop offset="1" stop-color="#363D3D"/></linearGradient><linearGradient id="paint4_linear_120_1077" x1="238" y1="289.764" x2="273.518" y2="289.764" gradientUnits="userSpaceOnUse"><stop stop-color="#545A5A"/><stop offset=".26" stop-color="#363D3D"/><stop offset=".4" stop-color="#434A4C"/><stop offset=".49" stop-color="#4F5659"/><stop offset=".67" stop-color="#3A4243"/><stop offset=".83" stop-color="#2C3434"/></linearGradient><linearGradient id="paint5_linear_120_1077" x1="306.668" y1="299.726" x2="248.807" y2="288.204" gradientUnits="userSpaceOnUse"><stop offset=".06" stop-color="#fff"/><stop offset=".09" stop-color="#FFCED9"/><stop offset=".13" stop-color="#FF9AAF"/><stop offset=".16" stop-color="#FF718F"/><stop offset=".19" stop-color="#FF5377"/><stop offset=".22" stop-color="#FF4169"/><stop offset=".24" stop-color="#F63960"/><stop offset=".27" stop-color="#C82E4E"/><stop offset=".31" stop-color="#9D243D"/><stop offset=".35" stop-color="#771C2F"/><stop offset=".39" stop-color="#571422"/><stop offset=".43" stop-color="#3B0E17"/><stop offset=".48" stop-color="#25090F"/><stop offset=".54" stop-color="#140508"/><stop offset=".61" stop-color="#090203"/><stop offset=".72" stop-color="#020001"/><stop offset="1"/></linearGradient><linearGradient id="paint6_linear_120_1077" x1="231.508" y1="289.764" x2="261.621" y2="289.764" gradientUnits="userSpaceOnUse"><stop offset=".06" stop-color="#fff"/><stop offset=".09" stop-color="#FFCED9"/><stop offset=".13" stop-color="#FF9AAF"/><stop offset=".16" stop-color="#FF718F"/><stop offset=".19" stop-color="#FF5377"/><stop offset=".22" stop-color="#FF4169"/><stop offset=".24" stop-color="#F63960"/><stop offset=".27" stop-color="#C82E4E"/><stop offset=".31" stop-color="#9D243D"/><stop offset=".35" stop-color="#771C2F"/><stop offset=".39" stop-color="#571422"/><stop offset=".43" stop-color="#3B0E17"/><stop offset=".48" stop-color="#25090F"/><stop offset=".54" stop-color="#140508"/><stop offset=".61" stop-color="#090203"/><stop offset=".72" stop-color="#020001"/><stop offset="1"/></linearGradient><linearGradient id="paint7_linear_120_1077" x1="238" y1="413.732" x2="273.519" y2="413.732" gradientUnits="userSpaceOnUse"><stop stop-color="#363D3D"/><stop offset=".26" stop-color="#282F2F"/><stop offset=".42" stop-color="#343B3E"/><stop offset=".49" stop-color="#3C4347"/><stop offset=".67" stop-color="#262F30"/><stop offset=".83" stop-color="#182121"/></linearGradient><linearGradient id="paint8_linear_120_1077" x1="523.082" y1="688.276" x2="549.562" y2="688.276" gradientUnits="userSpaceOnUse"><stop stop-color="#545A5A"/><stop offset=".26" stop-color="#363D3D"/><stop offset=".4" stop-color="#434A4C"/><stop offset=".49" stop-color="#4F5659"/><stop offset=".67" stop-color="#3A4243"/><stop offset=".83" stop-color="#2C3434"/></linearGradient><linearGradient id="paint9_linear_120_1077" x1="518.347" y1="688.276" x2="550.209" y2="688.276" gradientUnits="userSpaceOnUse"><stop stop-color="#fff"/><stop offset=".07" stop-color="#F2B9E7"/><stop offset=".15" stop-color="#E470CE"/><stop offset=".17" stop-color="#C661B3"/><stop offset=".2" stop-color="#9D4D8E"/><stop offset=".23" stop-color="#773A6C"/><stop offset=".26" stop-color="#572B4E"/><stop offset=".29" stop-color="#3B1D36"/><stop offset=".33" stop-color="#251222"/><stop offset=".38" stop-color="#150A13"/><stop offset=".44" stop-color="#090408"/><stop offset=".52" stop-color="#020102"/><stop offset=".75"/><stop offset=".78" stop-color="#0F080E"/><stop offset=".83" stop-color="#381B32"/><stop offset=".9" stop-color="#793B6D"/><stop offset=".98" stop-color="#D167BD"/><stop offset="1" stop-color="#E470CE"/></linearGradient><linearGradient id="paint10_linear_120_1077" x1="518.241" y1="689.371" x2="540.695" y2="689.371" gradientUnits="userSpaceOnUse"><stop offset=".06" stop-color="#fff"/><stop offset=".09" stop-color="#FFCED9"/><stop offset=".13" stop-color="#FF9AAF"/><stop offset=".16" stop-color="#FF718F"/><stop offset=".19" stop-color="#FF5377"/><stop offset=".22" stop-color="#FF4169"/><stop offset=".24" stop-color="#F63960"/><stop offset=".27" stop-color="#C82E4E"/><stop offset=".31" stop-color="#9D243D"/><stop offset=".35" stop-color="#771C2F"/><stop offset=".39" stop-color="#571422"/><stop offset=".43" stop-color="#3B0E17"/><stop offset=".48" stop-color="#25090F"/><stop offset=".54" stop-color="#140508"/><stop offset=".61" stop-color="#090203"/><stop offset=".72" stop-color="#020001"/><stop offset="1"/></linearGradient><linearGradient id="paint11_linear_120_1077" x1="536.76" y1="419.698" x2="536.76" y2="412.41" gradientUnits="userSpaceOnUse"><stop stop-opacity="0"/><stop offset="1" stop-color="#363D3D"/></linearGradient><linearGradient id="paint12_linear_120_1077" x1="519" y1="289.764" x2="554.518" y2="289.764" gradientUnits="userSpaceOnUse"><stop stop-color="#545A5A"/><stop offset=".26" stop-color="#363D3D"/><stop offset=".4" stop-color="#434A4C"/><stop offset=".49" stop-color="#4F5659"/><stop offset=".67" stop-color="#3A4243"/><stop offset=".83" stop-color="#2C3434"/></linearGradient><linearGradient id="paint13_linear_120_1077" x1="587.668" y1="299.725" x2="529.807" y2="288.203" gradientUnits="userSpaceOnUse"><stop offset=".06" stop-color="#fff"/><stop offset=".09" stop-color="#FFCED9"/><stop offset=".13" stop-color="#FF9AAF"/><stop offset=".16" stop-color="#FF718F"/><stop offset=".19" stop-color="#FF5377"/><stop offset=".22" stop-color="#FF4169"/><stop offset=".24" stop-color="#F63960"/><stop offset=".27" stop-color="#C82E4E"/><stop offset=".31" stop-color="#9D243D"/><stop offset=".35" stop-color="#771C2F"/><stop offset=".39" stop-color="#571422"/><stop offset=".43" stop-color="#3B0E17"/><stop offset=".48" stop-color="#25090F"/><stop offset=".54" stop-color="#140508"/><stop offset=".61" stop-color="#090203"/><stop offset=".72" stop-color="#020001"/><stop offset="1"/></linearGradient><linearGradient id="paint14_linear_120_1077" x1="512.508" y1="289.764" x2="542.62" y2="289.764" gradientUnits="userSpaceOnUse"><stop offset=".06" stop-color="#fff"/><stop offset=".09" stop-color="#FFCED9"/><stop offset=".13" stop-color="#FF9AAF"/><stop offset=".16" stop-color="#FF718F"/><stop offset=".19" stop-color="#FF5377"/><stop offset=".22" stop-color="#FF4169"/><stop offset=".24" stop-color="#F63960"/><stop offset=".27" stop-color="#C82E4E"/><stop offset=".31" stop-color="#9D243D"/><stop offset=".35" stop-color="#771C2F"/><stop offset=".39" stop-color="#571422"/><stop offset=".43" stop-color="#3B0E17"/><stop offset=".48" stop-color="#25090F"/><stop offset=".54" stop-color="#140508"/><stop offset=".61" stop-color="#090203"/><stop offset=".72" stop-color="#020001"/><stop offset="1"/></linearGradient><linearGradient id="paint15_linear_120_1077" x1="519" y1="413.732" x2="554.518" y2="413.732" gradientUnits="userSpaceOnUse"><stop stop-color="#363D3D"/><stop offset=".26" stop-color="#282F2F"/><stop offset=".42" stop-color="#343B3E"/><stop offset=".49" stop-color="#3C4347"/><stop offset=".67" stop-color="#262F30"/><stop offset=".83" stop-color="#182121"/></linearGradient><linearGradient id="paint16_linear_120_1077" x1="384.033" y1="705.781" x2="410.514" y2="705.781" gradientUnits="userSpaceOnUse"><stop stop-color="#545A5A"/><stop offset=".26" stop-color="#363D3D"/><stop offset=".4" stop-color="#434A4C"/><stop offset=".49" stop-color="#4F5659"/><stop offset=".67" stop-color="#3A4243"/><stop offset=".83" stop-color="#2C3434"/></linearGradient><linearGradient id="paint17_linear_120_1077" x1="379.299" y1="705.781" x2="411.16" y2="705.781" gradientUnits="userSpaceOnUse"><stop stop-color="#fff"/><stop offset=".07" stop-color="#F2B9E7"/><stop offset=".15" stop-color="#E470CE"/><stop offset=".17" stop-color="#C661B3"/><stop offset=".2" stop-color="#9D4D8E"/><stop offset=".23" stop-color="#773A6C"/><stop offset=".26" stop-color="#572B4E"/><stop offset=".29" stop-color="#3B1D36"/><stop offset=".33" stop-color="#251222"/><stop offset=".38" stop-color="#150A13"/><stop offset=".44" stop-color="#090408"/><stop offset=".52" stop-color="#020102"/><stop offset=".75"/><stop offset=".78" stop-color="#0F080E"/><stop offset=".83" stop-color="#381B32"/><stop offset=".9" stop-color="#793B6D"/><stop offset=".98" stop-color="#D167BD"/><stop offset="1" stop-color="#E470CE"/></linearGradient><linearGradient id="paint18_linear_120_1077" x1="379.192" y1="712.345" x2="401.646" y2="712.345" gradientUnits="userSpaceOnUse"><stop offset=".06" stop-color="#fff"/><stop offset=".09" stop-color="#FFCED9"/><stop offset=".13" stop-color="#FF9AAF"/><stop offset=".16" stop-color="#FF718F"/><stop offset=".19" stop-color="#FF5377"/><stop offset=".22" stop-color="#FF4169"/><stop offset=".24" stop-color="#F63960"/><stop offset=".27" stop-color="#C82E4E"/><stop offset=".31" stop-color="#9D243D"/><stop offset=".35" stop-color="#771C2F"/><stop offset=".39" stop-color="#571422"/><stop offset=".43" stop-color="#3B0E17"/><stop offset=".48" stop-color="#25090F"/><stop offset=".54" stop-color="#140508"/><stop offset=".61" stop-color="#090203"/><stop offset=".72" stop-color="#020001"/><stop offset="1"/></linearGradient><linearGradient id="paint19_linear_120_1077" x1="396.763" y1="455.387" x2="396.763" y2="448.099" gradientUnits="userSpaceOnUse"><stop stop-opacity="0"/><stop offset="1" stop-color="#363D3D"/></linearGradient><linearGradient id="paint20_linear_120_1077" x1="379.002" y1="325.453" x2="414.52" y2="325.453" gradientUnits="userSpaceOnUse"><stop stop-color="#545A5A"/><stop offset=".26" stop-color="#363D3D"/><stop offset=".4" stop-color="#434A4C"/><stop offset=".49" stop-color="#4F5659"/><stop offset=".67" stop-color="#3A4243"/><stop offset=".83" stop-color="#2C3434"/></linearGradient><linearGradient id="paint21_linear_120_1077" x1="447.67" y1="335.414" x2="389.809" y2="323.892" gradientUnits="userSpaceOnUse"><stop offset=".06" stop-color="#fff"/><stop offset=".09" stop-color="#FFCED9"/><stop offset=".13" stop-color="#FF9AAF"/><stop offset=".16" stop-color="#FF718F"/><stop offset=".19" stop-color="#FF5377"/><stop offset=".22" stop-color="#FF4169"/><stop offset=".24" stop-color="#F63960"/><stop offset=".27" stop-color="#C82E4E"/><stop offset=".31" stop-color="#9D243D"/><stop offset=".35" stop-color="#771C2F"/><stop offset=".39" stop-color="#571422"/><stop offset=".43" stop-color="#3B0E17"/><stop offset=".48" stop-color="#25090F"/><stop offset=".54" stop-color="#140508"/><stop offset=".61" stop-color="#090203"/><stop offset=".72" stop-color="#020001"/><stop offset="1"/></linearGradient><linearGradient id="paint22_linear_120_1077" x1="372.51" y1="325.453" x2="402.623" y2="325.453" gradientUnits="userSpaceOnUse"><stop offset=".06" stop-color="#fff"/><stop offset=".09" stop-color="#FFCED9"/><stop offset=".13" stop-color="#FF9AAF"/><stop offset=".16" stop-color="#FF718F"/><stop offset=".19" stop-color="#FF5377"/><stop offset=".22" stop-color="#FF4169"/><stop offset=".24" stop-color="#F63960"/><stop offset=".27" stop-color="#C82E4E"/><stop offset=".31" stop-color="#9D243D"/><stop offset=".35" stop-color="#771C2F"/><stop offset=".39" stop-color="#571422"/><stop offset=".43" stop-color="#3B0E17"/><stop offset=".48" stop-color="#25090F"/><stop offset=".54" stop-color="#140508"/><stop offset=".61" stop-color="#090203"/><stop offset=".72" stop-color="#020001"/><stop offset="1"/></linearGradient><linearGradient id="paint23_linear_120_1077" x1="379.002" y1="449.421" x2="414.52" y2="449.421" gradientUnits="userSpaceOnUse"><stop stop-color="#363D3D"/><stop offset=".26" stop-color="#282F2F"/><stop offset=".42" stop-color="#343B3E"/><stop offset=".49" stop-color="#3C4347"/><stop offset=".67" stop-color="#262F30"/><stop offset=".83" stop-color="#182121"/></linearGradient><linearGradient id="paint25_linear_120_1077" x1="242.584" y1="494.841" x2="268.935" y2="494.841" gradientUnits="userSpaceOnUse"><stop stop-color="#545A5A"/><stop offset=".26" stop-color="#363D3D"/><stop offset=".4" stop-color="#434A4C"/><stop offset=".49" stop-color="#4F5659"/><stop offset=".67" stop-color="#3A4243"/><stop offset=".83" stop-color="#2C3434"/></linearGradient><linearGradient id="paint26_linear_120_1077" x1="237.873" y1="494.841" x2="269.578" y2="494.841" gradientUnits="userSpaceOnUse"><stop stop-color="#fff"/><stop offset=".07" stop-color="#F2B9E7"/><stop offset=".15" stop-color="#E470CE"/><stop offset=".17" stop-color="#C661B3"/><stop offset=".2" stop-color="#9D4D8E"/><stop offset=".23" stop-color="#773A6C"/><stop offset=".26" stop-color="#572B4E"/><stop offset=".29" stop-color="#3B1D36"/><stop offset=".33" stop-color="#251222"/><stop offset=".38" stop-color="#150A13"/><stop offset=".44" stop-color="#090408"/><stop offset=".52" stop-color="#020102"/><stop offset=".75"/><stop offset=".78" stop-color="#0F080E"/><stop offset=".83" stop-color="#381B32"/><stop offset=".9" stop-color="#793B6D"/><stop offset=".98" stop-color="#D167BD"/><stop offset="1" stop-color="#E470CE"/></linearGradient><linearGradient id="paint27_linear_120_1077" x1="238.248" y1="500" x2="260.291" y2="500" gradientUnits="userSpaceOnUse"><stop offset=".06" stop-color="#fff"/><stop offset=".09" stop-color="#FFCED9"/><stop offset=".13" stop-color="#FF9AAF"/><stop offset=".16" stop-color="#FF718F"/><stop offset=".19" stop-color="#FF5377"/><stop offset=".22" stop-color="#FF4169"/><stop offset=".24" stop-color="#F63960"/><stop offset=".27" stop-color="#C82E4E"/><stop offset=".31" stop-color="#9D243D"/><stop offset=".35" stop-color="#771C2F"/><stop offset=".39" stop-color="#571422"/><stop offset=".43" stop-color="#3B0E17"/><stop offset=".48" stop-color="#25090F"/><stop offset=".54" stop-color="#140508"/><stop offset=".61" stop-color="#090203"/><stop offset=".72" stop-color="#020001"/><stop offset="1"/></linearGradient><linearGradient id="paint28_linear_120_1077" x1="255.76" y1="423.208" x2="255.76" y2="415.856" gradientUnits="userSpaceOnUse"><stop stop-opacity="0"/><stop offset="1" stop-color="#363D3D"/></linearGradient><linearGradient id="paint29_linear_120_1077" x1="238" y1="292.141" x2="273.518" y2="292.141" gradientUnits="userSpaceOnUse"><stop stop-color="#545A5A"/><stop offset=".26" stop-color="#363D3D"/><stop offset=".4" stop-color="#434A4C"/><stop offset=".49" stop-color="#4F5659"/><stop offset=".67" stop-color="#3A4243"/><stop offset=".83" stop-color="#2C3434"/></linearGradient><linearGradient id="paint30_linear_120_1077" x1="306.668" y1="302.189" x2="248.769" y2="290.76" gradientUnits="userSpaceOnUse"><stop offset=".06" stop-color="#fff"/><stop offset=".09" stop-color="#FFCED9"/><stop offset=".13" stop-color="#FF9AAF"/><stop offset=".16" stop-color="#FF718F"/><stop offset=".19" stop-color="#FF5377"/><stop offset=".22" stop-color="#FF4169"/><stop offset=".24" stop-color="#F63960"/><stop offset=".27" stop-color="#C82E4E"/><stop offset=".31" stop-color="#9D243D"/><stop offset=".35" stop-color="#771C2F"/><stop offset=".39" stop-color="#571422"/><stop offset=".43" stop-color="#3B0E17"/><stop offset=".48" stop-color="#25090F"/><stop offset=".54" stop-color="#140508"/><stop offset=".61" stop-color="#090203"/><stop offset=".72" stop-color="#020001"/><stop offset="1"/></linearGradient><linearGradient id="paint31_linear_120_1077" x1="231.508" y1="292.141" x2="261.621" y2="292.141" gradientUnits="userSpaceOnUse"><stop offset=".06" stop-color="#fff"/><stop offset=".09" stop-color="#FFCED9"/><stop offset=".13" stop-color="#FF9AAF"/><stop offset=".16" stop-color="#FF718F"/><stop offset=".19" stop-color="#FF5377"/><stop offset=".22" stop-color="#FF4169"/><stop offset=".24" stop-color="#F63960"/><stop offset=".27" stop-color="#C82E4E"/><stop offset=".31" stop-color="#9D243D"/><stop offset=".35" stop-color="#771C2F"/><stop offset=".39" stop-color="#571422"/><stop offset=".43" stop-color="#3B0E17"/><stop offset=".48" stop-color="#25090F"/><stop offset=".54" stop-color="#140508"/><stop offset=".61" stop-color="#090203"/><stop offset=".72" stop-color="#020001"/><stop offset="1"/></linearGradient><linearGradient id="paint32_linear_120_1077" x1="238" y1="417.189" x2="273.518" y2="417.189" gradientUnits="userSpaceOnUse"><stop stop-color="#363D3D"/><stop offset=".26" stop-color="#282F2F"/><stop offset=".42" stop-color="#343B3E"/><stop offset=".49" stop-color="#3C4347"/><stop offset=".67" stop-color="#262F30"/><stop offset=".83" stop-color="#182121"/></linearGradient><linearGradient id="paint33_linear_120_1077" x1="523.584" y1="494.841" x2="549.935" y2="494.841" gradientUnits="userSpaceOnUse"><stop stop-color="#545A5A"/><stop offset=".26" stop-color="#363D3D"/><stop offset=".4" stop-color="#434A4C"/><stop offset=".49" stop-color="#4F5659"/><stop offset=".67" stop-color="#3A4243"/><stop offset=".83" stop-color="#2C3434"/></linearGradient><linearGradient id="paint34_linear_120_1077" x1="518.873" y1="494.841" x2="550.578" y2="494.841" gradientUnits="userSpaceOnUse"><stop stop-color="#fff"/><stop offset=".07" stop-color="#F2B9E7"/><stop offset=".15" stop-color="#E470CE"/><stop offset=".17" stop-color="#C661B3"/><stop offset=".2" stop-color="#9D4D8E"/><stop offset=".23" stop-color="#773A6C"/><stop offset=".26" stop-color="#572B4E"/><stop offset=".29" stop-color="#3B1D36"/><stop offset=".33" stop-color="#251222"/><stop offset=".38" stop-color="#150A13"/><stop offset=".44" stop-color="#090408"/><stop offset=".52" stop-color="#020102"/><stop offset=".75"/><stop offset=".78" stop-color="#0F080E"/><stop offset=".83" stop-color="#381B32"/><stop offset=".9" stop-color="#793B6D"/><stop offset=".98" stop-color="#D167BD"/><stop offset="1" stop-color="#E470CE"/></linearGradient><linearGradient id="paint35_linear_120_1077" x1="519.248" y1="500" x2="541.291" y2="500" gradientUnits="userSpaceOnUse"><stop offset=".06" stop-color="#fff"/><stop offset=".09" stop-color="#FFCED9"/><stop offset=".13" stop-color="#FF9AAF"/><stop offset=".16" stop-color="#FF718F"/><stop offset=".19" stop-color="#FF5377"/><stop offset=".22" stop-color="#FF4169"/><stop offset=".24" stop-color="#F63960"/><stop offset=".27" stop-color="#C82E4E"/><stop offset=".31" stop-color="#9D243D"/><stop offset=".35" stop-color="#771C2F"/><stop offset=".39" stop-color="#571422"/><stop offset=".43" stop-color="#3B0E17"/><stop offset=".48" stop-color="#25090F"/><stop offset=".54" stop-color="#140508"/><stop offset=".61" stop-color="#090203"/><stop offset=".72" stop-color="#020001"/><stop offset="1"/></linearGradient><linearGradient id="paint36_linear_120_1077" x1="536.76" y1="423.208" x2="536.76" y2="415.856" gradientUnits="userSpaceOnUse"><stop stop-opacity="0"/><stop offset="1" stop-color="#363D3D"/></linearGradient><linearGradient id="paint37_linear_120_1077" x1="519" y1="292.141" x2="554.518" y2="292.141" gradientUnits="userSpaceOnUse"><stop stop-color="#545A5A"/><stop offset=".26" stop-color="#363D3D"/><stop offset=".4" stop-color="#434A4C"/><stop offset=".49" stop-color="#4F5659"/><stop offset=".67" stop-color="#3A4243"/><stop offset=".83" stop-color="#2C3434"/></linearGradient><linearGradient id="paint38_linear_120_1077" x1="587.668" y1="302.189" x2="529.769" y2="290.76" gradientUnits="userSpaceOnUse"><stop offset=".06" stop-color="#fff"/><stop offset=".09" stop-color="#FFCED9"/><stop offset=".13" stop-color="#FF9AAF"/><stop offset=".16" stop-color="#FF718F"/><stop offset=".19" stop-color="#FF5377"/><stop offset=".22" stop-color="#FF4169"/><stop offset=".24" stop-color="#F63960"/><stop offset=".27" stop-color="#C82E4E"/><stop offset=".31" stop-color="#9D243D"/><stop offset=".35" stop-color="#771C2F"/><stop offset=".39" stop-color="#571422"/><stop offset=".43" stop-color="#3B0E17"/><stop offset=".48" stop-color="#25090F"/><stop offset=".54" stop-color="#140508"/><stop offset=".61" stop-color="#090203"/><stop offset=".72" stop-color="#020001"/><stop offset="1"/></linearGradient><linearGradient id="paint39_linear_120_1077" x1="512.508" y1="292.141" x2="542.621" y2="292.141" gradientUnits="userSpaceOnUse"><stop offset=".06" stop-color="#fff"/><stop offset=".09" stop-color="#FFCED9"/><stop offset=".13" stop-color="#FF9AAF"/><stop offset=".16" stop-color="#FF718F"/><stop offset=".19" stop-color="#FF5377"/><stop offset=".22" stop-color="#FF4169"/><stop offset=".24" stop-color="#F63960"/><stop offset=".27" stop-color="#C82E4E"/><stop offset=".31" stop-color="#9D243D"/><stop offset=".35" stop-color="#771C2F"/><stop offset=".39" stop-color="#571422"/><stop offset=".43" stop-color="#3B0E17"/><stop offset=".48" stop-color="#25090F"/><stop offset=".54" stop-color="#140508"/><stop offset=".61" stop-color="#090203"/><stop offset=".72" stop-color="#020001"/><stop offset="1"/></linearGradient><linearGradient id="paint40_linear_120_1077" x1="519" y1="417.189" x2="554.518" y2="417.189" gradientUnits="userSpaceOnUse"><stop stop-color="#363D3D"/><stop offset=".26" stop-color="#282F2F"/><stop offset=".42" stop-color="#343B3E"/><stop offset=".49" stop-color="#3C4347"/><stop offset=".67" stop-color="#262F30"/><stop offset=".83" stop-color="#182121"/></linearGradient><linearGradient id="paint41_linear_120_1077" x1="383.584" y1="530.841" x2="409.935" y2="530.841" gradientUnits="userSpaceOnUse"><stop stop-color="#545A5A"/><stop offset=".26" stop-color="#363D3D"/><stop offset=".4" stop-color="#434A4C"/><stop offset=".49" stop-color="#4F5659"/><stop offset=".67" stop-color="#3A4243"/><stop offset=".83" stop-color="#2C3434"/></linearGradient><linearGradient id="paint42_linear_120_1077" x1="378.873" y1="530.841" x2="410.578" y2="530.841" gradientUnits="userSpaceOnUse"><stop stop-color="#fff"/><stop offset=".07" stop-color="#F2B9E7"/><stop offset=".15" stop-color="#E470CE"/><stop offset=".17" stop-color="#C661B3"/><stop offset=".2" stop-color="#9D4D8E"/><stop offset=".23" stop-color="#773A6C"/><stop offset=".26" stop-color="#572B4E"/><stop offset=".29" stop-color="#3B1D36"/><stop offset=".33" stop-color="#251222"/><stop offset=".38" stop-color="#150A13"/><stop offset=".44" stop-color="#090408"/><stop offset=".52" stop-color="#020102"/><stop offset=".75"/><stop offset=".78" stop-color="#0F080E"/><stop offset=".83" stop-color="#381B32"/><stop offset=".9" stop-color="#793B6D"/><stop offset=".98" stop-color="#D167BD"/><stop offset="1" stop-color="#E470CE"/></linearGradient><linearGradient id="paint43_linear_120_1077" x1="379.248" y1="536" x2="401.291" y2="536" gradientUnits="userSpaceOnUse"><stop offset=".06" stop-color="#fff"/><stop offset=".09" stop-color="#FFCED9"/><stop offset=".13" stop-color="#FF9AAF"/><stop offset=".16" stop-color="#FF718F"/><stop offset=".19" stop-color="#FF5377"/><stop offset=".22" stop-color="#FF4169"/><stop offset=".24" stop-color="#F63960"/><stop offset=".27" stop-color="#C82E4E"/><stop offset=".31" stop-color="#9D243D"/><stop offset=".35" stop-color="#771C2F"/><stop offset=".39" stop-color="#571422"/><stop offset=".43" stop-color="#3B0E17"/><stop offset=".48" stop-color="#25090F"/><stop offset=".54" stop-color="#140508"/><stop offset=".61" stop-color="#090203"/><stop offset=".72" stop-color="#020001"/><stop offset="1"/></linearGradient><linearGradient id="paint44_linear_120_1077" x1="396.76" y1="459.208" x2="396.76" y2="451.856" gradientUnits="userSpaceOnUse"><stop stop-opacity="0"/><stop offset="1" stop-color="#363D3D"/></linearGradient><linearGradient id="paint45_linear_120_1077" x1="379" y1="328.141" x2="414.518" y2="328.141" gradientUnits="userSpaceOnUse"><stop stop-color="#545A5A"/><stop offset=".26" stop-color="#363D3D"/><stop offset=".4" stop-color="#434A4C"/><stop offset=".49" stop-color="#4F5659"/><stop offset=".67" stop-color="#3A4243"/><stop offset=".83" stop-color="#2C3434"/></linearGradient><linearGradient id="paint46_linear_120_1077" x1="447.668" y1="338.189" x2="389.769" y2="326.76" gradientUnits="userSpaceOnUse"><stop offset=".06" stop-color="#fff"/><stop offset=".09" stop-color="#FFCED9"/><stop offset=".13" stop-color="#FF9AAF"/><stop offset=".16" stop-color="#FF718F"/><stop offset=".19" stop-color="#FF5377"/><stop offset=".22" stop-color="#FF4169"/><stop offset=".24" stop-color="#F63960"/><stop offset=".27" stop-color="#C82E4E"/><stop offset=".31" stop-color="#9D243D"/><stop offset=".35" stop-color="#771C2F"/><stop offset=".39" stop-color="#571422"/><stop offset=".43" stop-color="#3B0E17"/><stop offset=".48" stop-color="#25090F"/><stop offset=".54" stop-color="#140508"/><stop offset=".61" stop-color="#090203"/><stop offset=".72" stop-color="#020001"/><stop offset="1"/></linearGradient><linearGradient id="paint47_linear_120_1077" x1="372.508" y1="328.141" x2="402.621" y2="328.141" gradientUnits="userSpaceOnUse"><stop offset=".06" stop-color="#fff"/><stop offset=".09" stop-color="#FFCED9"/><stop offset=".13" stop-color="#FF9AAF"/><stop offset=".16" stop-color="#FF718F"/><stop offset=".19" stop-color="#FF5377"/><stop offset=".22" stop-color="#FF4169"/><stop offset=".24" stop-color="#F63960"/><stop offset=".27" stop-color="#C82E4E"/><stop offset=".31" stop-color="#9D243D"/><stop offset=".35" stop-color="#771C2F"/><stop offset=".39" stop-color="#571422"/><stop offset=".43" stop-color="#3B0E17"/><stop offset=".48" stop-color="#25090F"/><stop offset=".54" stop-color="#140508"/><stop offset=".61" stop-color="#090203"/><stop offset=".72" stop-color="#020001"/><stop offset="1"/></linearGradient><linearGradient id="paint48_linear_120_1077" x1="379" y1="453.189" x2="414.518" y2="453.189" gradientUnits="userSpaceOnUse"><stop stop-color="#363D3D"/><stop offset=".26" stop-color="#282F2F"/><stop offset=".42" stop-color="#343B3E"/><stop offset=".49" stop-color="#3C4347"/><stop offset=".67" stop-color="#262F30"/><stop offset=".83" stop-color="#182121"/></linearGradient><radialGradient id="paint24_radial_120_1077" cx="0" cy="0" r="1" gradientUnits="userSpaceOnUse" gradientTransform="matrix(-262.1181 -6.94163 6.32832 -238.95922 405.791 167.191)"><stop stop-color="#212D9C"/><stop offset="1" stop-color="#12123C"/></radialGradient><radialGradient id="paint49_radial_120_1077" cx="0" cy="0" r="1" gradientUnits="userSpaceOnUse" gradientTransform="rotate(-178.483 204.026 81.564) scale(264.414 241.127)"><stop stop-color="#212D9C"/><stop offset="1" stop-color="#12123C"/></radialGradient><filter id="filter0_i_120_1077" x="91.586" y="17" width="626.956" height="327.989" filterUnits="userSpaceOnUse" color-interpolation-filters="sRGB"><feFlood flood-opacity="0" result="BackgroundImageFix"/><feBlend in="SourceGraphic" in2="BackgroundImageFix" result="shape"/><feColorMatrix in="SourceAlpha" values="0 0 0 0 0 0 0 0 0 0 0 0 0 0 0 0 0 0 127 0" result="hardAlpha"/><feOffset/><feGaussianBlur stdDeviation="22.5"/><feComposite in2="hardAlpha" operator="arithmetic" k2="-1" k3="1"/><feColorMatrix values="0 0 0 0 0 0 0 0 0 0 0 0 0 0 0 0 0 0 1 0"/><feBlend in2="shape" result="effect1_innerShadow_120_1077"/></filter><filter id="filter1_i_120_1077" x="88.968" y="17" width="632.247" height="330.857" filterUnits="userSpaceOnUse" color-interpolation-filters="sRGB"><feFlood flood-opacity="0" result="BackgroundImageFix"/><feBlend in="SourceGraphic" in2="BackgroundImageFix" result="shape"/><feColorMatrix in="SourceAlpha" values="0 0 0 0 0 0 0 0 0 0 0 0 0 0 0 0 0 0 127 0" result="hardAlpha"/><feOffset/><feGaussianBlur stdDeviation="22.5"/><feComposite in2="hardAlpha" operator="arithmetic" k2="-1" k3="1"/><feColorMatrix values="0 0 0 0 0 0 0 0 0 0 0 0 0 0 0 0 0 0 1 0"/><feBlend in2="shape" result="effect1_innerShadow_120_1077"/></filter></defs></svg>