<svg viewBox="0 0 535 176" xmlns="http://www.w3.org/2000/svg" fill-rule="evenodd" clip-rule="evenodd" stroke-linejoin="round" stroke-miterlimit="2"><g transform="matrix(.768 0 0 .8504 -169 -2689.48)"><g id="fav_online_casino"><g transform="matrix(2.59176 0 0 2.67636 -4378.939 -1276.869)"><g id="Final_logo"><path fill="#ff267e" d="M0 0h224.87v40H0z" transform="matrix(1.19285 0 0 1.04322 1774.56 1658.91)"/><path d="M72.75 19.26h-13.4v-3.89h16.21V10H51.58v20h7.77v-5.37h13.4v-5.37zm42.59 4.06L108.23 10h-8.92l11.55 20h8.85l11.54-20h-8.79l-7.12 13.32zm40.82-3.48a4.708 4.708 0 003-4.3c0-3.28-2.77-5.54-8.22-5.54h-17.59v20h18c5.85 0 8.45-2.31 8.45-5.66-.04-1.87-1.17-3.56-3.64-4.5zm-15.24-5h8.67a1.537 1.537 0 011.831 1.5 1.537 1.537 0 01-1.831 1.5h-8.67v-3zm9.3 10.4h-9.3v-3h9.3a1.537 1.537 0 011.831 1.5 1.537 1.537 0 01-1.831 1.5zm21-3.07h13.38v-4.34h-13.38v-2.46h14.79V10h-22.56v20h22.91v-5.37h-15.14v-2.46zM189.57 10v5.37h8.72V30h7.86V15.37h8.71V10h-25.29zM84.59 10L73.05 30h8.26l1.56-2.95h12.34L96.77 30h8.6L93.82 10h-9.23zm1 11.86L89 15.42l3.41 6.44h-6.82zm-75.53-4.02L16.95 30h8.85l-6.9-12.16h-8.84zm22.63 0L25.8 30h8.84l6.89-12.16h-8.84zM25.8 5.71l-6.9 12.13h13.79L25.8 5.71z" fill="#005" fill-rule="nonzero" transform="matrix(1.19285 0 0 1.04322 1774.56 1658.91)"/></g><path fill="#005" d="M8142 301h271v271h-271z" transform="matrix(.80475 0 0 .12757 -4776.87 1662.24)"/><path d="M.184-.363c0 .043.006.08.017.113.011.033.025.06.044.082a.187.187 0 00.146.067.187.187 0 00.146-.067.239.239 0 00.045-.082.385.385 0 000-.226.243.243 0 00-.045-.081.187.187 0 00-.146-.067.187.187 0 00-.146.067.242.242 0 00-.044.081.353.353 0 00-.017.113zm.562 0a.439.439 0 01-.025.153.32.32 0 01-.183.196.385.385 0 01-.147.027.376.376 0 01-.146-.027.325.325 0 01-.184-.196.439.439 0 01-.025-.153c0-.056.008-.107.025-.154a.329.329 0 01.33-.221c.054 0 .103.009.147.027.043.018.08.043.112.076a.341.341 0 01.071.118.448.448 0 01.025.154z" fill="#ff267e" fill-rule="nonzero" transform="matrix(21.9449 0 0 19.0226 1786.168 1724.821)"/><path d="M.49 0L.2-.553V0H.065v-.725h.186l.29.553v-.553h.135V0H.49z" fill="#ff267e" fill-rule="nonzero" transform="matrix(21.9449 0 0 19.0226 1805.524 1724.821)"/><path d="M.208-.116h.353V0H.065v-.725h.143v.609z" fill="#ff267e" fill-rule="nonzero" transform="matrix(21.9449 0 0 19.0226 1823.98 1724.821)"/><path fill="#ff267e" fill-rule="nonzero" d="M.065-.725h.143V0H.065z" transform="matrix(21.9449 0 0 19.0226 1838.485 1724.821)"/><path d="M.49 0L.2-.553V0H.065v-.725h.186l.29.553v-.553h.135V0H.49z" fill="#ff267e" fill-rule="nonzero" transform="matrix(21.9449 0 0 19.0226 1846.67 1724.821)"/><path d="M.065-.725h.528v.116H.208v.18h.364v.116H.208v.197h.385V0H.065v-.725z" fill="#ff267e" fill-rule="nonzero" transform="matrix(21.9449 0 0 19.0226 1865.126 1724.821)"/><path d="M.693-.238a.268.268 0 01-.099.18.282.282 0 01-.095.052.36.36 0 01-.12.019.363.363 0 01-.144-.027.27.27 0 01-.106-.076.314.314 0 01-.066-.119.513.513 0 01.001-.312.324.324 0 01.069-.117.285.285 0 01.108-.074.374.374 0 01.142-.026.32.32 0 01.21.067.274.274 0 01.1.181H.557A.237.237 0 00.53-.554a.174.174 0 00-.04-.041.162.162 0 00-.05-.023.278.278 0 00-.058-.006.176.176 0 00-.076.016.176.176 0 00-.062.05.257.257 0 00-.041.081.373.373 0 00-.015.111c0 .043.005.082.015.114.01.033.024.061.041.083a.16.16 0 00.133.068.204.204 0 00.114-.032.146.146 0 00.04-.042.202.202 0 00.026-.063h.136z" fill="#ff267e" fill-rule="nonzero" transform="matrix(21.9449 0 0 19.0226 1888.015 1724.821)"/><path d="M.27-.725h.144L.685 0H.53L.479-.147H.197L.146 0H0l.27-.725zm-.032.461h.2l-.1-.286-.1.286z" fill="#ff267e" fill-rule="nonzero" transform="matrix(21.9449 0 0 19.0226 1905.485 1724.821)"/><path d="M.258-.318a.444.444 0 01-.083-.025.236.236 0 01-.069-.042.176.176 0 01-.047-.061.177.177 0 01-.018-.082c0-.037.009-.068.027-.095a.212.212 0 01.068-.065.324.324 0 01.093-.038.442.442 0 01.101-.012.324.324 0 01.196.061.24.24 0 01.063.072.223.223 0 01.026.094H.477a.128.128 0 00-.019-.054A.133.133 0 00.422-.6a.178.178 0 00-.098-.024.283.283 0 00-.05.005.149.149 0 00-.045.015.11.11 0 00-.032.028.068.068 0 00-.013.042c0 .025.01.045.029.06a.157.157 0 00.072.03l.095.017a.77.77 0 01.089.022.31.31 0 01.08.038.215.215 0 01.057.063.188.188 0 01.022.095.18.18 0 01-.025.097.235.235 0 01-.067.07.39.39 0 01-.202.055.38.38 0 01-.121-.018.27.27 0 01-.095-.05.226.226 0 01-.064-.079.272.272 0 01-.029-.105h.138a.165.165 0 00.022.066.138.138 0 00.093.065.243.243 0 00.158-.015.087.087 0 00.035-.031.082.082 0 00.013-.048.074.074 0 00-.01-.04.093.093 0 00-.028-.028.204.204 0 00-.042-.019.428.428 0 00-.054-.012L.258-.318z" fill="#ff267e" fill-rule="nonzero" transform="matrix(21.9449 0 0 19.0226 1922.21 1724.821)"/><path fill="#ff267e" fill-rule="nonzero" d="M.065-.725h.143V0H.065z" transform="matrix(21.9449 0 0 19.0226 1938.69 1724.821)"/><path d="M.49 0L.2-.553V0H.065v-.725h.186l.29.553v-.553h.135V0H.49z" fill="#ff267e" fill-rule="nonzero" transform="matrix(21.9449 0 0 19.0226 1946.875 1724.821)"/><path d="M.184-.363c0 .043.006.08.017.113.011.033.025.06.044.082a.187.187 0 00.146.067.187.187 0 00.146-.067.239.239 0 00.045-.082.385.385 0 000-.226.243.243 0 00-.045-.081.187.187 0 00-.146-.067.187.187 0 00-.146.067.242.242 0 00-.044.081.353.353 0 00-.017.113zm.562 0a.439.439 0 01-.025.153.32.32 0 01-.183.196.385.385 0 01-.147.027.376.376 0 01-.146-.027.325.325 0 01-.184-.196.439.439 0 01-.025-.153c0-.056.008-.107.025-.154a.329.329 0 01.33-.221c.054 0 .103.009.147.027.043.018.08.043.112.076a.341.341 0 01.071.118.448.448 0 01.025.154z" fill="#ff267e" fill-rule="nonzero" transform="matrix(21.9449 0 0 19.0226 1965.331 1724.821)"/></g><path d="M8412.89 577.073V295.927h-271.81v281.146h271.81zM8411.97 301H8142v271h269.97V301z" fill="#ff267e" transform="matrix(2.09362 0 0 .34142 -16823.804 3171.875)"/></g></g></svg>