<svg fill="none" height="55" width="300" xmlns="http://www.w3.org/2000/svg"><path d="M0 0h300v55H0z" fill="#ff267e"/><g fill="#005"><path d="M10.753 23.328l8.935 15.812H31.16l-8.95-15.812zm29.344 0L31.162 39.14h11.457l8.935-15.812z"/><path d="M31.16 7.55l-8.95 15.78h17.887zm62.084 18.906h-18.19v-5.292h21.982v-7.309h-32.52v27.218h10.537v-7.308h18.191zm57.77 5.521l-9.645-18.122h-12.092l15.656 27.218h12.005l15.658-27.218h-11.935zm55.359-4.679a6.385 6.385 0 002.905-2.312 6.414 6.414 0 001.132-3.542c0-4.469-3.757-7.536-11.149-7.536h-23.818v27.2h24.359c7.934 0 11.463-3.154 11.463-7.693 0-2.612-1.537-4.89-4.892-6.117zm-20.673-6.87h11.778a2.065 2.065 0 011.579.531 2.068 2.068 0 01.497 2.363 2.07 2.07 0 01-1.23 1.126 2.063 2.063 0 01-.846.098H185.7zm12.618 14.143H185.7v-4.119h12.635a2.079 2.079 0 012.408 2.06 2.086 2.086 0 01-2.408 2.06zm28.501-4.154h18.138v-5.906h-18.138v-3.347h20.06v-7.309h-30.615v27.218h31.087v-7.308h-20.532zm24.883-16.562v7.309h11.83v19.909h10.659v-19.91h11.83v-7.308zm-142.4.018l-15.727 27.2h11.201l2.114-4.013h16.741l2.114 4.013h11.656l-15.727-27.2zm1.398 16.124l4.63-8.763 4.631 8.763z"/></g></svg>