<svg width="162" height="165" fill="none" xmlns="http://www.w3.org/2000/svg"><g style="mix-blend-mode:screen" opacity=".8"><path opacity=".5" d="M88.208 80.855a5.324 5.324 0 013.052 0 12.274 12.274 0 01-2.468 1.592c-1.59.975-2.76.682-2.955.26-.195-.422.292-1.527 2.37-1.852z" fill="#7D7A7C"/><path d="M86.909 81.603c.52-.228 1.039 0 1.169.195.13.194-.195.747-.715.974-.52.227-1.039 0-1.168-.195-.13-.195.162-.78.714-.974z" fill="#F9E6CF"/><path opacity=".5" d="M90.319 88.782c.32-.929.398-1.924.227-2.891 0-.78-.552-1.17-.455-1.235.098-.065.65 0 1.17.877a5.85 5.85 0 01.779 3.444c-.195 3.248-1.722 4.45-2.111 4.288-.39-.163-.52-1.657.39-4.483z" fill="#7D7A7C"/><path d="M90.059 90.958c.227-.812.714-1.429 1.006-1.364.293.065.455.845.195 1.722s-.812 1.462-1.104 1.364c-.292-.097-.292-.877-.097-1.722z" fill="#F9E6CF"/><path opacity=".5" d="M83.662 72.637a4.744 4.744 0 011.493 2.696c.163.715.163 1.202 0 1.202-.162 0-1.104-1.722-2.565-2.436-1.461-.715-2.76.227-3.052-.293-.293-.52 0-.65.422-1.17.4-.308.867-.52 1.364-.617a2.662 2.662 0 012.338.618z" fill="#7D7A7C"/><path d="M81.324 72.377c.941 0 1.623.422 1.46.715-.162.292-.681.422-1.233.52-.552.097-1.202 0-1.364 0-.162 0 .13-.975 1.137-1.235z" fill="#F9E6CF"/><path opacity=".5" d="M75.64 77.185a5.648 5.648 0 014.547.942 17.236 17.236 0 00-4.026.714c-2.046 1.137-3.248 2.112-3.605 1.82-.357-.293-.292-.618 0-1.332a4.32 4.32 0 013.085-2.144z" fill="#7D7A7C"/><path d="M73.563 78.549c.779-.552 1.558-.65 1.72-.292.163.357-.324.844-.941 1.3-.617.454-1.201.779-1.429.584-.227-.195-.032-.942.65-1.592z" fill="#F9E6CF"/><path opacity=".5" d="M70.868 87.937a17.758 17.758 0 016.007-2.274s-2.436 1.657-5.033 3.736c-3.248 2.501-4.417 3.866-4.839 3.736-.422-.13-.357-.715.163-1.722a8.77 8.77 0 013.702-3.476z" fill="#7D7A7C"/><path d="M68.335 90.211c.941-.877 1.915-1.267 2.143-.974.227.292-.422 1.072-1.267 1.884-.844.812-1.558 1.43-1.883 1.234-.325-.195.13-1.234 1.007-2.144z" fill="#F9E6CF"/><path opacity=".5" d="M94.313 74.099a8.41 8.41 0 01-3.248 2.306 21.045 21.045 0 011.786-3.249c.552-1.039.747-1.656.91-1.656.162 0 0-.228 0-.423a.553.553 0 010-.422s.422-.682 1.363 0a1.884 1.884 0 01.26 1.852c-.24.6-.606 1.143-1.071 1.591z" fill="#7D7A7C"/><path d="M95.19 72.085c-.293.877-.91 1.201-1.17 1.007-.26-.195-.227-.813 0-1.332a.552.552 0 010-.325.26.26 0 010-.195v-.487a.422.422 0 01.65 0c.152.172.273.37.357.584.088.24.143.492.162.748z" fill="#F9E6CF"/><path opacity=".5" d="M87.006 66.887a11.828 11.828 0 01-1.688 5.1c-.195 0 0-2.469 0-5.133a9.26 9.26 0 00-.65-3.248 2.762 2.762 0 01-.422-.715c-.162-.162-.227-.292-.195-.422.033-.13.552-.552 1.591 0a4.418 4.418 0 011.364 4.418z" fill="#7D7A7C"/><path d="M86.357 64.028c.454 1.137 0 2.014-.228 2.047-.227.032-.617-.812-.941-1.56-.325-.747-.357-.682-.39-1.007a.683.683 0 01-.227-.617c0-.162.357-.162.78 0a2.5 2.5 0 011.006 1.137z" fill="#F9E6CF"/><path opacity=".5" d="M88.435 65.62c.487-2.696.942-5.165 1.266-7.017.116-.991.323-1.97.618-2.924.177.986.231 1.99.162 2.99 0 1.85 0 4.417-.292 7.178-.552 6.66-1.949 9.94-2.403 9.746-.455-.195-.682-3.054.65-9.973z" fill="#7D7A7C"/><path d="M87.818 70.72c.292-1.949.812-3.476 1.137-3.443.324.032.422 1.656 0 3.638s-.877 3.476-1.202 3.248c-.325-.227.065-1.526.065-3.443z" fill="#F9E6CF"/><path opacity=".5" d="M95.839 59.383a76.485 76.485 0 01-2.338 5.945 10.33 10.33 0 01-1.234 2.403c-.162 0 .844-4.06 1.883-8.835a50.53 50.53 0 012.176-8.48c.195 0 .747.618.844 2.177a19.986 19.986 0 01-1.331 6.79z" fill="#7D7A7C"/><path d="M96.683 54.802c-.325 1.755-.974 3.249-1.331 2.989-.358-.26-.228-1.527 0-3.248.227-1.722.65-3.022 1.006-3.022.358 0 .682 1.527.325 3.281z" fill="#F9E6CF"/><path opacity=".5" d="M70.315 83.52a13.602 13.602 0 016.138-.878c0 .195-2.663.942-5.456 2.469-3.247 1.852-4.838 2.924-5.26 2.631-.422-.292-.162-.78.52-1.592a8.151 8.151 0 014.058-2.63z" fill="#7D7A7C"/><path d="M67.62 85.273c1.007-.747 2.046-.844 2.176-.552.13.292-.585.942-1.494 1.592-.91.65-1.753 1.072-2.013.78-.26-.293.292-1.137 1.331-1.82z" fill="#F9E6CF"/><path opacity=".5" d="M56.028 74.423c2.559.18 5.093.615 7.566 1.3 1.06.19 2.087.528 3.052 1.007 0 .227-4.903-.715-10.65-.585a55.468 55.468 0 00-7.762.715c-1.72.26-2.63.455-2.728.227-.097-.227.423-.942 2.144-1.624a17.464 17.464 0 018.378-1.04z" fill="#7D7A7C"/><path d="M50.442 74.976c2.143-.358 3.897 0 3.897.26s-1.689.65-3.702.974c-2.013.325-3.637.682-3.8.292-.162-.39 1.43-1.266 3.605-1.526z" fill="#F9E6CF"/><path opacity=".5" d="M107.302 67.699l-6.268 3.508c-.84.56-1.732 1.038-2.662 1.43a12.737 12.737 0 012.24-2.047 83.811 83.811 0 015.715-4.385 23.956 23.956 0 016.885-3.509c1.753-.52 2.825 0 2.76 0-.065 0-2.501 1.495-8.67 5.003z" fill="#7D7A7C"/><path d="M111.588 64.97c-1.753.877-3.247 1.462-3.442 1.17-.195-.293 1.072-1.397 2.858-2.307 1.786-.91 3.507-1.17 3.604-.812.097.357-1.299 1.04-3.02 1.95z" fill="#F9E6CF"/><path opacity=".5" d="M107.594 77.12c-3.247 0-6.04.454-6.073.26a16.462 16.462 0 015.975-1.982 5.357 5.357 0 014.936 1.137c.909 1.104.487 1.884.293 1.884-.195 0-.553-.39-1.202-.682a10.258 10.258 0 00-3.929-.617z" fill="#7D7A7C"/><path d="M110.549 77.087c-1.007-.26-1.981-.52-1.981-.844 0-.325 1.007-.715 2.306-.39 1.299.325 1.98 1.657 1.623 1.786-.357.13-1.006-.324-1.948-.552z" fill="#F9E6CF"/><path opacity=".5" d="M103.275 56.654c-1.559 2.339-3.247 4.418-4.189 5.912a13.936 13.936 0 01-1.948 2.34c.317-.966.742-1.892 1.266-2.762.877-1.69 2.078-3.93 3.247-6.497 3.313-5.815 5.261-8.479 5.651-8.479.389 0 0 3.509-4.027 9.486z" fill="#7D7A7C"/><path d="M105.678 52.009c-.974 1.754-2.046 3.02-2.338 2.826-.292-.195.26-1.69 1.234-3.444s1.883-3.02 2.208-2.89c.325.13-.13 1.916-1.104 3.508z" fill="#F9E6CF"/><path opacity=".5" d="M85.155 48.175c.422 3.249.617 6.497.715 8.642.093 1.21.093 2.427 0 3.638a21.315 21.315 0 01-.78-3.541c-.422-2.21-.941-5.198-1.656-8.414-.844-3.898-1.558-6.79-2.11-8.706-.552-1.916-.942-2.793-.747-2.956.195-.162 1.136.357 2.078 2.21a26.713 26.713 0 012.5 9.127z" fill="#7D7A7C"/><path d="M83.564 42.1c.65 2.34.715 4.321.39 4.386-.325.065-.974-1.786-1.591-4.028-.617-2.241-1.04-4.028-1.04-4.223 0-.195 1.624 1.527 2.241 3.866z" fill="#F9E6CF"/><path opacity=".5" d="M77.232 92.193a12.665 12.665 0 013.247-3.054 23.723 23.723 0 01-1.883 4.028 14.034 14.034 0 01-1.721 2.664c-.39.52-.812.78-1.04.747-.227-.032-.454-.487-.356-1.3a6.498 6.498 0 011.753-3.085z" fill="#7D7A7C"/><path d="M76.225 94.272c.422-.78 1.04-1.235 1.332-1.04.292.195.162.91-.228 1.657s-.909 1.202-1.201 1.105c-.292-.098-.357-.943.097-1.722z" fill="#F9E6CF"/><path opacity=".5" d="M65.087 127.959l6.495-13.287 2.013-4.028c.237-.505.508-.993.812-1.462a7.338 7.338 0 01-.52 1.592 164.66 164.66 0 01-1.59 4.223c-1.397 3.541-3.248 8.414-5.456 13.677-5.163 12.766-8.703 18.971-9.125 18.776-.422-.195 1.234-6.075 7.371-19.491z" fill="#7D7A7C"/><path d="M61.158 137.802a21.657 21.657 0 013.54-6.497 22.75 22.75 0 01-2.403 7.017 22.039 22.039 0 01-3.507 6.497 22.181 22.181 0 012.37-7.017z" fill="#F9E6CF"/><path opacity=".5" d="M58.593 131.63l7.988-13.807c1.072-1.754 1.916-3.248 2.533-4.19.3-.532.636-1.042 1.007-1.527a10.85 10.85 0 01-.715 1.657c-.487 1.072-1.234 2.566-2.11 4.418l-7.177 14.261c-6.754 13.286-11.105 19.751-11.528 19.491-.422-.26 2.111-6.53 10.002-20.303z" fill="#7D7A7C"/><path d="M53.365 141.83a24.467 24.467 0 014.351-6.724 26.224 26.224 0 01-3.247 7.341 27.105 27.105 0 01-4.352 6.725 25.113 25.113 0 013.248-7.342z" fill="#F9E6CF"/><path opacity=".5" d="M51.806 134.066c2.923-4.353 5.618-8.349 7.664-11.207l2.435-3.249c.584-.779.91-1.234.974-1.202a8.181 8.181 0 01-.714 1.397l-2.046 3.606c-1.786 3.054-4.189 7.212-6.852 11.727-6.494 10.883-10.294 16.243-10.813 15.95-.52-.292 1.721-5.847 9.352-17.022z" fill="#7D7A7C"/><path d="M46.773 142.48a19.49 19.49 0 014.156-5.425 18.53 18.53 0 01-3.247 6.107 18.812 18.812 0 01-4.026 5.49 18.515 18.515 0 013.117-6.172z" fill="#F9E6CF"/><path opacity=".5" d="M55.346 123.216l6.072-8.024a28.772 28.772 0 012.728-3.248 26.294 26.294 0 01-2.079 3.703c-1.331 2.241-3.247 5.263-5.293 8.576-5.033 7.959-8.377 11.532-8.8 11.272-.422-.259 1.3-4.223 7.372-12.279z" fill="#7D7A7C"/><path d="M51.352 129.356c1.59-2.307 3.084-3.996 3.247-3.801.162.195-.747 2.209-2.338 4.515-1.591 2.307-3.085 3.996-3.248 3.801-.162-.195.78-2.241 2.339-4.515z" fill="#F9E6CF"/><path opacity=".5" d="M56.677 105.642c3.247-2.632 6.137-4.938 8.345-6.497a28.945 28.945 0 013.67-2.567s-.26.358-.812.91l-2.338 2.241-7.696 7.309c-7.241 6.79-10.943 10.136-11.333 9.746-.39-.39 1.916-4.386 10.164-11.142z" fill="#7D7A7C"/><path d="M51.157 111.067c2.143-2.014 4.091-3.411 4.35-3.249.26.163-1.363 2.144-3.409 4.321-2.045 2.176-3.896 3.573-4.156 3.248-.26-.325 1.071-2.274 3.215-4.32z" fill="#F9E6CF"/><path opacity=".5" d="M41.447 123.638a466.292 466.292 0 0111.658-10.297l3.637-3.087a9.16 9.16 0 011.429-1.072 7.924 7.924 0 01-1.202 1.332l-3.247 3.411a1641.778 1641.778 0 00-11.008 10.98c-5.152 5.133-9.103 8.944-11.853 11.435-2.695 2.501-4.124 3.736-4.286 3.573-.162-.162 3.345-5.879 14.872-16.275z" fill="#7D7A7C"/><path d="M33.524 131.63a23.773 23.773 0 016.04-5.003 24.954 24.954 0 01-5.163 5.88 27.889 27.889 0 01-5.878 5.132 22.537 22.537 0 015.001-6.009z" fill="#F9E6CF"/><path opacity=".5" d="M46.513 125.133l8.833-9.226 2.727-2.729a7.871 7.871 0 011.072-.974 6.511 6.511 0 01-.812 1.201l-2.403 3.022-7.988 9.745c-7.599 9.096-12.177 13.157-12.567 12.994-.39-.162 2.5-4.938 11.138-14.033z" fill="#7D7A7C"/><path d="M40.636 132.052c2.337-2.631 4.416-4.58 4.676-4.321a16.228 16.228 0 01-3.702 5.133c-2.338 2.631-4.417 4.548-4.676 4.321a16.228 16.228 0 013.702-5.133z" fill="#F9E6CF"/><path opacity=".5" d="M43.298 112.139c4.546-3.574 8.8-6.497 12.048-8.804l3.734-2.534a6.505 6.505 0 011.429-.877c-.38.412-.792.793-1.234 1.137l-3.442 2.891-11.333 9.421c-10.619 8.771-15.977 13.286-16.236 12.994-.26-.292 3.214-5.555 15.034-14.228z" fill="#7D7A7C"/><path d="M35.18 118.928a21.116 21.116 0 016.105-4.223c.227.292-2.176 2.566-5.293 5.198a26.363 26.363 0 01-5.91 4.418 19.837 19.837 0 015.098-5.393z" fill="#F9E6CF"/><path opacity=".5" d="M28.101 101.678c5.585-2.273 10.813-4.06 14.613-5.327l4.546-1.43a8.863 8.863 0 011.721-.422 13.41 13.41 0 01-1.591.747l-4.384 1.852c-3.702 1.56-8.768 3.671-14.223 6.172-6.494 3.021-11.463 5.425-14.645 7.179a41.436 41.436 0 01-4.838 2.697c-.195 0 .746-1.657 3.701-3.801a73.61 73.61 0 0115.1-7.667z" fill="#7D7A7C"/><path d="M18.002 106.649a20.375 20.375 0 017.306-2.794 31.663 31.663 0 01-6.721 3.931 37.92 37.92 0 01-6.982 3.411 18.216 18.216 0 016.397-4.548z" fill="#F9E6CF"/><path opacity=".5" d="M30.31 107.168c4.48-2.144 8.702-3.93 11.754-5.197l3.54-1.462a7.215 7.215 0 011.396-.455s-.422.325-1.234.78l-3.41 1.851-11.267 6.205c-5.229 2.891-9.19 5.068-11.788 6.497a19.982 19.982 0 01-4.059 2.209c-.455-.487 3.377-5.003 15.067-10.428z" fill="#7D7A7C"/><path d="M22.224 111.846a15.724 15.724 0 015.942-2.599c.195.325-2.24 1.885-5.293 3.671a22.946 22.946 0 01-5.715 2.956c-.227-.292 1.98-2.241 5.066-4.028z" fill="#F9E6CF"/><path opacity=".5" d="M35.862 108.11a235.122 235.122 0 019.482-4.645l2.955-1.299a5.759 5.759 0 011.137-.423 4.207 4.207 0 01-.975.715l-2.76 1.722-8.995 5.457a84.406 84.406 0 01-12.989 7.342c-.324-.39 2.793-4.061 12.145-8.869z" fill="#7D7A7C"/><path d="M29.367 112.139c2.5-1.56 4.677-2.469 4.871-2.177.195.292-1.753 1.722-4.221 3.249a14.143 14.143 0 01-4.709 2.403c-.13-.227 1.657-1.851 4.06-3.475z" fill="#F9E6CF"/><path opacity=".5" d="M30.602 78.549c5 0 9.579.325 12.989.65l3.929.454a8.21 8.21 0 011.428.26 7.4 7.4 0 01-1.46 0H43.46c-3.248 0-7.891 0-12.827.325-4.465.203-8.912.691-13.314 1.462-2.922.585-4.319 1.234-4.48.975-.163-.26.876-1.3 3.766-2.34A43.175 43.175 0 0130.6 78.55z" fill="#7D7A7C"/><path d="M21.282 79.653a14.023 14.023 0 016.494 0 21.193 21.193 0 01-6.332 1.235c-2.082.477-4.2.781-6.332.91-.162-.488 2.565-1.722 6.17-2.145z" fill="#F9E6CF"/><path opacity=".5" d="M39.11 84.169c3.571-.357 6.851-.487 9.221-.487 1.302-.05 2.605.003 3.897.162-1.256.32-2.538.527-3.831.617-2.338.325-5.586.78-9.028 1.43-4.189.812-7.306 1.559-9.32 2.176-2.013.617-2.987 1.137-3.247.942-.26-.195.422-1.17 2.37-2.241a26.881 26.881 0 019.937-2.6z" fill="#7D7A7C"/><path d="M32.615 85.76c2.5-.681 4.61-.714 4.676-.39.065.326-1.948.943-4.351 1.625a15.744 15.744 0 01-4.45 1.04c-.226-.358 1.592-1.592 4.125-2.274z" fill="#F9E6CF"/><path opacity=".5" d="M65.834 71.954c1.85.4 3.673.922 5.456 1.56a9.745 9.745 0 012.175.974c0 .195-3.637-.454-7.89-.812a50.163 50.163 0 01-7.73-.52c0-.26.358-.747 1.722-1.234a13.407 13.407 0 016.267.032z" fill="#7D7A7C"/><path d="M61.84 71.89c1.591 0 2.825.454 2.793.78-.033.324-1.3.454-2.793.486-1.494.033-2.695 0-2.793-.357-.097-.357 1.007-.91 2.793-.91z" fill="#F9E6CF"/><path opacity=".5" d="M54.339 61.82c2.46.822 4.85 1.843 7.144 3.053a14.993 14.993 0 012.76 1.689 19.153 19.153 0 01-3.085-.942 71.442 71.442 0 00-7.241-2.21 60.157 60.157 0 00-10.456-1.039s0-.324.454-.65c.613-.31 1.255-.56 1.916-.746a16.49 16.49 0 018.508.844z" fill="#7D7A7C"/><path d="M48.851 61.105c2.176.194 3.832.812 3.767 1.202-.065.39-1.786.227-3.832 0h-2.63c-.682 0-1.104 0-1.137-.26-.032-.26.358-.39 1.04-.65a11.166 11.166 0 012.792-.292z" fill="#F9E6CF"/><path opacity=".5" d="M45.182 65.652a69.211 69.211 0 018.767 2.892c1.202.442 2.364.986 3.475 1.624a21.164 21.164 0 01-3.734-.877c-2.274-.552-5.423-1.397-8.865-1.917a59.896 59.896 0 00-9.353-.91 10.258 10.258 0 01-3.247 0c0-.292.682-.91 2.858-1.526a23.373 23.373 0 0110.099.714z" fill="#7D7A7C"/><path d="M38.492 65.003c2.598 0 4.579.812 4.514 1.137-.065.325-2.078.227-4.546 0h-3.247c-.91 0-1.3 0-1.364-.195-.065-.195.454-.455 1.266-.715a15.909 15.909 0 013.377-.227z" fill="#F9E6CF"/><path opacity=".5" d="M26.413 69.55c5.585.91 10.683 2.015 14.32 2.924 1.85.423 3.247.812 4.351 1.105a6.8 6.8 0 011.591.52 9.738 9.738 0 01-1.656-.195l-4.416-.748c-3.734-.552-8.832-1.331-14.418-1.916-5.066-.612-10.16-.96-15.262-1.04a48.05 48.05 0 01-5.195 0c0-.195 1.331-1.137 4.74-1.591a57.163 57.163 0 0115.945.942z" fill="#7D7A7C"/><path d="M15.826 68.836c2.473-.152 4.95.213 7.274 1.072a26.915 26.915 0 01-7.306 0 47.786 47.786 0 01-7.274 0 13.698 13.698 0 017.306-1.072z" fill="#F9E6CF"/><path opacity=".5" d="M76.42 67.537a8.153 8.153 0 012.598 2.598c.52.78.715 1.332.65 1.365a26.533 26.533 0 00-3.995-2.404 6.75 6.75 0 00-2.89-.358c-.746 0-1.201 0-1.331-.162-.13-.162 0-.78.747-1.234a3.895 3.895 0 014.221.195z" fill="#7D7A7C"/><path d="M73.628 67.18c1.136 0 1.85.551 1.72.811-.13.26-.844.325-1.656.423-.811.097-1.526 0-1.688-.195-.162-.195.52-.975 1.624-1.04z" fill="#F9E6CF"/><path opacity=".5" d="M76.907 56.654a41.98 41.98 0 013.02 7.147c.416 1.039.679 2.133.78 3.248-.195 0-2.046-4.548-5.293-9.355a23.125 23.125 0 00-5.066-5.685c-1.332-1.007-2.24-1.235-2.208-1.495.032-.26.942-.617 2.76 0a12.991 12.991 0 016.007 6.14z" fill="#7D7A7C"/><path d="M73.206 52.334c1.59 1.526 2.305 3.248 2.045 3.248-.26 0-1.461-1.072-2.922-2.469-1.462-1.397-2.858-2.176-2.76-2.501.097-.325 2.013.13 3.636 1.721z" fill="#F9E6CF"/><path opacity=".5" d="M108.341 88.977c-4.384-2.6-8.67-3.834-8.605-4.06.964.01 1.924.141 2.857.389a30.948 30.948 0 016.495 2.144c2.39.975 4.373 2.74 5.617 5.003a7.28 7.28 0 01.52 1.884c0 .487 0 .714-.26.747-.26.032-.584-.585-1.494-1.722a19.483 19.483 0 00-5.13-4.385z" fill="#7D7A7C"/><path d="M112.27 91.51c-.65-.617-1.267-1.169-1.656-1.624-.39-.454-.682-.747-.585-.91.098-.162.52 0 1.104.163.719.418 1.394.908 2.014 1.462 1.428 1.462 1.786 3.249 1.461 3.249-.325 0-1.104-1.203-2.338-2.34z" fill="#F9E6CF"/><path opacity=".5" d="M98.307 93.005a13.517 13.517 0 00-1.267-4.223 5.976 5.976 0 012.988 3.865c.974 3.249-.422 4.906-.812 4.776-.39-.13-.78-1.527-.91-4.418z" fill="#7D7A7C"/><path d="M98.761 95.149c0-.845 0-1.56.52-1.624.52-.065.779.682.747 1.624-.033.942-.39 1.657-.747 1.624-.357-.032-.52-.877-.52-1.624z" fill="#F9E6CF"/><path opacity=".5" d="M92.17 105.252a50.509 50.509 0 00-1.105-8.609c.539.7.946 1.493 1.202 2.34a23.143 23.143 0 011.591 6.204c.27 2.287-.02 4.606-.844 6.757-.585 1.462-1.234 2.014-1.43 1.949-.194-.065.293-2.696.585-8.641z" fill="#7D7A7C"/><path d="M92.17 109.605c.227-1.657.552-2.989.876-2.989.325 0 .617 1.429.357 3.249-.26 1.819-.974 3.086-1.331 2.956-.357-.13-.26-1.592.097-3.216z" fill="#F9E6CF"/><path opacity=".5" d="M71.192 122.761l4.709-10.428a59.326 59.326 0 001.526-3.248c.357-.845.584-1.169.65-1.137-.077.43-.186.853-.325 1.267l-1.104 3.248c-1.007 2.827-2.37 6.497-3.832 10.785-3.67 10.071-6.495 14.911-6.884 14.716-.39-.195.617-4.775 5.26-15.203z" fill="#7D7A7C"/><path d="M68.335 130.493a13.838 13.838 0 012.727-5.068 13.194 13.194 0 01-1.558 5.555 13.32 13.32 0 01-2.728 5.068 13.904 13.904 0 011.559-5.555z" fill="#F9E6CF"/><path opacity=".5" d="M80.544 124.613c.65-3.671 1.202-7.082 1.624-9.583.181-1.351.464-2.687.844-3.996.09 1.363.09 2.73 0 4.093-.162 2.502-.325 5.945-.682 9.746-.747 9.096-2.597 13.644-3.085 13.481-.487-.162-.26-4.223 1.3-13.741z" fill="#7D7A7C"/><path d="M79.83 131.63c.454-2.632.942-4.776 1.299-4.743a9.393 9.393 0 010 4.938c-.422 2.631-1.04 4.742-1.429 4.677a11.046 11.046 0 01.13-4.872z" fill="#F9E6CF"/><path opacity=".5" d="M84.246 139.069c.39-6.14.78-11.76 1.04-15.885.162-2.047.291-3.736.356-4.906a7.602 7.602 0 01.228-1.786c.033.606.033 1.213 0 1.819v20.823c-.228 14.943-2.176 22.739-2.696 22.512-.519-.227.033-6.725 1.072-22.577z" fill="#7D7A7C"/><path d="M83.824 150.568a27.591 27.591 0 011.104-7.926c.497 2.636.552 5.337.163 7.991a23.532 23.532 0 01-1.332 7.927 29.252 29.252 0 01.065-7.992z" fill="#F9E6CF"/><path opacity=".5" d="M87.59 121.884c.488-3.606.845-6.952.975-9.421.041-1.337.16-2.671.357-3.995.102.35.167.709.195 1.072 0 .682.162 1.689.227 2.923a73.135 73.135 0 010 9.746 28.6 28.6 0 01-2.338 10.038c-.442.775-.93 1.524-1.461 2.241-.39.455-.714.585-.812.52-.097-.065 1.396-3.736 2.858-13.124z" fill="#7D7A7C"/><path d="M86.65 128.706a12.39 12.39 0 011.493-4.515c.39 0 .325 2.209-.292 4.84a21.051 21.051 0 01-1.234 3.248c-.488.78-.877 1.202-1.007 1.105-.13-.098 0-.617.162-1.429.163-.813.455-2.015.877-3.249z" fill="#F9E6CF"/><path opacity=".5" d="M98.501 105.284a154.394 154.394 0 00-1.72-7.439l-.65-2.241a3.253 3.253 0 010-.877c.63.888 1.153 1.847 1.559 2.858a66.85 66.85 0 012.662 7.277c2.046 6.952 1.786 10.817 1.364 10.882-.422.065-1.818-2.988-3.215-10.46z" fill="#7D7A7C"/><path d="M99.93 110.612c-.454-2.079-.52-3.801-.195-3.898.325-.098.975 1.559 1.429 3.638.455 2.079.422 3.866 0 3.898-.422.033-.779-1.559-1.234-3.638z" fill="#F9E6CF"/><path opacity=".5" d="M92.884 141.375c-.228-4.678-.455-9.031-.617-12.214 0-1.559 0-2.859-.162-3.736a7.634 7.634 0 010-1.397c.178.424.288.874.324 1.332 0 .91.357 2.177.617 3.736.487 3.248 1.104 7.439 1.591 12.149 1.3 11.468 0 17.542-.617 17.445-.617-.098-.552-5.198-1.136-17.315z" fill="#7D7A7C"/><path d="M93.598 150.114a16.25 16.25 0 01.357-6.14 14.038 14.038 0 01.91 6.107 12.48 12.48 0 01-.552 6.14 19.203 19.203 0 01-.715-6.107z" fill="#F9E6CF"/><path opacity=".5" d="M71.81 24.429a278.747 278.747 0 013.928 14.878 170.82 170.82 0 011.04 4.613c.168.56.266 1.138.292 1.722a11.617 11.617 0 01-.617-1.722l-1.462-4.45c-1.234-3.801-2.89-8.966-4.838-14.586-2.37-6.757-4.221-11.857-5.585-15.17a42.247 42.247 0 01-2.078-5.069c.162-.195 1.558.91 3.247 4.094a77.43 77.43 0 016.072 15.69z" fill="#7D7A7C"/><path d="M67.88 13.871a20.992 20.992 0 012.046 7.472 28.528 28.528 0 01-3.248-7.017 41.464 41.464 0 01-2.597-7.244 16.96 16.96 0 013.799 6.79z" fill="#F9E6CF"/><path opacity=".5" d="M65.347 57.466a35.728 35.728 0 014.481 4.905 11.14 11.14 0 011.526 2.34c-.162 0-3.084-2.99-7.079-5.88a19.87 19.87 0 00-5.682-3.022c-1.332-.357-2.11-.227-2.208-.487-.098-.26.454-.974 2.208-1.04a10.325 10.325 0 016.754 3.184z" fill="#7D7A7C"/><path d="M61.06 55.062c1.787.747 2.793 1.95 2.599 2.21-.195.26-1.527-.39-3.085-1.04-1.559-.65-2.858-.845-2.923-1.202-.065-.358 1.624-.78 3.41.032z" fill="#F9E6CF"/><path opacity=".5" d="M30.569 59.513c6.494 2.306 12.502 4.678 16.82 6.497l5.066 2.176c.635.266 1.253.57 1.852.91a12.694 12.694 0 01-1.981-.585l-5.228-1.852c-4.384-1.494-10.457-3.54-17.081-5.555-8.053-2.425-14.147-4.125-18.282-5.1a54.665 54.665 0 01-6.267-1.396c0-.228 1.948-.683 6.137 0a96.152 96.152 0 0118.964 4.905z" fill="#7D7A7C"/><path d="M17.97 56.004a27.758 27.758 0 018.508 3.249 38.959 38.959 0 01-8.8-2.047 62.298 62.298 0 01-8.703-2.371 21.846 21.846 0 018.995 1.17z" fill="#F9E6CF"/><path opacity=".5" d="M30.44 66.14c5.974 1.526 11.365 3.248 15.261 4.483l4.644 1.559c.568.173 1.122.39 1.656.65a9.48 9.48 0 01-1.754-.325l-4.643-1.137c-3.994-.942-9.482-2.274-15.457-3.541-7.241-1.527-12.73-2.599-16.431-3.249a36.714 36.714 0 01-5.618-.844c0-.228 1.656-.812 5.39-.715A80.734 80.734 0 0130.44 66.14z" fill="#7D7A7C"/><path d="M19.106 64.028c2.68.23 5.293.968 7.696 2.177a32.075 32.075 0 01-7.89-.91 41.537 41.537 0 01-7.794-1.527 18.599 18.599 0 017.988.26z" fill="#F9E6CF"/><path opacity=".5" d="M42.941 54.575a140.889 140.889 0 0110.91 5.945c1.365.812 2.469 1.494 3.248 2.014.402.237.782.508 1.137.812a7.07 7.07 0 01-1.3-.52l-3.441-1.624c-2.89-1.364-6.884-3.248-11.268-5.035A122.049 122.049 0 0030.05 51.78a20.061 20.061 0 01-4.254-1.17c0-.194 1.331-.714 4.253-.356a43.08 43.08 0 0112.892 4.32z" fill="#7D7A7C"/><path d="M34.433 51.521a12.987 12.987 0 015.618 2.762 20.093 20.093 0 01-6.007-1.56 28.987 28.987 0 01-5.845-2.014 11.296 11.296 0 016.234.812z" fill="#F9E6CF"/><path opacity=".5" d="M115.55 83.942c-4.871-1.235-9.19-1.722-9.158-1.917a9.746 9.746 0 012.793-.195c2.236-.04 4.473.09 6.689.39a13.897 13.897 0 016.82 2.566c1.331 1.137 1.493 2.144 1.266 2.242a48.505 48.505 0 00-8.41-3.086z" fill="#7D7A7C"/><path d="M120.063 84.981c-1.623-.65-3.02-1.234-2.922-1.592.097-.357 1.623-.292 3.247.423 1.624.714 2.89 1.981 2.598 2.241-.292.26-1.299-.455-2.923-1.072z" fill="#F9E6CF"/><path opacity=".5" d="M97.56 47.428a210.45 210.45 0 01-3.247 11.11l-1.17 3.249a6.3 6.3 0 01-.519 1.202c.019-.44.084-.875.195-1.3.162-.844.422-2.014.714-3.476.65-2.923 1.526-6.919 2.37-11.305 1.007-5.295 1.722-9.258 2.144-11.922.102-1.376.352-2.737.747-4.06.26 0 .812 1.17.844 3.93a50.5 50.5 0 01-2.078 12.572z" fill="#7D7A7C"/><path d="M99.021 39.145a12.512 12.512 0 01-1.656 5.587c-.229-1.937-.086-3.9.422-5.782a19.857 19.857 0 011.17-5.653 10.58 10.58 0 01.064 5.848z" fill="#F9E6CF"/><path opacity=".5" d="M125.356 45.284a1249.346 1249.346 0 00-9.904 9.161c-1.266 1.137-2.338 2.08-3.052 2.761-.372.35-.774.665-1.202.942.262-.449.578-.864.942-1.234l2.76-3.054c2.403-2.566 5.65-6.074 9.222-9.745 8.671-9.161 13.801-13.222 14.126-12.994.325.227-3.117 4.938-12.892 14.163z" fill="#7D7A7C"/><path d="M132.078 38.235a18.998 18.998 0 01-5.293 4.32c-.26-.26 1.689-2.566 4.319-5.197a18.476 18.476 0 015.423-4.32 18.617 18.617 0 01-4.449 5.197z" fill="#F9E6CF"/><path opacity=".5" d="M131.494 56.297L118.7 62.794l-3.93 2.046c-.47.283-.972.512-1.493.682.415-.362.86-.688 1.331-.974l3.702-2.404c3.247-2.014 7.501-4.71 12.372-7.504a88.929 88.929 0 0113.801-6.724c3.247-1.202 5.13-1.3 5.163-1.072.032.227-1.332.844-4.254 2.306l-13.898 7.147z" fill="#7D7A7C"/><path d="M140.618 51.327a24.019 24.019 0 01-6.721 2.728 18.893 18.893 0 016.169-3.865 17.014 17.014 0 016.885-2.34 27.587 27.587 0 01-6.333 3.477z" fill="#F9E6CF"/><path opacity=".5" d="M63.172 51.294a88.255 88.255 0 016.234 7.699 23.618 23.618 0 012.176 3.443 26.925 26.925 0 01-2.923-2.956c-1.72-1.819-4.124-4.353-6.851-6.952-2.43-2.38-5-4.615-7.696-6.691-1.786-1.365-2.858-1.82-2.793-2.08.065-.26 1.234-.39 3.247.65a29.228 29.228 0 018.605 6.887z" fill="#7D7A7C"/><path d="M57.749 46.616c2.143 1.722 3.507 3.508 3.247 3.736-.26.227-1.981-1.072-4.06-2.761-2.078-1.69-3.864-2.892-3.734-3.249.13-.357 2.403.488 4.547 2.274z" fill="#F9E6CF"/><path opacity=".5" d="M33.102 42.263a198.82 198.82 0 0113.638 8.934c1.721 1.201 3.248 2.209 4.027 2.956.512.343.99.735 1.429 1.17a9.944 9.944 0 01-1.624-.91l-4.254-2.567c-3.604-2.176-8.54-5.132-14.06-7.926a139.592 139.592 0 00-15.392-7.44 36.552 36.552 0 01-5.456-2.078c0-.228 1.819-.423 5.553.52a64.154 64.154 0 0116.139 7.341z" fill="#7D7A7C"/><path d="M22.45 37.13a21.234 21.234 0 017.08 4.159 35.45 35.45 0 01-7.566-2.99 56.542 56.542 0 01-7.436-3.248c2.767.064 5.48.776 7.923 2.08z" fill="#F9E6CF"/><path opacity=".5" d="M71.582 44.992a74.71 74.71 0 014.416 8.673 23.839 23.839 0 011.526 3.866 28.488 28.488 0 01-2.208-3.508 211.734 211.734 0 00-5.325-8.219 44.857 44.857 0 00-6.495-7.666c-1.688-1.43-2.792-1.787-2.76-2.047.033-.26 1.267-.487 3.442.682a22.477 22.477 0 017.404 8.219z" fill="#7D7A7C"/><path d="M66.84 39.404c1.917 2.047 2.956 4.061 2.664 4.256-.293.195-1.754-1.43-3.572-3.248-1.819-1.82-3.507-3.249-3.41-3.444.097-.195 2.565.455 4.319 2.436z" fill="#F9E6CF"/><path opacity=".5" d="M42.357 40.25c5.13 3.995 9.741 7.958 12.729 10.882a122.174 122.174 0 013.702 3.54c.485.415.92.884 1.299 1.397a12.989 12.989 0 01-1.494-1.137l-4.027-3.248C51.32 49.02 46.578 45.349 41.35 41.58a138.734 138.734 0 00-14.743-9.388c-3.474-1.82-5.422-2.21-5.39-2.502.032-.292 1.948-.422 5.65.975a63.417 63.417 0 0115.49 9.583z" fill="#7D7A7C"/><path d="M32.225 33.622a22.344 22.344 0 016.495 5.133 37.85 37.85 0 01-7.144-4.06c-3.93-2.405-7.307-3.77-7.21-4.192a16.914 16.914 0 017.86 3.12z" fill="#F9E6CF"/><path opacity=".5" d="M54.339 36.578c3.572 4.093 6.495 7.992 8.8 10.85l2.565 3.444c.337.406.62.854.845 1.332a10.69 10.69 0 01-1.137-1.105l-2.858-3.248c-2.435-2.632-5.747-6.303-9.514-10.168-4.514-4.58-8.02-7.992-10.456-10.006a38.656 38.656 0 01-3.767-3.248c0-.26 1.656 0 4.416 1.819a59.367 59.367 0 0111.106 10.33z" fill="#7D7A7C"/><path d="M47.065 29.529a16.762 16.762 0 014.514 5.393 23.934 23.934 0 01-5.39-4.451 36.177 36.177 0 01-5.001-4.84c2.264.767 4.29 2.11 5.877 3.898z" fill="#F9E6CF"/><path opacity=".5" d="M82.98 23.064a242.092 242.092 0 011.916 15.658c.194 2.014.324 3.671.422 4.84.05.595.05 1.193 0 1.787a14.685 14.685 0 01-.39-1.754 644.94 644.94 0 00-.844-4.743c-.65-4.028-1.624-9.518-2.76-15.463-1.462-7.211-2.728-12.604-3.735-16.242-1.006-3.639-1.883-5.198-1.688-5.36.195-.163 1.558 1.072 2.987 4.515a74.38 74.38 0 014.092 16.762z" fill="#7D7A7C"/><path d="M80.35 11.922a21.673 21.673 0 011.136 7.861 29.54 29.54 0 01-2.338-7.536 51.026 51.026 0 01-1.851-7.634 16.245 16.245 0 013.052 7.309z" fill="#F9E6CF"/><path opacity=".5" d="M65.445 33.005a117.719 117.719 0 014.708 10.915c.552 1.43.974 2.566 1.266 3.248.183.416.314.852.39 1.3a4.418 4.418 0 01-.682-1.3L69.44 43.92c-1.397-2.664-3.248-6.497-5.553-10.265a110.86 110.86 0 00-6.495-10.363c-1.558-2.21-2.63-3.054-2.532-3.249.097-.195 1.526 0 3.506 2.08a39.794 39.794 0 017.08 10.882z" fill="#7D7A7C"/><path d="M60.898 25.76a12.25 12.25 0 012.533 5.36c-.325.196-1.786-1.98-3.604-4.645a27.223 27.223 0 01-3.247-4.905c.324-.39 2.5 1.43 4.318 4.19z" fill="#F9E6CF"/><path opacity=".5" d="M65.737 26.735c2.825 6.822 5.066 13.19 6.494 17.835l1.786 5.554c.226.682.41 1.376.552 2.08a12.996 12.996 0 01-.876-1.95l-2.111-5.392c-1.851-4.548-4.416-10.753-7.469-17.412A140.349 140.349 0 0054.73 9.875c-2.436-3.703-4.222-5.1-4.092-5.295.13-.194 2.208.553 5.066 4.029a75.146 75.146 0 0110.034 18.126z" fill="#7D7A7C"/><path d="M59.405 14.683a27.616 27.616 0 013.799 8.771A53.385 53.385 0 0158.3 15.3c-2.533-4.547-5.066-7.893-4.871-8.12a20.3 20.3 0 015.975 7.503z" fill="#F9E6CF"/><path opacity=".5" d="M59.307 34.986c3.247 5.685 6.138 11.013 8.15 14.911.943 1.95 1.754 3.574 2.306 4.678.293.57.553 1.155.78 1.754a10.886 10.886 0 01-1.072-1.592l-2.728-4.32c-2.273-3.736-5.39-8.901-8.93-14.391-4.286-6.79-7.63-11.597-10.001-14.846-2.37-3.248-3.832-4.678-3.702-4.905.13-.227 1.883.585 4.611 3.54a88.94 88.94 0 0110.586 15.171z" fill="#7D7A7C"/><path d="M52.358 24.786a25.533 25.533 0 014.222 7.44 35.501 35.501 0 01-5.228-6.693 55.508 55.508 0 01-4.774-7.017 20.267 20.267 0 015.78 6.27z" fill="#F9E6CF"/><path opacity=".5" d="M52.91 86.15a80.23 80.23 0 018.703-1.299 22.147 22.147 0 013.67 0 22.13 22.13 0 01-3.443.65c-2.176.52-5.196 1.234-8.378 2.209-3.864 1.17-6.69 2.209-8.54 2.956-1.851.747-2.825 1.202-2.955 1.072-.13-.13.357-1.04 2.046-2.306a26.817 26.817 0 018.897-3.282z" fill="#7D7A7C"/><path d="M46.903 88.197c2.305-.91 4.286-1.137 4.384-.812.097.325-1.721 1.104-3.897 1.981-1.137.423-2.078.878-2.858 1.073-.78.195-1.169.454-1.299.292-.13-.162.228-.552.877-1.072.88-.58 1.815-1.07 2.793-1.462z" fill="#F9E6CF"/><path opacity=".5" d="M30.082 91.088a145.648 145.648 0 0115.1-2.956c1.98-.292 3.572-.487 4.676-.585a9.744 9.744 0 011.753 0l-1.688.455-4.579 1.04c-3.864.877-9.157 2.111-14.807 3.833a85.741 85.741 0 00-14.873 5.88c-3.247 1.754-4.351 3.086-4.578 2.923-.228-.162.52-1.786 3.474-3.995a45.452 45.452 0 0115.522-6.595z" fill="#7D7A7C"/><path d="M19.626 94.987a18.894 18.894 0 017.468-2.112 34.993 34.993 0 01-6.949 3.248c-3.766 1.722-6.721 3.541-7.014 3.314-.292-.227 2.5-2.696 6.495-4.45z" fill="#F9E6CF"/><path opacity=".5" d="M28.556 88.49c6.69-1.072 12.826-1.755 17.308-2.177l5.325-.487h1.98a8.633 8.633 0 01-1.915.422l-5.26.91c-4.45.747-10.554 1.786-17.146 3.248-7.956 1.624-13.93 3.021-17.86 4.19-3.93 1.17-5.78 2.047-5.91 1.852-.13-.195 1.267-1.591 5.033-3.248a85.178 85.178 0 0118.445-4.71z" fill="#7D7A7C"/><path d="M16.379 91.38a25.967 25.967 0 018.67-1.299 38.628 38.628 0 01-8.476 2.566 62.845 62.845 0 01-8.475 2.08 21.232 21.232 0 018.28-3.346z" fill="#F9E6CF"/><path opacity=".5" d="M26.575 74.261c6.494.715 12.177 1.494 16.236 2.144l5.001.812c.628.073 1.247.204 1.85.39a10.34 10.34 0 01-1.883 0l-5.065-.357-16.464-1.17c-7.696-.487-13.508-.844-17.405-.974a34.44 34.44 0 01-5.91-.358c0-.227 1.689-.91 5.52-1.17 6.049-.274 12.11-.046 18.12.683z" fill="#7D7A7C"/><path d="M14.625 73.741a24.289 24.289 0 018.248 1.105 31.81 31.81 0 01-8.313.162 42.202 42.202 0 01-8.248-.65 21.1 21.1 0 018.313-.617z" fill="#F9E6CF"/><path opacity=".5" d="M94.02 49.735a271.228 271.228 0 01-2.37 9.518 29.248 29.248 0 01-1.234 3.963c.039-1.374.19-2.744.455-4.093.357-2.534.876-5.977 1.428-9.746a63.627 63.627 0 012.663-13.643c.552-.033 1.266 4.418-.942 14z" fill="#7D7A7C"/><path d="M94.962 42.653c-.39 2.729-1.072 4.84-1.429 4.775a11.049 11.049 0 010-4.938c.08-1.666.489-3.3 1.202-4.807.52.032.65 2.274.227 4.97z" fill="#F9E6CF"/><path opacity=".5" d="M89.766 33.395a419.02 419.02 0 01-1.298 15.852c-.228 2.047-.39 3.704-.52 4.84a6.757 6.757 0 01-.292 1.787 9.747 9.747 0 010-1.786v-4.873c0-4.126.195-9.746.325-15.885.194-7.407.292-12.994.39-16.795-.097-1.902.023-3.81.356-5.685.585-.13 2.144 6.692 1.04 22.545z" fill="#7D7A7C"/><path d="M89.831 21.895a23.235 23.235 0 01-.811 7.959 29.25 29.25 0 01-.455-7.959 33.803 33.803 0 01.487-7.959 20.961 20.961 0 01.78 7.959z" fill="#F9E6CF"/><path opacity=".5" d="M94.313 31.673c-.877 6.107-1.786 11.695-2.533 15.723-.293 2.014-.715 3.67-.715 4.808a15.618 15.618 0 01-.422 1.754 6.824 6.824 0 010-1.787c0-1.17.26-2.826.455-4.873.422-4.093.974-9.745 1.591-15.82.714-7.407 1.267-12.994 1.656-16.762.038-1.919.3-3.827.78-5.685.552-.065 1.59 6.887-.812 22.642z" fill="#7D7A7C"/><path d="M95.32 20.173a24.148 24.148 0 01-1.397 7.894 27.1 27.1 0 01.162-7.991 34.088 34.088 0 011.072-7.927c.554 2.642.609 5.363.162 8.024z" fill="#F9E6CF"/><path opacity=".5" d="M103.243 49.215c-1.592 3.54-3.248 6.757-4.32 9.063a29.501 29.501 0 01-2.045 3.671c.325-1.368.77-2.706 1.331-3.996a850.479 850.479 0 013.41-9.388 113.759 113.759 0 015.033-13.189c.65 0 .65 4.71-3.409 13.839z" fill="#7D7A7C"/><path d="M105.548 42.328c-.909 2.631-1.981 4.645-2.305 4.515a11.387 11.387 0 011.104-4.905c.909-2.599 1.656-4.678 2.013-4.613a9.095 9.095 0 01-.812 5.003z" fill="#F9E6CF"/><path opacity=".5" d="M96.488 113.828c-.682-3.444-1.461-6.497-2.11-8.901a29.245 29.245 0 01-.975-3.768s.228.325.552.942c.325.617.682 1.462 1.17 2.566a73.878 73.878 0 013.052 8.771c2.403 8.511.65 13.384 0 13.157-.65-.228-.195-.293-.228-.78a21.837 21.837 0 01-.227-2.307 79.772 79.772 0 00-1.234-9.68z" fill="#7D7A7C"/><path d="M97.82 120.26a10.398 10.398 0 010-4.613c.357 0 1.039 1.917 1.299 4.483s-.228 4.71-.585 4.678a13.618 13.618 0 01-.714-4.548z" fill="#F9E6CF"/><path opacity=".5" d="M98.534 132.604l-3.864-15.365a322.519 322.519 0 01-1.137-4.743c-.16-.575-.28-1.162-.357-1.754a9.09 9.09 0 01.682 1.657c.357 1.104.91 2.696 1.591 4.612a439.74 439.74 0 014.741 15.138c4.351 14.261 4.741 22.22 4.124 22.22a19.168 19.168 0 01-1.591-5.1c-.909-3.638-2.273-8.998-4.189-16.665z" fill="#7D7A7C"/><path d="M101.586 143.649a28.8 28.8 0 01-1.331-7.861 23.418 23.418 0 012.565 7.569 21.413 21.413 0 011.04 7.926 32.906 32.906 0 01-2.274-7.634z" fill="#F9E6CF"/><path opacity=".5" d="M104.444 121.884c-1.883-4.775-3.767-9.096-5.13-12.279l-1.592-3.963a9.772 9.772 0 01-.52-1.397s.358.422.845 1.267l1.981 3.573a198.492 198.492 0 016.007 11.922 66.119 66.119 0 014.904 13.351c.714 3.249.487 4.873.259 4.873-.227 0-1.721-5.23-6.754-17.347z" fill="#7D7A7C"/><path d="M108.211 130.525a20.974 20.974 0 01-1.819-6.497 16.054 16.054 0 013.02 6.01 13.945 13.945 0 011.332 6.497 27.046 27.046 0 01-2.533-6.01z" fill="#F9E6CF"/><path opacity=".5" d="M115.809 111.911c-2.175-3.248-4.416-5.945-6.039-7.991a36.71 36.71 0 01-2.598-3.249s.357.195.909.683a71.813 71.813 0 012.273 2.111 79.834 79.834 0 016.852 7.472 27.426 27.426 0 015.325 9.485c.617 2.437.293 3.769 0 3.769a80.051 80.051 0 00-6.722-12.28z" fill="#7D7A7C"/><path d="M119.868 117.791c-1.266-2.404-2.37-4.385-2.078-4.58.293-.195 1.851 1.494 3.248 3.995 1.396 2.502 1.656 4.906 1.298 4.971-.357.064-1.169-1.982-2.468-4.386z" fill="#F9E6CF"/><path opacity=".5" d="M112.205 96.48c-2.143-1.85-4.254-3.443-5.78-4.58a15.437 15.437 0 01-2.468-1.949 14.3 14.3 0 012.89 1.267 50.697 50.697 0 016.495 3.898 17.543 17.543 0 015.585 5.88c.844 1.722.714 2.794.487 2.826-.227.033-1.656-2.566-7.209-7.341z" fill="#7D7A7C"/><path d="M116.199 99.86c-1.331-1.495-2.435-2.73-2.208-3.022.227-.292 1.721.585 3.247 2.177 1.526 1.591 2.014 3.248 1.689 3.443-.325.195-1.364-1.137-2.728-2.599z" fill="#F9E6CF"/><path opacity=".5" d="M126.785 80.108c-3.799-.455-7.339-.617-9.936-.78a31.836 31.836 0 01-4.189-.292c1.378-.29 2.78-.453 4.189-.487 2.597-.162 6.137-.325 10.066-.195a26.82 26.82 0 0110.619 2.112c2.305 1.072 2.922 2.501 2.727 2.598-.195.098-.974-.52-3.247-1.104a60.46 60.46 0 00-10.229-1.852z" fill="#7D7A7C"/><path d="M133.799 80.823c-2.63-.585-4.838-1.04-4.806-1.397a8.666 8.666 0 015.098.162c2.793.553 4.774 1.982 4.579 2.275a28.464 28.464 0 01-4.871-1.04z" fill="#F9E6CF"/><path opacity=".5" d="M106.1 56.232c-1.851 2.566-3.572 4.905-4.871 6.497a19.69 19.69 0 01-2.175 2.663 15.878 15.878 0 011.526-3.248 216.908 216.908 0 014.059-7.114c3.864-6.497 6.494-9.486 7.046-9.226.552.26-.811 3.8-5.585 10.428z" fill="#7D7A7C"/><path d="M109.12 51.164c-1.234 1.884-2.468 3.249-2.76 3.086-.292-.162.455-1.884 1.688-3.768 1.234-1.884 2.468-3.249 2.761-3.086.292.162-.455 1.884-1.689 3.768z" fill="#F9E6CF"/><path opacity=".5" d="M132.305 59.838l-12.729 5.522-3.929 1.69a8.697 8.697 0 01-1.461.584s.454-.357 1.299-.877l3.734-2.112c3.247-1.721 7.501-4.06 12.372-6.497a78.308 78.308 0 0113.833-5.457c3.248-.845 5.066-.682 5.066-.422 0 .26-1.364.617-4.319 1.786-2.955 1.17-7.468 3.086-13.866 5.783z" fill="#7D7A7C"/><path d="M141.43 55.712a23.214 23.214 0 01-6.494 2.079 17.955 17.955 0 016.202-3.248 15.064 15.064 0 016.852-1.625 29.8 29.8 0 01-6.56 2.794z" fill="#F9E6CF"/><path opacity=".5" d="M126.331 119.318c-3.93-4.581-7.696-8.641-10.424-11.597l-3.247-3.541a12.023 12.023 0 01-1.137-1.332c.5.322.968.692 1.396 1.104l3.54 3.249c2.987 2.761 7.014 6.497 11.17 10.98a73.984 73.984 0 0110.359 12.994c1.949 3.248 2.273 5.262 2.046 5.327-.227.065-1.007-1.364-3.247-4.19-2.241-2.826-5.358-7.179-10.456-12.994z" fill="#7D7A7C"/><path d="M133.767 127.731a31.057 31.057 0 01-4.481-6.497 20.876 20.876 0 015.487 5.653 17.465 17.465 0 013.93 6.822 47.25 47.25 0 01-4.936-5.978z" fill="#F9E6CF"/><path opacity=".5" d="M115.68 127.179c-2.371-4.775-4.774-9.031-6.495-12.117l-2.143-3.671a7.317 7.317 0 01-.747-1.396c.383.358.721.762 1.007 1.202.617.812 1.526 1.949 2.532 3.443a136.72 136.72 0 017.469 11.727 50.902 50.902 0 015.585 13.741c.552 3.249.455 5.068 0 5.068a16.478 16.478 0 01-1.493-4.386 124.395 124.395 0 00-5.715-13.611z" fill="#7D7A7C"/><path d="M120.031 136.08a27.274 27.274 0 01-2.208-6.497 15.764 15.764 0 013.247 6.107 38.076 38.076 0 011.364 4.776v2.111c0 .033-.455-.714-.844-1.884-.39-1.169-.877-2.826-1.559-4.613z" fill="#F9E6CF"/><path opacity=".5" d="M114.023 72.54c-4.383.649-8.053 1.688-8.118 1.494.68-.47 1.409-.863 2.176-1.17a41.244 41.244 0 015.715-2.047 11.817 11.817 0 016.495-.292c1.526.552 1.948 1.43 1.786 1.592-.163.162-.78 0-1.949 0a35.111 35.111 0 00-6.105.422z" fill="#7D7A7C"/><path d="M118.018 71.792c-1.527 0-2.858 0-2.923-.357-.065-.358 1.202-.877 2.89-.91 1.689-.032 3.247.682 2.89 1.007-.357.325-1.331.163-2.857.26z" fill="#F9E6CF"/><path opacity=".5" d="M117.953 44.277l-7.924 9.746-2.468 2.89a6.99 6.99 0 01-1.006 1.04 5.8 5.8 0 01.747-1.04l2.143-3.248 7.144-10.395c6.787-9.745 11.008-14.098 11.398-13.806.389.292-2.176 4.97-10.034 14.813z" fill="#7D7A7C"/><path d="M123.213 36.838c-2.078 2.794-3.994 4.873-4.286 4.678a17.138 17.138 0 013.247-5.457c2.111-2.794 4.027-4.873 4.319-4.678a16.242 16.242 0 01-3.28 5.457z" fill="#F9E6CF"/><path opacity=".5" d="M108.86 37.098c-2.727 5.458-5.26 10.46-7.079 14.131-.941 1.787-1.721 3.248-2.24 4.288a14.49 14.49 0 01-.91 1.56c.157-.58.364-1.146.617-1.69a209.35 209.35 0 011.819-4.483c1.624-3.736 3.799-8.933 6.235-14.553 5.877-13.546 9.741-20.14 10.228-19.946.488.195-1.688 6.562-8.67 20.693z" fill="#7D7A7C"/><path d="M113.439 26.67a24.807 24.807 0 01-3.897 6.887 24.872 24.872 0 012.76-7.439 25.034 25.034 0 013.897-6.92 24.56 24.56 0 01-2.76 7.472z" fill="#F9E6CF"/><path opacity=".5" d="M122.986 90.309a66.1 66.1 0 00-7.794-3.249 23.96 23.96 0 01-3.247-1.234c.324-.036.651-.036.974 0a25.51 25.51 0 012.598.39 47.867 47.867 0 018.281 2.37 17.856 17.856 0 017.598 5.296c.425.69.805 1.405 1.137 2.144v.91a38.992 38.992 0 00-9.547-6.627z" fill="#7D7A7C"/><path d="M128.246 93.07a21.884 21.884 0 01-2.338-1.754c-.649-.455-.974-.813-.909-.975.065-.162.585 0 1.332.195.938.435 1.839.945 2.695 1.527.8.662 1.51 1.427 2.11 2.274.39.714.553 1.202.423 1.3-.13.097-.552-.196-1.072-.716s-1.429-1.072-2.241-1.851z" fill="#F9E6CF"/><path opacity=".5" d="M138.41 88.392c-5.52-1.234-10.651-2.111-14.353-2.729l-4.448-.747a11.072 11.072 0 01-1.624-.357 10.796 10.796 0 011.656 0l4.481.325c3.8.324 8.995.812 14.613 1.786a53.105 53.105 0 0115.067 4.45c3.248 1.625 4.287 3.25 4.124 3.477-.162.227-1.364-.813-4.448-1.95a105.073 105.073 0 00-15.068-4.255z" fill="#7D7A7C"/><path d="M148.639 90.698a28.936 28.936 0 01-6.884-2.5c2.486-.081 4.962.35 7.274 1.266a13.96 13.96 0 016.494 3.443 66.74 66.74 0 01-6.884-2.209z" fill="#F9E6CF"/><path opacity=".5" d="M106.62 32.94c-2.273 6.302-4.449 12.084-6.105 16.242a401.802 401.802 0 00-1.981 4.938 7.636 7.636 0 01-.844 1.787c.138-.637.31-1.266.52-1.884.357-1.235.909-2.956 1.558-5.1 1.364-4.288 3.247-10.168 5.196-16.535l5.585-17.51a27.112 27.112 0 012.176-5.847c.552.065-.163 7.601-6.105 23.909z" fill="#7D7A7C"/><path d="M110.257 20.888a28.357 28.357 0 01-3.248 8.121 34.138 34.138 0 012.046-8.478 37.169 37.169 0 012.955-8.187 25.127 25.127 0 01-1.753 8.544z" fill="#F9E6CF"/><path opacity=".5" d="M124.35 101.451c-3.248-1.982-6.008-3.67-8.151-4.873a34.467 34.467 0 01-3.474-2.046c.357.05.707.148 1.039.292a34.02 34.02 0 012.76 1.04 78.507 78.507 0 018.735 4.125 30.886 30.886 0 018.183 6.27c1.461 1.916 1.883 3.021 1.624 3.248-.26.228-2.858-2.826-10.716-8.056z" fill="#7D7A7C"/><path d="M130.032 105.154c-2.078-1.624-3.701-3.021-3.507-3.248.195-.228 2.176.617 4.287 2.274a21.38 21.38 0 012.435 2.436c.52.78.747 1.3.617 1.397-.13.097-.617-.195-1.234-.747s-1.558-1.3-2.598-2.112z" fill="#F9E6CF"/><path opacity=".5" d="M145.782 73.156c-3.93 0-7.567.488-10.229.748a36 36 0 01-4.319.357c.345-.188.718-.32 1.104-.39l3.085-.747a92.31 92.31 0 0110.261-1.69 29.732 29.732 0 0111.106.456c2.5.747 3.474 1.819 3.247 1.981-.227.163-1.169 0-3.41-.422a68.48 68.48 0 00-10.845-.293z" fill="#7D7A7C"/><path d="M153.153 72.8a13.928 13.928 0 01-5.131-.65 9.383 9.383 0 015.196-.618c2.922.163 5.195 1.137 5.066 1.495a22.206 22.206 0 01-5.131-.228z" fill="#F9E6CF"/><path opacity=".5" d="M141.203 65.62l-10.521 2.794-3.247.844c-.78.195-1.202.293-1.234.228.36-.22.74-.406 1.136-.553l3.085-1.267c2.63-1.039 6.267-2.37 10.261-3.703a58.04 58.04 0 0111.333-2.761c2.631-.292 4.027 0 3.994.292a109.834 109.834 0 01-14.807 4.126z" fill="#7D7A7C"/><path d="M148.704 63.411a12.984 12.984 0 01-5.455.78 11.652 11.652 0 015.13-2.015 10.325 10.325 0 015.521-.422 16.233 16.233 0 01-5.196 1.657z" fill="#F9E6CF"/><path opacity=".5" d="M130.779 45.577c-3.799 2.728-7.241 5.327-9.741 7.179l-2.988 2.241a5.122 5.122 0 01-1.169.748 6.47 6.47 0 01.942-1.008l2.727-2.566a190.568 190.568 0 019.19-7.991 59.251 59.251 0 0110.749-7.277c2.662-1.3 4.318-1.364 4.318-1.137 0 .227-1.039.78-3.247 2.339-2.208 1.56-5.845 3.963-10.781 7.472z" fill="#7D7A7C"/><path d="M137.728 40.282a16.714 16.714 0 01-5.325 2.988c-.195-.292 1.818-2.176 4.611-4.06a11.69 11.69 0 015.585-2.567c.163.325-2.11 1.754-4.871 3.639z" fill="#F9E6CF"/><path opacity=".5" d="M140.196 94.434c-3.896-1.56-7.598-2.696-10.326-3.508l-3.247-.942-1.169-.422h1.234c.779 0 1.948.26 3.247.487a89.963 89.963 0 0110.716 2.631 26.878 26.878 0 0110.456 5.555c1.981 1.949 2.338 3.443 2.078 3.541-.259.097-.941-.812-2.857-2.21a46.207 46.207 0 00-10.132-5.132z" fill="#7D7A7C"/><path d="M147.405 97.39c-2.598-1.494-4.806-2.566-4.643-2.923a9.737 9.737 0 015.26 1.819c2.728 1.527 4.351 3.638 4.027 3.866a41.042 41.042 0 01-4.644-2.762z" fill="#F9E6CF"/><path opacity=".5" d="M124.804 113.016c-3.669-3.639-7.241-6.79-9.741-9.064l-3.248-2.728a6.925 6.925 0 01-1.104-1.04c.46.212.896.473 1.299.78.812.552 1.981 1.332 3.247 2.371 2.826 2.047 6.495 4.938 10.586 8.414a52.636 52.636 0 019.742 10.72c1.624 2.826 2.111 4.45 1.851 4.58-.26.13-1.104-1.039-2.922-3.476-1.819-2.436-4.936-5.879-9.71-10.557z" fill="#7D7A7C"/><path d="M131.721 119.74c-2.435-2.761-4.416-5.035-4.156-5.295.259-.26 2.63 1.657 5.098 4.483a33.116 33.116 0 012.857 3.898c.585 1.072.812 1.819.682 1.917-.13.097-.649-.487-1.396-1.397-.747-.91-1.884-2.209-3.085-3.606z" fill="#F9E6CF"/><path opacity=".5" d="M115.939 120.877c-2.273-3.866-4.481-7.374-6.072-9.94l-1.851-3.054a5.49 5.49 0 01-.617-1.169c.336.282.631.61.877.974.552.682 1.331 1.624 2.24 2.794 1.851 2.404 4.352 5.717 6.885 9.453 6.494 8.966 7.598 14.943 7.079 15.041-.52.097-2.501-4.158-8.541-14.099z" fill="#7D7A7C"/><path d="M120.485 127.926a15.608 15.608 0 01-2.435-5.327c.292-.195 1.916 1.884 3.54 4.71a11.705 11.705 0 012.078 5.523c-.357.13-1.591-2.144-3.183-4.906z" fill="#F9E6CF"/><path opacity=".5" d="M136.527 103.757c-3.247-1.851-6.267-3.248-8.475-4.515a25.313 25.313 0 01-3.572-1.917 24.34 24.34 0 013.896 1.202 89.631 89.631 0 018.963 3.671 28.407 28.407 0 018.605 5.815c1.656 1.754 1.883 3.249 1.689 3.249-.195 0-.877-.65-2.566-1.95a79.886 79.886 0 00-8.54-5.555z" fill="#7D7A7C"/><path d="M142.632 107.071c-2.176-1.494-3.929-2.761-3.735-3.249.195-.487 2.209.488 4.449 2.047 2.241 1.559 3.572 3.411 3.247 3.638-.324.228-1.818-.974-3.961-2.436z" fill="#F9E6CF"/><path opacity=".5" d="M128.052 51.261l-9.742 6.66-2.988 2.047c-.35.271-.732.5-1.136.682.281-.346.596-.661.941-.942l2.696-2.404c2.273-1.982 5.488-4.646 9.092-7.472a61.258 61.258 0 0110.586-6.854c2.533-1.267 4.059-1.462 4.124-1.235a142.912 142.912 0 01-13.573 9.518z" fill="#7D7A7C"/><path d="M134.838 46.259c-2.695 1.754-4.968 3.248-5.195 2.794-.228-.455 1.786-2.08 4.513-3.866a11.333 11.333 0 015.391-2.47 19.48 19.48 0 01-4.709 3.542z" fill="#F9E6CF"/><path opacity=".5" d="M70.77 140.011l4.286-13.546 1.332-4.159a5.31 5.31 0 01.584-1.494c-.05.536-.136 1.068-.26 1.592-.227 1.007-.52 2.469-.909 4.255a904.793 904.793 0 01-3.247 13.839c-3.247 12.994-6.495 19.199-7.046 18.939-.553-.26 1.071-5.88 5.26-19.426z" fill="#7D7A7C"/><path d="M68.075 149.919a22.746 22.746 0 012.662-6.66 20.05 20.05 0 01-1.46 7.017 20.103 20.103 0 01-2.793 6.497 20.757 20.757 0 011.59-6.854z" fill="#F9E6CF"/><path opacity=".5" d="M104.314 27.223c-1.591 5.002-3.247 9.518-4.416 12.799l-1.494 3.898a8.59 8.59 0 01-.617 1.397c.053-.474.151-.942.292-1.397l1.072-4.028c.909-3.249 2.143-8.024 3.475-12.994 1.591-6.075 2.76-10.623 3.604-13.806a21.494 21.494 0 011.331-4.906c.228 0 .585 1.495.228 4.613a83.883 83.883 0 01-3.475 14.424z" fill="#7D7A7C"/><path d="M106.62 17.704a16.487 16.487 0 01-2.338 6.497 21.005 21.005 0 011.104-6.692 26.013 26.013 0 011.948-6.497 14.91 14.91 0 01-.714 6.692z" fill="#F9E6CF"/><path opacity=".5" d="M120.291 46.908c-2.501 2.567-4.806 4.938-6.495 6.498a26.627 26.627 0 01-2.857 2.663 21.946 21.946 0 012.273-3.248c1.461-1.917 3.539-4.483 5.812-7.277 5.488-6.757 9.028-9.745 9.385-9.29.357.454-1.851 3.963-8.118 10.654z" fill="#7D7A7C"/><path d="M124.415 41.71c-1.721 1.917-3.248 3.25-3.572 3.087-.325-.162.909-1.982 2.63-3.93 1.721-1.95 3.247-3.25 3.539-3.054.293.195-.909 1.981-2.597 3.898z" fill="#F9E6CF"/><path opacity=".5" d="M116.232 38.332l-7.891 11.305-2.468 3.444c-.299.43-.636.832-1.007 1.202.193-.488.432-.956.715-1.397l2.11-3.671c1.851-3.054 4.352-7.277 7.079-11.825 6.722-11.012 10.976-16.242 11.398-15.95.422.293-2.111 5.555-9.936 16.892z" fill="#7D7A7C"/><path d="M121.46 29.854a19.224 19.224 0 01-4.417 5.457 19.496 19.496 0 013.248-6.14 18.567 18.567 0 014.286-5.457 19.775 19.775 0 01-3.117 6.14z" fill="#F9E6CF"/></g></svg>