<svg width="288" height="293" fill="none" xmlns="http://www.w3.org/2000/svg"><g style="mix-blend-mode:screen" opacity=".8"><path opacity=".5" d="M157.399 143.7a9.45 9.45 0 015.424 0 21.8 21.8 0 01-4.386 2.829c-2.828 1.732-4.905 1.212-5.251.462-.347-.751.519-2.714 4.213-3.291z" fill="#7D7A7C"/><path d="M155.09 145.028c.923-.404 1.847 0 2.078.346.231.347-.347 1.328-1.27 1.732-.923.404-1.847 0-2.078-.346-.23-.347.289-1.386 1.27-1.732z" fill="#F9E6CF"/><path opacity=".5" d="M161.15 157.787c.569-1.651.708-3.419.404-5.138 0-1.386-.981-2.079-.808-2.194.173-.116 1.154 0 2.077 1.559a10.4 10.4 0 011.386 6.119c-.347 5.774-3.059 7.91-3.752 7.621-.692-.288-.923-2.944.693-7.967z" fill="#7D7A7C"/><path d="M160.688 161.655c.404-1.443 1.27-2.54 1.789-2.425.52.116.808 1.501.346 3.06-.461 1.559-1.442 2.598-1.962 2.425-.519-.173-.519-1.559-.173-3.06z" fill="#F9E6CF"/><path opacity=".5" d="M149.319 129.093a8.436 8.436 0 012.655 4.792c.288 1.27.288 2.136 0 2.136-.289 0-1.963-3.06-4.56-4.33-2.597-1.27-4.905.404-5.424-.519-.52-.924 0-1.155.75-2.079a5.772 5.772 0 012.424-1.097 4.727 4.727 0 014.155 1.097z" fill="#7D7A7C"/><path d="M145.164 128.631c1.673 0 2.885.751 2.597 1.271-.289.519-1.212.75-2.193.923-.981.173-2.136 0-2.424 0-.289 0 .231-1.732 2.02-2.194z" fill="#F9E6CF"/><path opacity=".5" d="M135.064 137.176a10.04 10.04 0 018.08 1.674 30.67 30.67 0 00-7.156 1.27c-3.636 2.021-5.772 3.753-6.406 3.234-.635-.52-.52-1.097 0-2.368a7.68 7.68 0 015.482-3.81z" fill="#7D7A7C"/><path d="M131.371 139.601c1.385-.982 2.77-1.155 3.058-.52.289.635-.577 1.501-1.673 2.31-1.097.808-2.136 1.385-2.54 1.039-.404-.347-.057-1.674 1.155-2.829z" fill="#F9E6CF"/><path opacity=".5" d="M126.581 156.286a31.551 31.551 0 0110.676-4.041s-4.328 2.944-8.945 6.639c-5.771 4.446-7.849 6.87-8.599 6.639-.75-.23-.635-1.27.288-3.059a15.578 15.578 0 016.58-6.178z" fill="#7D7A7C"/><path d="M122.079 160.327c1.674-1.558 3.405-2.251 3.809-1.732.404.52-.75 1.906-2.251 3.349-1.5 1.443-2.77 2.54-3.347 2.194-.577-.347.231-2.194 1.789-3.811z" fill="#F9E6CF"/><path opacity=".5" d="M168.248 131.691a14.941 14.941 0 01-5.771 4.099 37.44 37.44 0 013.174-5.773c.981-1.847 1.328-2.944 1.616-2.944.289 0 0-.405 0-.751a.987.987 0 010-.751s.75-1.212 2.424 0a3.346 3.346 0 01.462 3.291 8.134 8.134 0 01-1.905 2.829z" fill="#7D7A7C"/><path d="M169.807 128.112c-.52 1.559-1.616 2.136-2.078 1.79-.462-.347-.404-1.444 0-2.368a.978.978 0 010-.577.46.46 0 010-.346v-.866a.752.752 0 01.896-.2c.1.047.188.115.258.2.27.307.485.658.635 1.039.157.427.254.874.289 1.328z" fill="#F9E6CF"/><path opacity=".5" d="M155.263 118.874a21.015 21.015 0 01-3.001 9.065c-.346 0 0-4.388 0-9.122a16.439 16.439 0 00-1.154-5.774 4.871 4.871 0 01-.75-1.27c-.289-.289-.404-.52-.347-.75.058-.231.982-.982 2.828 0a7.849 7.849 0 012.424 7.851z" fill="#7D7A7C"/><path d="M154.109 113.794c.808 2.02 0 3.579-.404 3.637-.404.058-1.097-1.443-1.674-2.771-.577-1.328-.634-1.213-.692-1.79a1.22 1.22 0 01-.404-1.097c0-.289.635-.289 1.385 0a4.45 4.45 0 011.789 2.021z" fill="#F9E6CF"/><path opacity=".5" d="M157.803 116.623c.865-4.792 1.673-9.18 2.25-12.471a28.812 28.812 0 011.097-5.196c.314 1.752.411 3.536.288 5.312 0 3.29 0 7.851-.519 12.759-.981 11.835-3.463 17.666-4.271 17.32-.808-.346-1.212-5.427 1.155-17.724z" fill="#7D7A7C"/><path d="M156.706 125.687c.519-3.464 1.443-6.178 2.02-6.12.577.058.75 2.945 0 6.466-.75 3.522-1.558 6.178-2.135 5.774-.578-.404.115-2.714.115-6.12z" fill="#F9E6CF"/><path opacity=".5" d="M170.961 105.538c-1.443 4.157-2.944 7.852-4.155 10.565a18.346 18.346 0 01-2.194 4.272c-.288 0 1.501-7.216 3.348-15.703a89.768 89.768 0 013.866-15.069c.347 0 1.328 1.097 1.501 3.868a35.52 35.52 0 01-2.366 12.067z" fill="#7D7A7C"/><path d="M172.461 97.397c-.577 3.118-1.731 5.774-2.366 5.312-.635-.462-.404-2.714 0-5.774s1.154-5.369 1.789-5.369 1.212 2.714.577 5.831z" fill="#F9E6CF"/><path opacity=".5" d="M125.599 148.434a24.182 24.182 0 0110.908-1.559c0 .347-4.732 1.675-9.696 4.388-5.771 3.291-8.599 5.196-9.349 4.677-.75-.52-.288-1.386.923-2.829a14.493 14.493 0 017.214-4.677z" fill="#7D7A7C"/><path d="M120.809 151.552c1.789-1.328 3.636-1.501 3.867-.982.231.52-1.039 1.675-2.655 2.829-1.616 1.155-3.116 1.906-3.578 1.386-.462-.52.52-2.021 2.366-3.233z" fill="#F9E6CF"/><path opacity=".5" d="M100.206 132.269a68.276 68.276 0 0113.447 2.309 20.16 20.16 0 015.425 1.79c0 .404-8.714-1.27-18.929-1.039a98.555 98.555 0 00-13.793 1.27c-3.06.462-4.675.808-4.848.404-.173-.404.75-1.674 3.809-2.887a31.041 31.041 0 0114.889-1.847z" fill="#7D7A7C"/><path d="M90.28 133.25c3.809-.635 6.925 0 6.925.462s-3 1.155-6.579 1.732c-3.578.577-6.464 1.212-6.752.52-.289-.693 2.54-2.252 6.406-2.714z" fill="#F9E6CF"/><path opacity=".5" d="M191.333 120.318l-11.138 6.235a28.498 28.498 0 01-4.733 2.54 22.642 22.642 0 013.982-3.637 149.139 149.139 0 0110.158-7.794 42.549 42.549 0 0112.235-6.235c3.116-.924 5.02 0 4.905 0-.115 0-4.444 2.655-15.409 8.891z" fill="#7D7A7C"/><path d="M198.951 115.468c-3.116 1.559-5.771 2.598-6.117 2.078-.347-.519 1.904-2.482 5.078-4.099 3.174-1.616 6.233-2.078 6.406-1.443.173.635-2.308 1.847-5.367 3.464z" fill="#F9E6CF"/><path opacity=".5" d="M191.852 137.061c-5.771 0-10.734.808-10.792.461a29.247 29.247 0 0110.619-3.521 9.515 9.515 0 018.772 2.02c1.616 1.963.866 3.349.52 3.349s-.981-.693-2.136-1.212a18.212 18.212 0 00-6.983-1.097z" fill="#7D7A7C"/><path d="M197.104 137.003c-1.789-.462-3.52-.924-3.52-1.501 0-.578 1.789-1.27 4.097-.693 2.309.577 3.521 2.944 2.886 3.175-.635.231-1.789-.577-3.463-.981z" fill="#F9E6CF"/><path opacity=".5" d="M184.177 100.688c-2.77 4.157-5.771 7.852-7.445 10.508a24.746 24.746 0 01-3.463 4.157 24.208 24.208 0 012.251-4.908c1.558-3.002 3.694-6.986 5.771-11.547 5.887-10.334 9.349-15.068 10.042-15.068.693 0 0 6.235-7.156 16.858z" fill="#7D7A7C"/><path d="M188.447 92.432c-1.731 3.118-3.635 5.37-4.155 5.023-.519-.346.462-3.002 2.193-6.12 1.732-3.117 3.347-5.37 3.925-5.138.577.23-.231 3.406-1.963 6.235z" fill="#F9E6CF"/><path opacity=".5" d="M151.974 85.62c.75 5.773 1.096 11.546 1.269 15.357a42.04 42.04 0 010 6.466 37.82 37.82 0 01-1.385-6.293c-.75-3.926-1.673-9.237-2.943-14.953-1.501-6.928-2.77-12.067-3.751-15.473-.981-3.406-1.674-4.965-1.328-5.254.347-.288 2.02.635 3.694 3.926a47.48 47.48 0 014.444 16.224z" fill="#7D7A7C"/><path d="M149.146 74.823c1.154 4.157 1.269 7.679.692 7.794-.577.116-1.731-3.175-2.828-7.159-1.096-3.983-1.846-7.159-1.846-7.505 0-.347 2.885 2.713 3.982 6.87z" fill="#F9E6CF"/><path opacity=".5" d="M137.892 163.849a22.526 22.526 0 015.771-5.427 42.168 42.168 0 01-3.347 7.159 24.952 24.952 0 01-3.059 4.734c-.692.924-1.443 1.386-1.847 1.328-.404-.057-.808-.866-.634-2.309a11.543 11.543 0 013.116-5.485z" fill="#7D7A7C"/><path d="M136.103 167.544c.75-1.386 1.847-2.194 2.366-1.847.52.346.289 1.616-.404 2.944-.692 1.328-1.616 2.136-2.135 1.963-.52-.173-.635-1.674.173-3.06z" fill="#F9E6CF"/><path opacity=".5" d="M116.308 227.414l11.542-23.613 3.578-7.159a21.66 21.66 0 011.443-2.598 13.097 13.097 0 01-.923 2.829c-.635 1.79-1.616 4.388-2.828 7.505-2.482 6.293-5.771 14.954-9.696 24.306-9.176 22.69-15.466 33.717-16.217 33.371-.75-.347 2.193-10.797 13.101-34.641z" fill="#7D7A7C"/><path d="M109.325 244.908a38.499 38.499 0 016.29-11.547 40.403 40.403 0 01-4.27 12.47 39.158 39.158 0 01-6.233 11.547 39.44 39.44 0 014.213-12.47z" fill="#F9E6CF"/><path opacity=".5" d="M104.766 233.938l14.197-24.537c1.904-3.117 3.405-5.773 4.501-7.447a23.077 23.077 0 011.789-2.714c-.34 1.015-.765 2-1.269 2.944-.866 1.906-2.194 4.561-3.752 7.852l-12.754 25.346c-12.004 23.613-19.737 35.102-20.488 34.64-.75-.462 3.752-11.605 17.776-36.084z" fill="#7D7A7C"/><path d="M95.474 252.067a43.472 43.472 0 017.733-11.951 46.581 46.581 0 01-5.77 13.048 48.164 48.164 0 01-7.734 11.951 44.63 44.63 0 015.77-13.048z" fill="#F9E6CF"/><path opacity=".5" d="M92.704 238.268c5.194-7.736 9.984-14.837 13.62-19.918l4.328-5.773c1.039-1.386 1.616-2.194 1.731-2.137a14.45 14.45 0 01-1.269 2.483l-3.636 6.408c-3.174 5.427-7.445 12.817-12.177 20.842-11.543 19.341-18.295 28.867-19.218 28.348-.924-.52 3.059-10.392 16.62-30.253z" fill="#7D7A7C"/><path d="M83.758 253.221a34.629 34.629 0 017.388-9.641 32.916 32.916 0 01-5.772 10.854 33.428 33.428 0 01-7.156 9.757 32.916 32.916 0 015.54-10.97z" fill="#F9E6CF"/><path opacity=".5" d="M98.994 218.985l10.792-14.26a51.204 51.204 0 014.848-5.774 46.73 46.73 0 01-3.693 6.582c-2.366 3.984-5.771 9.353-9.407 15.242-8.946 14.145-14.89 20.495-15.64 20.034-.75-.462 2.308-7.506 13.1-21.824z" fill="#7D7A7C"/><path d="M91.896 229.897c2.828-4.099 5.482-7.101 5.771-6.755.288.346-1.327 3.926-4.155 8.025-2.828 4.099-5.483 7.101-5.771 6.755-.289-.347 1.385-3.984 4.155-8.025z" fill="#F9E6CF"/><path opacity=".5" d="M101.361 187.751c5.771-4.676 10.907-8.776 14.831-11.547a51.569 51.569 0 016.522-4.561s-.462.635-1.443 1.617l-4.155 3.983-13.678 12.991c-12.87 12.066-19.449 18.013-20.141 17.32-.693-.693 3.405-7.794 18.064-19.803z" fill="#7D7A7C"/><path d="M91.55 197.393c3.809-3.58 7.271-6.063 7.733-5.774.462.289-2.424 3.811-6.06 7.679-3.636 3.868-6.925 6.351-7.387 5.773-.462-.577 1.905-4.041 5.714-7.678z" fill="#F9E6CF"/><path opacity=".5" d="M74.294 219.736c7.906-7.217 15.293-13.683 20.718-18.302l6.464-5.485a16.248 16.248 0 012.539-1.905 14.113 14.113 0 01-2.135 2.367l-5.771 6.062a2914.305 2914.305 0 00-19.564 19.514c-9.157 9.122-16.179 15.896-21.065 20.323-4.79 4.445-7.33 6.639-7.618 6.35-.289-.288 5.944-10.449 26.432-28.924z" fill="#7D7A7C"/><path d="M60.212 233.938a42.249 42.249 0 0110.734-8.891 44.332 44.332 0 01-9.176 10.45 49.583 49.583 0 01-10.445 9.122 40.061 40.061 0 018.887-10.681z" fill="#F9E6CF"/><path opacity=".5" d="M83.297 222.391l15.697-16.396 4.848-4.85a14.091 14.091 0 011.905-1.732c-.4.764-.884 1.48-1.443 2.136l-4.271 5.37-14.197 17.32c-13.504 16.165-21.642 23.382-22.334 23.093-.693-.288 4.443-8.775 19.795-24.941z" fill="#7D7A7C"/><path d="M72.851 234.689c4.155-4.677 7.849-8.141 8.31-7.679a28.868 28.868 0 01-6.579 9.122c-4.155 4.677-7.848 8.083-8.31 7.679a28.856 28.856 0 016.579-9.122z" fill="#F9E6CF"/><path opacity=".5" d="M77.583 199.298c8.08-6.351 15.64-11.547 21.411-15.646l6.637-4.503a11.519 11.519 0 012.54-1.559 18.257 18.257 0 01-2.194 2.021l-6.117 5.138-20.141 16.743c-18.872 15.588-28.394 23.613-28.856 23.093-.462-.519 5.713-9.872 26.72-25.287z" fill="#7D7A7C"/><path d="M63.155 211.364a37.517 37.517 0 0110.85-7.505c.404.519-3.867 4.561-9.407 9.237a46.778 46.778 0 01-10.503 7.852 35.27 35.27 0 019.06-9.584z" fill="#F9E6CF"/><path opacity=".5" d="M50.574 180.707c9.927-4.041 19.218-7.216 25.97-9.468l8.08-2.54a15.778 15.778 0 013.059-.751c-.913.504-1.857.948-2.828 1.328l-7.791 3.291c-6.58 2.771-15.582 6.524-25.278 10.969-11.542 5.37-20.372 9.642-26.028 12.76a73.757 73.757 0 01-8.599 4.792c-.346 0 1.328-2.945 6.58-6.755a130.779 130.779 0 0126.835-13.626z" fill="#7D7A7C"/><path d="M32.626 189.541a36.222 36.222 0 0112.985-4.965 56.177 56.177 0 01-11.946 6.985 67.24 67.24 0 01-12.408 6.062 32.382 32.382 0 0111.369-8.082z" fill="#F9E6CF"/><path opacity=".5" d="M54.499 190.465c7.964-3.811 15.466-6.986 20.891-9.238l6.29-2.598a12.806 12.806 0 012.482-.808s-.75.577-2.193 1.385l-6.06 3.291-20.025 11.027c-9.292 5.139-16.333 9.007-20.95 11.547a35.463 35.463 0 01-7.213 3.926c-.808-.866 6.001-8.891 26.778-18.532z" fill="#7D7A7C"/><path d="M40.129 198.778a27.944 27.944 0 0110.56-4.619c.347.578-3.981 3.349-9.406 6.524a40.76 40.76 0 01-10.158 5.254c-.404-.519 3.52-3.983 9.004-7.159z" fill="#F9E6CF"/><path opacity=".5" d="M64.367 192.139a417.464 417.464 0 0116.852-8.256l5.252-2.31a10.24 10.24 0 012.02-.75 7.505 7.505 0 01-1.731 1.27l-4.906 3.06-15.986 9.699A149.942 149.942 0 0142.783 207.9c-.577-.693 4.963-7.217 21.584-15.761z" fill="#7D7A7C"/><path d="M52.825 199.298c4.444-2.771 8.31-4.388 8.657-3.868.346.519-3.117 3.06-7.503 5.773a25.16 25.16 0 01-8.368 4.272c-.23-.404 2.943-3.291 7.214-6.177z" fill="#F9E6CF"/><path opacity=".5" d="M55.018 139.601c8.888 0 17.025.577 23.085 1.155l6.983.808a14.53 14.53 0 012.54.462c-.864.085-1.734.085-2.598 0h-7.156c-5.771 0-14.024 0-22.796.577a186.082 186.082 0 00-23.662 2.598c-5.194 1.039-7.676 2.194-7.964 1.732-.289-.462 1.558-2.309 6.694-4.157a76.729 76.729 0 0124.874-3.175z" fill="#7D7A7C"/><path d="M38.455 141.564a24.928 24.928 0 0111.542 0 37.686 37.686 0 01-11.254 2.194 68.797 68.797 0 01-11.253 1.616c-.289-.866 4.559-3.06 10.965-3.81z" fill="#F9E6CF"/><path opacity=".5" d="M70.138 149.589c6.349-.635 12.178-.866 16.39-.866a42.97 42.97 0 016.926.289 38.36 38.36 0 01-6.81 1.096c-4.155.578-9.926 1.386-16.044 2.541-7.445 1.443-12.985 2.771-16.563 3.868-3.578 1.097-5.31 2.021-5.771 1.674-.462-.346.75-2.078 4.213-3.983a47.758 47.758 0 0117.66-4.619z" fill="#7D7A7C"/><path d="M58.596 152.418c4.444-1.213 8.195-1.27 8.31-.693.116.577-3.462 1.674-7.733 2.887a27.975 27.975 0 01-7.906 1.847c-.404-.635 2.828-2.829 7.33-4.041z" fill="#F9E6CF"/><path opacity=".5" d="M117.635 127.881a77.127 77.127 0 019.696 2.771c1.355.417 2.653.999 3.866 1.732 0 .347-6.463-.808-14.023-1.443a89.162 89.162 0 01-13.736-.924c0-.462.635-1.328 3.059-2.194a23.826 23.826 0 0111.138.058z" fill="#7D7A7C"/><path d="M110.537 127.765c2.828 0 5.021.809 4.963 1.386-.058.577-2.309.808-4.963.866-2.655.058-4.79 0-4.964-.635-.173-.635 1.79-1.617 4.964-1.617z" fill="#F9E6CF"/><path opacity=".5" d="M97.205 109.868a85.096 85.096 0 0112.697 5.427 26.66 26.66 0 014.905 3.002 34.069 34.069 0 01-5.482-1.674 126.763 126.763 0 00-12.87-3.926 106.625 106.625 0 00-18.583-1.848s0-.577.808-1.154a18.83 18.83 0 013.405-1.328c5.084-.838 10.3-.32 15.12 1.501z" fill="#7D7A7C"/><path d="M87.452 108.598c3.867.346 6.81 1.443 6.695 2.136-.116.693-3.175.404-6.81 0h-4.675c-1.212 0-1.962 0-2.02-.462-.058-.462.635-.693 1.847-1.155a19.83 19.83 0 014.963-.519z" fill="#F9E6CF"/><path opacity=".5" d="M80.93 116.68a122.951 122.951 0 0115.583 5.139 40.418 40.418 0 016.175 2.886 37.592 37.592 0 01-6.637-1.558c-4.04-.982-9.638-2.483-15.755-3.407a106.509 106.509 0 00-16.621-1.616c-1.912.306-3.86.306-5.771 0 0-.52 1.212-1.617 5.078-2.714a41.549 41.549 0 0117.949 1.27z" fill="#7D7A7C"/><path d="M69.042 115.526c4.617 0 8.137 1.443 8.022 2.02-.115.578-3.694.405-8.08 0h-5.77c-1.617 0-2.31 0-2.425-.346-.115-.346.808-.808 2.251-1.27a28.266 28.266 0 016.002-.404z" fill="#F9E6CF"/><path opacity=".5" d="M47.573 123.609c9.927 1.616 18.987 3.579 25.451 5.196 3.29.75 5.771 1.443 7.733 1.963.977.19 1.927.5 2.828.923a17.338 17.338 0 01-2.943-.346l-7.849-1.328c-6.637-.981-15.697-2.367-25.624-3.406a260.3 260.3 0 00-27.124-1.848 85.156 85.156 0 01-9.234 0c0-.346 2.366-2.02 8.426-2.829a101.561 101.561 0 0128.336 1.675z" fill="#7D7A7C"/><path d="M28.76 122.338c4.394-.27 8.797.379 12.927 1.906-4.309.59-8.677.59-12.985 0a85.04 85.04 0 01-12.928 0 24.35 24.35 0 0112.985-1.906z" fill="#F9E6CF"/><path opacity=".5" d="M136.449 120.029a14.477 14.477 0 014.617 4.619c.924 1.385 1.27 2.367 1.154 2.425a47.1 47.1 0 00-7.098-4.273 12.004 12.004 0 00-5.136-.635c-1.328 0-2.136 0-2.367-.288-.231-.289 0-1.386 1.328-2.194a6.918 6.918 0 017.502.346z" fill="#7D7A7C"/><path d="M131.486 119.394c2.02 0 3.29.981 3.059 1.443-.231.462-1.501.578-2.944.751-1.442.173-2.712 0-3.001-.347-.288-.346.924-1.732 2.886-1.847z" fill="#F9E6CF"/><path opacity=".5" d="M137.315 100.688a74.604 74.604 0 015.367 12.702 20.503 20.503 0 011.385 5.773c-.346 0-3.636-8.083-9.407-16.627a41.08 41.08 0 00-9.003-10.104c-2.366-1.79-3.982-2.194-3.924-2.656.057-.462 1.673-1.097 4.905 0a23.088 23.088 0 0110.677 10.912z" fill="#7D7A7C"/><path d="M130.736 93.01c2.828 2.713 4.097 5.773 3.636 5.773-.462 0-2.597-1.905-5.194-4.388-2.597-2.483-5.079-3.868-4.906-4.445.173-.578 3.578.23 6.464 3.06z" fill="#F9E6CF"/><path opacity=".5" d="M193.18 158.133c-7.791-4.618-15.409-6.812-15.294-7.216 1.715.02 3.421.253 5.079.693a54.943 54.943 0 0111.542 3.81 20.026 20.026 0 019.984 8.891c.457 1.07.768 2.196.924 3.349 0 .866 0 1.27-.462 1.327-.462.058-1.039-1.039-2.655-3.059a34.642 34.642 0 00-9.118-7.795z" fill="#7D7A7C"/><path d="M200.163 162.637c-1.154-1.097-2.251-2.079-2.943-2.887-.693-.808-1.212-1.328-1.039-1.617.173-.288.923 0 1.962.289a21.735 21.735 0 013.578 2.598c2.539 2.598 3.174 5.774 2.597 5.774s-1.962-2.137-4.155-4.157z" fill="#F9E6CF"/><path opacity=".5" d="M175.347 165.292a24.038 24.038 0 00-2.251-7.505 10.615 10.615 0 015.31 6.87c1.731 5.774-.751 8.718-1.443 8.487-.693-.231-1.385-2.713-1.616-7.852z" fill="#7D7A7C"/><path d="M176.155 169.103c0-1.501 0-2.771.923-2.887.924-.115 1.385 1.213 1.328 2.887-.058 1.674-.693 2.944-1.328 2.887-.635-.058-.923-1.559-.923-2.887z" fill="#F9E6CF"/><path opacity=".5" d="M164.439 187.058a89.662 89.662 0 00-1.962-15.299 12.996 12.996 0 012.136 4.157 41.093 41.093 0 012.827 11.027 25.296 25.296 0 01-1.5 12.008c-1.039 2.598-2.193 3.58-2.539 3.464-.347-.115.519-4.791 1.038-15.357z" fill="#7D7A7C"/><path d="M164.439 194.795c.404-2.945.981-5.312 1.559-5.312.577 0 1.096 2.54.634 5.773-.461 3.234-1.731 5.485-2.366 5.254-.635-.231-.461-2.829.173-5.715z" fill="#F9E6CF"/><path opacity=".5" d="M127.158 218.177l8.368-18.533c1.154-2.309 2.077-4.272 2.712-5.773.635-1.501 1.039-2.079 1.155-2.021a15.467 15.467 0 01-.578 2.252l-1.962 5.773c-1.789 5.023-4.213 11.547-6.81 19.168-6.521 17.897-11.542 26.5-12.235 26.153-.692-.346 1.097-8.487 9.35-27.019z" fill="#7D7A7C"/><path d="M122.079 231.918a24.598 24.598 0 014.848-9.007 23.46 23.46 0 01-2.77 9.873 23.684 23.684 0 01-4.848 9.006 24.714 24.714 0 012.77-9.872z" fill="#F9E6CF"/><path opacity=".5" d="M143.779 221.468c1.154-6.524 2.135-12.586 2.885-17.032a48.593 48.593 0 011.501-7.101c.16 2.422.16 4.852 0 7.274-.289 4.446-.577 10.566-1.212 17.321-1.328 16.165-4.617 24.248-5.483 23.959-.866-.289-.462-7.505 2.309-24.421z" fill="#7D7A7C"/><path d="M142.509 233.938c.808-4.676 1.674-8.487 2.308-8.429a16.687 16.687 0 010 8.776c-.75 4.676-1.846 8.429-2.539 8.313a19.628 19.628 0 01.231-8.66z" fill="#F9E6CF"/><path opacity=".5" d="M150.358 247.159c.692-10.911 1.385-20.899 1.846-28.232.289-3.637.52-6.639.635-8.717a13.55 13.55 0 01.404-3.176 29.548 29.548 0 010 3.233v37.008c-.404 26.557-3.866 40.414-4.79 40.009-.923-.404.058-11.95 1.905-40.125z" fill="#7D7A7C"/><path d="M149.607 267.597a49.009 49.009 0 011.963-14.087 42.97 42.97 0 01.288 14.203 41.815 41.815 0 01-2.366 14.087 52.01 52.01 0 01.115-14.203z" fill="#F9E6CF"/><path opacity=".5" d="M156.302 216.618c.866-6.408 1.501-12.355 1.731-16.743.074-2.377.286-4.748.635-7.101.18.621.296 1.26.346 1.905 0 1.213.289 3.002.404 5.196a129.67 129.67 0 010 17.32 50.814 50.814 0 01-4.155 17.84 40.483 40.483 0 01-2.597 3.984c-.692.808-1.269 1.039-1.443.924-.173-.116 2.482-6.64 5.079-23.325z" fill="#7D7A7C"/><path d="M154.628 228.742a22.072 22.072 0 012.655-8.025c.693 0 .577 3.926-.519 8.603a37.568 37.568 0 01-2.193 5.773c-.866 1.386-1.559 2.136-1.789 1.963-.231-.173 0-1.097.288-2.54a47.26 47.26 0 011.558-5.774z" fill="#F9E6CF"/><path opacity=".5" d="M175.693 187.116c-1.039-5.138-2.193-9.815-3.059-13.221l-1.154-3.984a5.813 5.813 0 010-1.559 24.59 24.59 0 012.77 5.081 119.11 119.11 0 014.733 12.932c3.636 12.356 3.174 19.226 2.424 19.341-.751.116-3.232-5.311-5.714-18.59z" fill="#7D7A7C"/><path d="M178.232 196.584c-.808-3.695-.923-6.755-.346-6.928.577-.173 1.732 2.771 2.539 6.466.808 3.695.751 6.871 0 6.929-.75.057-1.385-2.772-2.193-6.467z" fill="#F9E6CF"/><path opacity=".5" d="M165.709 251.258c-.404-8.313-.808-16.05-1.096-21.708 0-2.771-.001-5.08-.289-6.639a13.549 13.549 0 010-2.483c.318.753.513 1.553.577 2.368 0 1.616.635 3.868 1.097 6.639.865 5.773 1.962 13.221 2.827 21.592 2.309 20.381 0 31.177-1.096 31.004-1.097-.174-.981-9.238-2.02-30.773z" fill="#7D7A7C"/><path d="M166.979 266.789a28.884 28.884 0 01.634-10.912 24.935 24.935 0 011.616 10.854 22.168 22.168 0 01-.981 10.912 34.126 34.126 0 01-1.269-10.854z" fill="#F9E6CF"/><path opacity=".5" d="M128.254 43.416c3.001 10.161 5.367 19.572 6.983 26.442.808 3.406 1.443 6.235 1.847 8.198.299.995.474 2.023.519 3.06a20.622 20.622 0 01-1.096-3.06l-2.597-7.91c-2.193-6.754-5.136-15.934-8.599-25.922-4.213-12.008-7.503-21.073-9.927-26.961a75.182 75.182 0 01-3.693-9.007c.288-.346 2.77 1.617 5.771 7.274a137.582 137.582 0 0110.792 27.886z" fill="#7D7A7C"/><path d="M121.271 24.652a37.318 37.318 0 013.636 13.28 50.689 50.689 0 01-5.771-12.471 73.624 73.624 0 01-4.617-12.875 30.137 30.137 0 016.752 12.066z" fill="#F9E6CF"/><path opacity=".5" d="M116.77 102.131a63.64 63.64 0 017.964 8.718 19.803 19.803 0 012.712 4.157c-.288 0-5.482-5.311-12.581-10.45a35.347 35.347 0 00-10.099-5.369c-2.367-.635-3.752-.404-3.925-.866-.173-.462.808-1.732 3.925-1.847a18.353 18.353 0 0112.004 5.657z" fill="#7D7A7C"/><path d="M109.152 97.86c3.174 1.327 4.963 3.463 4.617 3.925-.347.462-2.713-.693-5.483-1.847-2.77-1.155-5.079-1.502-5.194-2.137-.116-.635 2.885-1.385 6.06.058z" fill="#F9E6CF"/><path opacity=".5" d="M54.96 105.769c11.543 4.099 22.22 8.313 29.895 11.547l9.003 3.868a30.71 30.71 0 013.29 1.616c-1.2-.25-2.377-.598-3.52-1.039l-9.292-3.291c-7.791-2.656-18.584-6.293-30.357-9.872-14.312-4.311-25.143-7.333-32.491-9.065a97.152 97.152 0 01-11.139-2.482c0-.404 3.463-1.213 10.908 0a170.871 170.871 0 0133.703 8.718z" fill="#7D7A7C"/><path d="M32.568 99.534a49.321 49.321 0 0115.12 5.773 69.245 69.245 0 01-15.64-3.637 110.816 110.816 0 01-15.466-4.215 38.826 38.826 0 0115.986 2.079z" fill="#F9E6CF"/><path opacity=".5" d="M54.73 117.546c10.619 2.714 20.199 5.774 27.124 7.968l8.253 2.771c1.01.308 1.993.694 2.943 1.155a16.838 16.838 0 01-3.116-.578l-8.253-2.02c-7.099-1.675-16.852-4.042-27.47-6.293-12.87-2.714-22.624-4.619-29.203-5.774a65.219 65.219 0 01-9.984-1.501c0-.404 2.943-1.443 9.58-1.27 10.21.767 20.31 2.625 30.126 5.542z" fill="#7D7A7C"/><path d="M34.588 113.794a37.563 37.563 0 0113.678 3.868 57.011 57.011 0 01-14.024-1.617 73.72 73.72 0 01-13.85-2.713 33.05 33.05 0 0114.196.462z" fill="#F9E6CF"/><path opacity=".5" d="M76.948 96.993c7.676 3.753 14.544 7.621 19.392 10.565 2.423 1.444 4.386 2.656 5.771 3.58.714.421 1.39.904 2.02 1.443a12.615 12.615 0 01-2.309-.923l-6.117-2.887c-5.136-2.425-12.235-5.774-20.026-8.949a216.952 216.952 0 00-21.642-7.794 35.659 35.659 0 01-7.56-2.078c0-.347 2.366-1.27 7.56-.636a76.562 76.562 0 0122.911 7.68z" fill="#7D7A7C"/><path d="M61.828 91.566a23.08 23.08 0 019.984 4.907 35.713 35.713 0 01-10.676-2.77 51.517 51.517 0 01-10.389-3.58 20.076 20.076 0 0111.081 1.443z" fill="#F9E6CF"/><path opacity=".5" d="M205.992 149.185c-8.657-2.194-16.333-3.06-16.275-3.407a17.309 17.309 0 014.963-.346 77.998 77.998 0 0111.889.693 24.686 24.686 0 0112.119 4.561c2.367 2.02 2.655 3.81 2.251 3.983a86.228 86.228 0 00-14.947-5.484z" fill="#7D7A7C"/><path d="M214.014 151.032c-2.886-1.155-5.367-2.194-5.194-2.829.173-.635 2.885-.519 5.771.751 2.885 1.27 5.136 3.522 4.617 3.983-.52.462-2.309-.808-5.194-1.905z" fill="#F9E6CF"/><path opacity=".5" d="M174.02 84.292c-2.02 7.736-4.156 14.722-5.772 19.745l-2.077 5.773a11.227 11.227 0 01-.924 2.136c.033-.78.149-1.554.347-2.309.288-1.501.75-3.58 1.269-6.178 1.154-5.196 2.713-12.297 4.213-20.091 1.789-9.41 3.059-16.454 3.809-21.188a33.98 33.98 0 011.328-7.217c.461 0 1.442 2.078 1.5 6.986a89.784 89.784 0 01-3.693 22.343z" fill="#7D7A7C"/><path d="M176.617 69.57a22.239 22.239 0 01-2.944 9.93 27.21 27.21 0 01.75-10.277c.2-3.432.9-6.816 2.078-10.046a18.772 18.772 0 01.116 10.393z" fill="#F9E6CF"/><path opacity=".5" d="M223.421 80.481a2173.288 2173.288 0 00-17.602 16.281c-2.251 2.02-4.156 3.695-5.425 4.908-.661.62-1.375 1.18-2.136 1.674a11.128 11.128 0 011.674-2.194l4.906-5.427c4.27-4.561 10.041-10.796 16.39-17.32 15.409-16.281 24.527-23.498 25.104-23.094.577.404-5.54 8.776-22.911 25.172z" fill="#7D7A7C"/><path d="M235.367 67.953a33.758 33.758 0 01-9.407 7.678c-.462-.461 3.001-4.56 7.676-9.237a32.832 32.832 0 019.637-7.679 33.08 33.08 0 01-7.906 9.238z" fill="#F9E6CF"/><path opacity=".5" d="M234.328 100.053L211.59 111.6l-6.983 3.637a13.1 13.1 0 01-2.655 1.213 17.301 17.301 0 012.366-1.733l6.579-4.272c5.771-3.579 13.332-8.371 21.988-13.336a158.119 158.119 0 0124.528-11.951c5.771-2.136 9.118-2.31 9.176-1.906.058.405-2.366 1.502-7.56 4.1l-24.701 12.701z" fill="#7D7A7C"/><path d="M250.545 91.22a42.704 42.704 0 01-11.946 4.85 33.575 33.575 0 0110.965-6.87 30.23 30.23 0 0112.235-4.158 48.982 48.982 0 01-11.254 6.178z" fill="#F9E6CF"/><path opacity=".5" d="M112.903 91.162a156.888 156.888 0 0111.081 13.683 41.996 41.996 0 013.866 6.12 47.897 47.897 0 01-5.194-5.254c-3.059-3.233-7.329-7.736-12.177-12.355a152.45 152.45 0 00-13.678-11.893c-3.174-2.425-5.078-3.233-4.963-3.695.116-.462 2.193-.693 5.771 1.154a51.943 51.943 0 0115.294 12.24z" fill="#7D7A7C"/><path d="M103.265 82.848c3.809 3.06 6.233 6.236 5.771 6.64-.461.404-3.52-1.906-7.214-4.908-3.693-3.002-6.867-5.138-6.637-5.773.231-.635 4.271.866 8.08 4.041z" fill="#F9E6CF"/><path opacity=".5" d="M59.462 75.112c9.695 5.773 18.18 11.547 24.239 15.877 3.059 2.136 5.771 3.926 7.156 5.254.91.61 1.76 1.306 2.54 2.078a17.66 17.66 0 01-2.886-1.617l-7.56-4.56c-6.406-3.869-15.179-9.123-24.99-14.088a248.118 248.118 0 00-27.355-13.22 64.97 64.97 0 01-9.696-3.696c0-.404 3.232-.75 9.87.924a114.01 114.01 0 0128.682 13.048z" fill="#7D7A7C"/><path d="M40.532 65.99a37.74 37.74 0 0112.582 7.39 63.004 63.004 0 01-13.447-5.312 100.512 100.512 0 01-13.216-5.773 31.444 31.444 0 0114.081 3.695z" fill="#F9E6CF"/><path opacity=".5" d="M127.85 79.962a132.784 132.784 0 017.849 15.415 42.362 42.362 0 012.712 6.87 50.692 50.692 0 01-3.924-6.235c-2.366-3.868-5.771-9.18-9.465-14.607A79.732 79.732 0 00113.48 67.78c-3.001-2.54-4.963-3.176-4.906-3.638.058-.461 2.251-.865 6.118 1.213a39.943 39.943 0 0113.158 14.607z" fill="#7D7A7C"/><path d="M119.424 70.031c3.405 3.638 5.252 7.217 4.733 7.563-.52.347-3.117-2.54-6.349-5.773-3.231-3.233-6.233-5.773-6.059-6.12.173-.346 4.559.809 7.675 4.33z" fill="#F9E6CF"/><path opacity=".5" d="M75.91 71.532c9.118 7.102 17.313 14.145 22.623 19.341a217.304 217.304 0 016.579 6.293 14.84 14.84 0 012.308 2.483 23.113 23.113 0 01-2.654-2.02l-7.157-5.774c-5.77-4.734-14.197-11.258-23.488-17.956A246.54 246.54 0 0047.92 57.215c-6.176-3.233-9.638-3.925-9.58-4.445.057-.52 3.462-.75 10.041 1.732a112.707 112.707 0 0127.529 17.03z" fill="#7D7A7C"/><path d="M57.904 59.755a39.706 39.706 0 0111.542 9.122 67.287 67.287 0 01-12.697-7.217c-6.983-4.272-12.985-6.697-12.812-7.448a30.062 30.062 0 0113.967 5.543z" fill="#F9E6CF"/><path opacity=".5" d="M97.205 65.008c6.349 7.275 11.543 14.203 15.64 19.284l4.559 6.12a11.152 11.152 0 011.501 2.367 19.009 19.009 0 01-2.02-1.963l-5.079-5.774c-4.328-4.676-10.215-11.2-16.91-18.07-8.021-8.141-14.254-14.203-18.582-17.783a68.755 68.755 0 01-6.695-5.773c0-.462 2.943 0 7.849 3.233a105.51 105.51 0 0119.737 18.36z" fill="#7D7A7C"/><path d="M84.278 52.48a29.789 29.789 0 018.022 9.584 42.54 42.54 0 01-9.58-7.91 64.299 64.299 0 01-8.888-8.602 24.47 24.47 0 0110.446 6.928z" fill="#F9E6CF"/><path opacity=".5" d="M148.107 40.991a430.12 430.12 0 013.405 27.828c.346 3.58.577 6.524.75 8.602a18.916 18.916 0 010 3.176 26.152 26.152 0 01-.692-3.118c-.347-2.02-.866-4.907-1.501-8.43-1.154-7.158-2.885-16.915-4.905-27.48-2.597-12.818-4.848-22.401-6.637-28.868-1.789-6.466-3.347-9.237-3.001-9.526.346-.288 2.77 1.906 5.309 8.025a132.154 132.154 0 017.272 29.791z" fill="#7D7A7C"/><path d="M143.432 21.188a38.527 38.527 0 012.02 13.972 52.496 52.496 0 01-4.155-13.394 90.71 90.71 0 01-3.29-13.568 28.865 28.865 0 015.425 12.99z" fill="#F9E6CF"/><path opacity=".5" d="M116.943 58.658c3.578 7.274 6.406 14.087 8.368 19.398.981 2.54 1.731 4.561 2.251 5.774a9.89 9.89 0 01.692 2.31 7.862 7.862 0 01-1.212-2.31l-3.001-5.774c-2.481-4.734-5.771-11.546-9.868-18.244a196.935 196.935 0 00-11.543-18.417c-2.77-3.926-4.674-5.427-4.501-5.773.173-.346 2.712 0 6.233 3.695a70.744 70.744 0 0112.581 19.34z" fill="#7D7A7C"/><path d="M108.863 45.783a21.768 21.768 0 014.502 9.526c-.578.347-3.175-3.522-6.406-8.256a48.419 48.419 0 01-5.772-8.718c.578-.692 4.444 2.54 7.676 7.448z" fill="#F9E6CF"/><path opacity=".5" d="M117.462 47.515c5.021 12.124 9.003 23.44 11.542 31.696l3.175 9.873c.401 1.21.728 2.444.981 3.695a23.126 23.126 0 01-1.559-3.465l-3.751-9.583c-3.289-8.083-7.849-19.11-13.273-30.946a249.489 249.489 0 00-16.68-31.234c-4.328-6.581-7.502-9.064-7.27-9.41.23-.347 3.924.981 9.002 7.159a133.538 133.538 0 0117.833 32.215z" fill="#7D7A7C"/><path d="M106.208 26.096a49.08 49.08 0 016.753 15.588 94.834 94.834 0 01-8.715-14.491c-4.501-8.083-9.003-14.03-8.657-14.434a36.084 36.084 0 0110.619 13.337z" fill="#F9E6CF"/><path opacity=".5" d="M106.035 62.18c5.771 10.103 10.908 19.571 14.486 26.5 1.673 3.463 3.116 6.35 4.097 8.313a29.815 29.815 0 011.385 3.118 19.396 19.396 0 01-1.904-2.83l-4.848-7.678c-4.04-6.64-9.58-15.819-15.871-25.576-7.617-12.066-13.562-20.611-17.775-26.384-4.213-5.774-6.81-8.314-6.579-8.718.231-.404 3.347 1.039 8.195 6.293a158.05 158.05 0 0118.814 26.961z" fill="#7D7A7C"/><path d="M93.685 44.051a45.373 45.373 0 017.502 13.221 63.114 63.114 0 01-9.291-11.893 98.68 98.68 0 01-8.484-12.47A36.02 36.02 0 0193.685 44.05z" fill="#F9E6CF"/><path opacity=".5" d="M94.666 153.111a142.314 142.314 0 0115.467-2.31c2.17-.18 4.351-.18 6.521 0a39.358 39.358 0 01-6.117 1.155c-3.867.924-9.234 2.194-14.89 3.926-6.868 2.078-11.889 3.926-15.178 5.254-3.29 1.328-5.021 2.136-5.252 1.905-.23-.231.635-1.848 3.636-4.099a47.637 47.637 0 0115.813-5.831z" fill="#7D7A7C"/><path d="M83.99 156.748c4.097-1.617 7.617-2.021 7.79-1.444.174.578-3.058 1.963-6.925 3.522-2.02.751-3.694 1.559-5.079 1.905-1.385.347-2.077.809-2.308.52-.23-.289.404-.981 1.558-1.905a27.745 27.745 0 014.963-2.598z" fill="#F9E6CF"/><path opacity=".5" d="M54.095 161.886a259.036 259.036 0 0126.836-5.254c3.52-.519 6.348-.866 8.31-1.039a17.255 17.255 0 013.117 0l-3.002.808-8.137 1.848c-6.867 1.559-16.274 3.753-26.316 6.813a152.39 152.39 0 00-26.432 10.449c-5.771 3.118-7.734 5.485-8.138 5.196-.404-.288.924-3.175 6.176-7.101a80.803 80.803 0 0127.586-11.72z" fill="#7D7A7C"/><path d="M35.512 168.814a33.566 33.566 0 0113.273-3.752 62.206 62.206 0 01-12.35 5.773c-6.695 3.06-11.946 6.293-12.466 5.889-.52-.404 4.444-4.792 11.543-7.91z" fill="#F9E6CF"/><path opacity=".5" d="M51.382 157.267c11.889-1.905 22.796-3.117 30.76-3.868l9.465-.866h3.52a15.331 15.331 0 01-3.404.751l-9.35 1.616c-7.906 1.328-18.756 3.176-30.471 5.774-14.14 2.886-24.759 5.369-31.742 7.447-6.983 2.079-10.272 3.638-10.503 3.291-.231-.346 2.25-2.829 8.945-5.773a151.373 151.373 0 0132.78-8.372z" fill="#7D7A7C"/><path d="M29.74 162.406a46.143 46.143 0 0115.41-2.31 68.647 68.647 0 01-15.063 4.561 111.553 111.553 0 01-15.063 3.695 37.733 37.733 0 0114.716-5.946z" fill="#F9E6CF"/><path opacity=".5" d="M47.862 131.98c11.542 1.27 21.642 2.656 28.856 3.81l8.887 1.444a18.37 18.37 0 013.29.693 18.526 18.526 0 01-3.347 0l-9.004-.636-29.26-2.078c-13.677-.866-24.007-1.501-30.933-1.732a61.211 61.211 0 01-10.503-.635c0-.404 3-1.617 9.81-2.078a194.03 194.03 0 0132.204 1.212z" fill="#7D7A7C"/><path d="M26.624 131.056c4.963-.194 9.922.47 14.659 1.963a56.567 56.567 0 01-14.774.289 75.023 75.023 0 01-14.66-1.155 37.518 37.518 0 0114.775-1.097z" fill="#F9E6CF"/><path opacity=".5" d="M167.729 88.39c-1.501 6.582-3.059 12.587-4.213 16.917a51.915 51.915 0 01-2.193 7.043c.069-2.443.339-4.876.808-7.274.635-4.503 1.558-10.623 2.539-17.32a113.03 113.03 0 014.733-24.249c.981-.057 2.25 7.852-1.674 24.884z" fill="#7D7A7C"/><path d="M169.403 75.805c-.693 4.85-1.905 8.602-2.54 8.487a19.637 19.637 0 010-8.776 22.515 22.515 0 012.136-8.544c.923.057 1.154 4.04.404 8.833z" fill="#F9E6CF"/><path opacity=".5" d="M160.169 59.35c-.693 10.912-1.559 20.9-2.309 28.175-.404 3.637-.692 6.581-.923 8.602a12.005 12.005 0 01-.52 3.175 17.361 17.361 0 010-3.175v-8.66c0-7.332.347-17.32.578-28.232.346-13.163.519-23.093.692-29.848-.171-3.381.042-6.77.635-10.104 1.039-.23 3.809 11.893 1.847 40.068z" fill="#7D7A7C"/><path d="M160.284 38.913a41.285 41.285 0 01-1.443 14.145 52.026 52.026 0 01-.808-14.145c-.27-4.733.02-9.48.866-14.145a37.262 37.262 0 011.385 14.145z" fill="#F9E6CF"/><path opacity=".5" d="M168.248 56.29c-1.558 10.855-3.174 20.785-4.501 27.944-.52 3.58-1.27 6.524-1.27 8.545a27.785 27.785 0 01-.75 3.117 12.142 12.142 0 010-3.175c0-2.079.462-5.023.808-8.66.75-7.275 1.731-17.32 2.828-28.117 1.269-13.163 2.251-23.093 2.943-29.79.068-3.41.533-6.801 1.385-10.104.981-.115 2.828 12.24-1.443 40.24z" fill="#7D7A7C"/><path d="M170.037 35.853a42.897 42.897 0 01-2.481 14.03 48.197 48.197 0 01.288-14.203c.08-4.755.719-9.483 1.905-14.087a38.466 38.466 0 01.288 14.26z" fill="#F9E6CF"/><path opacity=".5" d="M184.119 87.467c-2.828 6.293-5.771 12.009-7.676 16.108a52.51 52.51 0 01-3.635 6.524 42.395 42.395 0 012.366-7.102 1496.468 1496.468 0 016.059-16.685 202.073 202.073 0 018.946-23.44c1.154 0 1.154 8.372-6.06 24.595z" fill="#7D7A7C"/><path d="M188.217 75.227c-1.616 4.677-3.521 8.256-4.098 8.025a20.27 20.27 0 011.962-8.717c1.616-4.62 2.944-8.314 3.578-8.199a16.171 16.171 0 01-1.442 8.891z" fill="#F9E6CF"/><path opacity=".5" d="M172.115 202.3c-1.212-6.12-2.597-11.547-3.751-15.819a52.085 52.085 0 01-1.732-6.697s.404.577.981 1.674c.578 1.097 1.212 2.598 2.078 4.561a131.416 131.416 0 015.425 15.588c4.271 15.126 1.154 23.787 0 23.382-1.154-.404-.346-.519-.404-1.385a38.847 38.847 0 01-.404-4.099 141.813 141.813 0 00-2.193-17.205z" fill="#7D7A7C"/><path d="M174.481 213.731a18.473 18.473 0 010-8.198c.635 0 1.847 3.406 2.309 7.967.461 4.561-.404 8.372-1.039 8.314a24.215 24.215 0 01-1.27-8.083z" fill="#F9E6CF"/><path opacity=".5" d="M175.751 235.67l-6.868-27.308a570.973 570.973 0 01-2.02-8.429 22.234 22.234 0 01-.635-3.118c.5.94.906 1.926 1.212 2.945.635 1.963 1.616 4.792 2.828 8.198a779.296 779.296 0 018.426 26.904c7.733 25.345 8.426 39.49 7.33 39.49a34.075 34.075 0 01-2.828-9.064c-1.616-6.466-4.04-15.993-7.445-29.618z" fill="#7D7A7C"/><path d="M181.176 255.3a51.092 51.092 0 01-2.366-13.972 41.66 41.66 0 014.559 13.452 38.068 38.068 0 011.847 14.087 58.469 58.469 0 01-4.04-13.567z" fill="#F9E6CF"/><path opacity=".5" d="M186.254 216.618c-3.347-8.487-6.694-16.166-9.118-21.823l-2.828-7.044a17.298 17.298 0 01-.923-2.483s.635.751 1.5 2.252l3.521 6.351a353.035 353.035 0 0110.676 21.188 117.473 117.473 0 018.715 23.729c1.269 5.773.865 8.66.461 8.66-.404 0-3.058-9.295-12.004-30.83z" fill="#7D7A7C"/><path d="M192.949 231.975a37.246 37.246 0 01-3.232-11.547 28.522 28.522 0 015.367 10.681 24.775 24.775 0 012.366 11.547 48.034 48.034 0 01-4.501-10.681z" fill="#F9E6CF"/><path opacity=".5" d="M206.453 198.894c-3.866-5.774-7.848-10.566-10.734-14.203a65.87 65.87 0 01-4.617-5.773s.635.346 1.616 1.212a126.55 126.55 0 014.04 3.753 141.84 141.84 0 0112.177 13.279 48.737 48.737 0 019.465 16.858c1.096 4.33.519 6.697 0 6.697a142.303 142.303 0 00-11.947-21.823z" fill="#7D7A7C"/><path d="M213.667 209.344c-2.25-4.273-4.213-7.795-3.693-8.141.519-.346 3.289 2.656 5.771 7.101 2.482 4.446 2.943 8.718 2.308 8.834-.634.115-2.077-3.522-4.386-7.794z" fill="#F9E6CF"/><path opacity=".5" d="M200.047 171.47c-3.809-3.291-7.56-6.12-10.272-8.14a27.468 27.468 0 01-4.386-3.465 25.414 25.414 0 015.136 2.252 90.024 90.024 0 0111.542 6.928 31.18 31.18 0 019.927 10.45c1.5 3.06 1.269 4.965.865 5.023-.404.058-2.943-4.561-12.812-13.048z" fill="#7D7A7C"/><path d="M207.146 177.474c-2.366-2.655-4.328-4.849-3.924-5.369.404-.519 3.058 1.039 5.771 3.868 2.712 2.829 3.578 5.774 3.001 6.12-.577.346-2.424-2.021-4.848-4.619z" fill="#F9E6CF"/><path opacity=".5" d="M225.96 142.372c-6.752-.808-13.043-1.097-17.66-1.386a56.538 56.538 0 01-7.445-.519 40.877 40.877 0 017.445-.866c4.617-.289 10.908-.577 17.891-.347a47.667 47.667 0 0118.872 3.753c4.097 1.905 5.194 4.446 4.847 4.619-.346.173-1.731-.924-5.771-1.963a107.43 107.43 0 00-18.179-3.291z" fill="#7D7A7C"/><path d="M238.426 143.642c-4.675-1.039-8.599-1.847-8.542-2.482a15.402 15.402 0 019.061.288c4.963.982 8.484 3.522 8.137 4.042a50.569 50.569 0 01-8.656-1.848z" fill="#F9E6CF"/><path opacity=".5" d="M189.198 99.938c-3.29 4.561-6.349 8.717-8.657 11.546a35.052 35.052 0 01-3.867 4.735 28.196 28.196 0 012.713-5.774 387.8 387.8 0 017.214-12.644c6.867-11.546 11.542-16.858 12.523-16.396.981.462-1.443 6.755-9.926 18.533z" fill="#7D7A7C"/><path d="M194.565 90.931c-2.193 3.349-4.386 5.773-4.906 5.485-.519-.289.808-3.349 3.001-6.697 2.193-3.349 4.386-5.774 4.906-5.485.519.289-.808 3.349-3.001 6.697z" fill="#F9E6CF"/><path opacity=".5" d="M235.771 106.346l-22.623 9.815-6.983 3.002c-.832.425-1.702.773-2.597 1.039 0 0 .808-.635 2.308-1.559l6.637-3.752c5.771-3.06 13.332-7.217 21.988-11.547a139.105 139.105 0 0124.585-9.7c5.772-1.5 9.003-1.212 9.003-.75 0 .462-2.423 1.097-7.675 3.175-5.252 2.079-13.274 5.485-24.643 10.277z" fill="#7D7A7C"/><path d="M251.988 99.014a41.269 41.269 0 01-11.542 3.695 31.91 31.91 0 0111.023-5.774 26.769 26.769 0 0112.177-2.886 52.99 52.99 0 01-11.658 4.965z" fill="#F9E6CF"/><path opacity=".5" d="M225.152 212.057c-6.983-8.14-13.678-15.357-18.525-20.611l-5.772-6.293a21.275 21.275 0 01-2.019-2.367 16.42 16.42 0 012.481 1.963l6.291 5.773c5.309 4.908 12.465 11.547 19.852 19.514a131.64 131.64 0 0118.411 23.094c3.462 5.773 4.039 9.353 3.635 9.468-.404.116-1.789-2.425-5.771-7.447-3.982-5.023-9.522-12.76-18.583-23.094z" fill="#7D7A7C"/><path d="M238.368 227.01a55.287 55.287 0 01-7.964-11.547 37.133 37.133 0 019.753 10.046 31.056 31.056 0 016.983 12.124 84.089 84.089 0 01-8.772-10.623z" fill="#F9E6CF"/><path opacity=".5" d="M206.223 226.029c-4.213-8.487-8.484-16.05-11.543-21.535l-3.809-6.524c-.53-.777-.975-1.61-1.327-2.483.68.638 1.281 1.355 1.789 2.137 1.097 1.443 2.712 3.464 4.501 6.119a243.014 243.014 0 0113.274 20.842 90.49 90.49 0 019.927 24.422c.981 5.773.808 9.006 0 9.006a29.254 29.254 0 01-2.655-7.794 220.956 220.956 0 00-10.157-24.19z" fill="#7D7A7C"/><path d="M213.956 241.848a48.49 48.49 0 01-3.924-11.547 28.027 28.027 0 015.771 10.854 67.711 67.711 0 012.424 8.487v3.753c0 .057-.808-1.271-1.501-3.349-.692-2.078-1.558-5.023-2.77-8.198z" fill="#F9E6CF"/><path opacity=".5" d="M203.279 128.92c-7.791 1.155-14.312 3.002-14.428 2.656a19.683 19.683 0 013.867-2.079 73.46 73.46 0 0110.157-3.637 20.997 20.997 0 0111.543-.519c2.712.981 3.462 2.54 3.174 2.829-.289.288-1.385 0-3.463 0a62.46 62.46 0 00-10.85.75z" fill="#7D7A7C"/><path d="M210.378 127.592c-2.713 0-5.079 0-5.194-.635-.116-.635 2.135-1.559 5.136-1.616 3.001-.058 5.771 1.212 5.136 1.789-.634.578-2.366.289-5.078.462z" fill="#F9E6CF"/><path opacity=".5" d="M210.262 78.692l-14.081 17.32-4.386 5.138a12.45 12.45 0 01-1.789 1.847c.373-.662.818-1.282 1.327-1.847l3.809-5.773 12.697-18.475c12.061-17.32 19.564-25.057 20.256-24.537.693.52-3.866 8.833-17.833 26.327z" fill="#7D7A7C"/><path d="M219.612 65.47c-3.694 4.966-7.099 8.66-7.618 8.314a30.47 30.47 0 015.771-9.7c3.751-4.964 7.156-8.66 7.676-8.313a28.894 28.894 0 01-5.829 9.7z" fill="#F9E6CF"/><path opacity=".5" d="M194.103 65.932c-4.848 9.7-9.349 18.59-12.581 25.114-1.674 3.176-3.059 5.774-3.982 7.621a25.853 25.853 0 01-1.616 2.772 18.609 18.609 0 011.097-3.002c.75-1.906 1.846-4.677 3.231-7.968 2.886-6.64 6.753-15.877 11.081-25.865 10.446-24.075 17.313-35.795 18.179-35.448.866.346-3.001 11.662-15.409 36.776z" fill="#7D7A7C"/><path d="M202.24 47.4a44.104 44.104 0 01-6.925 12.24 44.171 44.171 0 014.906-13.222 44.466 44.466 0 016.925-12.297A43.649 43.649 0 01202.24 47.4z" fill="#F9E6CF"/><path opacity=".5" d="M219.208 160.501a117.618 117.618 0 00-13.851-5.774 42.496 42.496 0 01-5.771-2.194 7.827 7.827 0 011.731 0c1.55.152 3.091.383 4.617.693 5.022.96 9.948 2.37 14.717 4.215a31.735 31.735 0 0113.504 9.41 33.042 33.042 0 012.02 3.811v1.616a69.257 69.257 0 00-16.967-11.777z" fill="#7D7A7C"/><path d="M228.557 165.408a38.551 38.551 0 01-4.155-3.118c-1.154-.808-1.732-1.443-1.616-1.732.115-.288 1.039 0 2.366.347 1.668.772 3.27 1.68 4.79 2.713a21.064 21.064 0 013.751 4.042c.693 1.27.981 2.136.751 2.309-.231.173-.981-.346-1.905-1.27-.923-.924-2.539-1.905-3.982-3.291z" fill="#F9E6CF"/><path opacity=".5" d="M246.621 157.094c-9.811-2.194-18.93-3.752-25.509-4.849l-7.906-1.328a19.76 19.76 0 01-2.886-.635c.98-.076 1.964-.076 2.943 0l7.965.577c6.752.577 15.986 1.443 25.97 3.175a94.403 94.403 0 0126.778 7.91c5.771 2.887 7.618 5.773 7.329 6.177-.288.405-2.423-1.443-7.906-3.464a186.898 186.898 0 00-26.778-7.563z" fill="#7D7A7C"/><path d="M264.8 161.193a51.414 51.414 0 01-12.235-4.445 32.261 32.261 0 0112.927 2.251 24.827 24.827 0 0111.543 6.12 118.393 118.393 0 01-12.235-3.926z" fill="#F9E6CF"/><path opacity=".5" d="M190.121 58.542c-4.04 11.2-7.906 21.477-10.85 28.867-1.5 3.695-2.712 6.697-3.52 8.776a13.573 13.573 0 01-1.501 3.175 30.8 30.8 0 01.924-3.348c.635-2.194 1.616-5.254 2.77-9.065 2.424-7.62 5.771-18.07 9.234-29.386l9.926-31.119a48.167 48.167 0 013.867-10.392c.981.116-.289 13.51-10.85 42.492z" fill="#7D7A7C"/><path d="M196.585 37.123a50.42 50.42 0 01-5.771 14.434 60.647 60.647 0 013.635-15.07 65.964 65.964 0 015.252-14.548 44.637 44.637 0 01-3.116 15.184z" fill="#F9E6CF"/><path opacity=".5" d="M221.632 180.303c-5.772-3.521-10.677-6.524-14.486-8.66a61.365 61.365 0 01-6.175-3.637 7.118 7.118 0 011.847.52c1.212.404 2.885.981 4.905 1.847a139.686 139.686 0 0115.525 7.332 54.904 54.904 0 0114.543 11.143c2.597 3.406 3.347 5.369 2.885 5.773-.461.405-5.078-5.023-19.044-14.318z" fill="#7D7A7C"/><path d="M231.731 186.885c-3.693-2.887-6.579-5.369-6.233-5.773.347-.405 3.867 1.097 7.618 4.041a37.824 37.824 0 014.329 4.33c.923 1.386 1.327 2.309 1.096 2.483-.231.173-1.096-.347-2.193-1.328-1.096-.982-2.77-2.31-4.617-3.753z" fill="#F9E6CF"/><path opacity=".5" d="M259.721 130.017c-6.983 0-13.447.866-18.179 1.328a63.829 63.829 0 01-7.676.635 6.594 6.594 0 011.963-.693l5.482-1.328a164.18 164.18 0 0118.237-3.002 52.873 52.873 0 0119.738.808c4.443 1.328 6.175 3.234 5.771 3.522-.404.289-2.078 0-6.06-.75a121.66 121.66 0 00-19.276-.52z" fill="#7D7A7C"/><path d="M272.822 129.382a24.746 24.746 0 01-9.119-1.155 16.678 16.678 0 019.234-1.097c5.194.289 9.234 2.021 9.003 2.656a39.422 39.422 0 01-9.118-.404z" fill="#F9E6CF"/><path opacity=".5" d="M251.584 116.623l-18.699 4.965-5.771 1.501c-1.385.346-2.135.52-2.193.404a11.52 11.52 0 012.02-.981l5.483-2.252c4.674-1.848 11.138-4.215 18.237-6.582a103.119 103.119 0 0120.141-4.907c4.675-.52 7.156 0 7.098.519a195.245 195.245 0 01-26.316 7.333z" fill="#7D7A7C"/><path d="M264.915 112.697a23.063 23.063 0 01-9.695 1.385 20.714 20.714 0 019.118-3.579 18.344 18.344 0 019.811-.751 28.838 28.838 0 01-9.234 2.945z" fill="#F9E6CF"/><path opacity=".5" d="M233.058 81c-6.752 4.85-12.869 9.47-17.313 12.76l-5.309 3.984a9.146 9.146 0 01-2.078 1.328 11.544 11.544 0 011.674-1.79l4.847-4.561a337.931 337.931 0 0116.333-14.203 105.332 105.332 0 0119.102-12.932c4.733-2.31 7.676-2.425 7.676-2.02 0 .403-1.847 1.385-5.771 4.156-3.925 2.771-10.388 7.044-19.161 13.279z" fill="#7D7A7C"/><path d="M245.409 71.59a29.726 29.726 0 01-9.465 5.312c-.346-.52 3.232-3.868 8.195-7.217a20.771 20.771 0 019.927-4.561c.288.577-3.752 3.118-8.657 6.466z" fill="#F9E6CF"/><path opacity=".5" d="M249.795 167.833c-6.925-2.771-13.505-4.792-18.352-6.236l-5.772-1.674-2.077-.75h2.193c1.385 0 3.463.462 5.771.866a159.783 159.783 0 0119.045 4.676 47.77 47.77 0 0118.583 9.873c3.52 3.464 4.155 6.119 3.694 6.293-.462.173-1.674-1.444-5.079-3.926a82.076 82.076 0 00-18.006-9.122z" fill="#7D7A7C"/><path d="M262.607 173.087c-4.617-2.656-8.541-4.561-8.253-5.196a17.3 17.3 0 019.349 3.233c4.848 2.713 7.734 6.466 7.157 6.87a72.83 72.83 0 01-8.253-4.907z" fill="#F9E6CF"/><path opacity=".5" d="M222.44 200.857c-6.522-6.467-12.87-12.067-17.314-16.108l-5.771-4.85a12.212 12.212 0 01-1.962-1.847 12.39 12.39 0 012.308 1.385c1.443.982 3.521 2.367 5.771 4.215 5.021 3.637 11.543 8.775 18.814 14.953a93.573 93.573 0 0117.314 19.052c2.885 5.023 3.751 7.91 3.289 8.141-.461.231-1.962-1.848-5.194-6.178s-8.772-10.45-17.255-18.763z" fill="#7D7A7C"/><path d="M234.732 212.808c-4.328-4.908-7.849-8.949-7.387-9.411.462-.462 4.675 2.944 9.061 7.967a58.745 58.745 0 015.078 6.928c1.039 1.906 1.443 3.233 1.212 3.407-.231.173-1.154-.866-2.481-2.483-1.328-1.617-3.348-3.926-5.483-6.408z" fill="#F9E6CF"/><path opacity=".5" d="M206.684 214.828c-4.04-6.87-7.964-13.105-10.792-17.666l-3.289-5.427a9.769 9.769 0 01-1.097-2.079 8.442 8.442 0 011.558 1.732c.981 1.213 2.367 2.887 3.982 4.965 3.29 4.273 7.734 10.162 12.235 16.801 11.543 15.935 13.505 26.558 12.581 26.731-.923.173-4.443-7.39-15.178-25.057z" fill="#7D7A7C"/><path d="M214.764 227.357a27.71 27.71 0 01-4.328-9.469c.519-.346 3.405 3.349 6.29 8.372a20.792 20.792 0 013.694 9.814c-.635.231-2.828-3.81-5.656-8.717z" fill="#F9E6CF"/><path opacity=".5" d="M243.274 184.402c-5.772-3.29-11.139-5.773-15.063-8.025a45.044 45.044 0 01-6.349-3.406 43.293 43.293 0 016.926 2.136 159.336 159.336 0 0115.928 6.524 50.436 50.436 0 0115.294 10.335c2.943 3.117 3.347 5.773 3.001 5.773-.346 0-1.558-1.155-4.559-3.464a141.818 141.818 0 00-15.178-9.873z" fill="#7D7A7C"/><path d="M254.123 190.291c-3.866-2.655-6.983-4.907-6.637-5.773.347-.866 3.925.866 7.907 3.637s6.348 6.062 5.771 6.466c-.577.404-3.232-1.732-7.041-4.33z" fill="#F9E6CF"/><path opacity=".5" d="M228.211 91.104l-17.314 11.836-5.309 3.637a9.903 9.903 0 01-2.02 1.212 11.56 11.56 0 011.673-1.674l4.791-4.272c4.039-3.522 9.753-8.256 16.159-13.279a108.801 108.801 0 0118.814-12.182c4.501-2.252 7.214-2.598 7.329-2.194a253.972 253.972 0 01-24.123 16.916z" fill="#7D7A7C"/><path d="M240.272 82.213c-4.79 3.118-8.829 5.774-9.233 4.965-.404-.808 3.174-3.695 8.022-6.87a20.135 20.135 0 019.58-4.388 34.623 34.623 0 01-8.369 6.293z" fill="#F9E6CF"/><path opacity=".5" d="M126.407 248.834l7.618-24.076 2.367-7.389a9.4 9.4 0 011.038-2.656 20.514 20.514 0 01-.461 2.829c-.404 1.789-.924 4.388-1.616 7.563a1623.131 1623.131 0 01-5.771 24.595c-5.772 23.093-11.543 34.12-12.524 33.659-.981-.462 1.905-10.45 9.349-34.525z" fill="#7D7A7C"/><path d="M121.617 266.442a40.424 40.424 0 014.733-11.835 35.659 35.659 0 01-2.597 12.471 35.735 35.735 0 01-4.964 11.546 36.936 36.936 0 012.828-12.182z" fill="#F9E6CF"/><path opacity=".5" d="M186.024 48.381c-2.828 8.891-5.772 16.916-7.849 22.747l-2.655 6.928a15.21 15.21 0 01-1.097 2.483c.095-.842.269-1.673.52-2.483l1.904-7.159c1.616-5.773 3.809-14.26 6.176-23.093 2.827-10.797 4.905-18.88 6.405-24.537a38.232 38.232 0 012.367-8.718c.404 0 1.039 2.656.404 8.198a149.285 149.285 0 01-6.175 25.634z" fill="#7D7A7C"/><path d="M190.121 31.465a29.28 29.28 0 01-4.155 11.547 37.374 37.374 0 011.962-11.893 46.182 46.182 0 013.463-11.547 26.51 26.51 0 01-1.27 11.893z" fill="#F9E6CF"/><path opacity=".5" d="M214.418 83.368c-4.444 4.56-8.542 8.776-11.543 11.547a47.231 47.231 0 01-5.078 4.734 39.038 39.038 0 014.04-5.773c2.597-3.407 6.29-7.968 10.33-12.933 9.753-12.009 16.044-17.32 16.679-16.512.634.808-3.29 7.044-14.428 18.937z" fill="#7D7A7C"/><path d="M221.747 74.13c-3.059 3.407-5.771 5.774-6.348 5.485-.577-.288 1.616-3.522 4.674-6.986 3.059-3.464 5.772-5.773 6.291-5.427.519.347-1.616 3.522-4.617 6.928z" fill="#F9E6CF"/><path opacity=".5" d="M207.204 68.126L193.18 88.218l-4.386 6.12c-.531.764-1.13 1.48-1.789 2.136.342-.867.768-1.698 1.269-2.483l3.752-6.524c3.289-5.427 7.733-12.932 12.581-21.015 11.946-19.572 19.506-28.867 20.256-28.347.751.52-3.751 9.872-17.659 30.021z" fill="#7D7A7C"/><path d="M216.495 53.058a34.161 34.161 0 01-7.849 9.699 34.65 34.65 0 015.772-10.912 33.004 33.004 0 017.618-9.7 35.174 35.174 0 01-5.541 10.913z" fill="#F9E6CF"/></g></svg>