<svg width="138" height="140" fill="none" xmlns="http://www.w3.org/2000/svg"><g style="mix-blend-mode:screen" opacity=".8"><path opacity=".5" d="M75.657 68.596a4.516 4.516 0 012.59 0 10.47 10.47 0 01-2.094 1.35c-1.35.827-2.342.579-2.507.22-.165-.358.248-1.295 2.011-1.57z" fill="#7D7A7C"/><path d="M74.555 69.23c.44-.194.882 0 .992.165.11.165-.165.634-.606.827-.44.192-.882 0-.992-.166-.11-.165.138-.661.606-.827z" fill="#F9E6CF"/><path opacity=".5" d="M77.448 75.32a4.908 4.908 0 00.193-2.453c0-.661-.469-.992-.386-1.047.083-.055.55 0 .992.744.516.882.747 1.903.66 2.921-.164 2.756-1.46 3.776-1.79 3.638-.33-.138-.44-1.405.33-3.803z" fill="#7D7A7C"/><path d="M77.227 77.166c.193-.688.606-1.212.854-1.157.248.055.386.716.166 1.46-.22.745-.689 1.24-.937 1.158-.248-.083-.248-.744-.083-1.46z" fill="#F9E6CF"/><path opacity=".5" d="M71.8 61.623a4.024 4.024 0 011.267 2.287c.138.607.138 1.02 0 1.02-.137 0-.936-1.46-2.176-2.067-1.24-.606-2.342.193-2.59-.248-.247-.44 0-.551.359-.992.34-.262.736-.442 1.157-.524a2.258 2.258 0 011.983.524z" fill="#7D7A7C"/><path d="M69.817 61.403c.799 0 1.377.358 1.24.606-.138.248-.58.358-1.047.44-.469.083-1.02 0-1.157 0-.138 0 .11-.826.964-1.046z" fill="#F9E6CF"/><path opacity=".5" d="M64.996 65.481a4.792 4.792 0 013.857.8 14.62 14.62 0 00-3.416.606c-1.736.964-2.755 1.791-3.058 1.543-.303-.248-.248-.524 0-1.13a3.664 3.664 0 012.617-1.819z" fill="#7D7A7C"/><path d="M63.233 66.639c.66-.469 1.322-.551 1.46-.248.137.303-.276.716-.8 1.102-.523.386-1.019.662-1.211.496-.193-.165-.028-.8.55-1.35z" fill="#F9E6CF"/><path opacity=".5" d="M60.946 74.603a15.064 15.064 0 015.097-1.929s-2.067 1.406-4.27 3.17c-2.755 2.122-3.747 3.28-4.105 3.169-.358-.11-.303-.606.138-1.46a7.44 7.44 0 013.14-2.95z" fill="#7D7A7C"/><path d="M58.797 76.533c.8-.745 1.626-1.075 1.819-.827.192.248-.359.91-1.075 1.598-.716.69-1.322 1.213-1.598 1.047-.275-.165.11-1.047.854-1.818z" fill="#F9E6CF"/><path opacity=".5" d="M80.836 62.863a7.136 7.136 0 01-2.755 1.957c.423-.962.93-1.884 1.516-2.756.468-.882.633-1.406.77-1.406.139 0 0-.193 0-.358a.47.47 0 010-.358s.36-.579 1.158 0a1.598 1.598 0 01.22 1.57c-.204.51-.514.97-.909 1.351z" fill="#7D7A7C"/><path d="M81.58 61.154c-.248.744-.771 1.02-.992.855-.22-.166-.192-.69 0-1.13a.469.469 0 010-.276.22.22 0 010-.165v-.413a.357.357 0 01.551 0c.13.146.232.314.303.496.075.203.121.417.138.633z" fill="#F9E6CF"/><path opacity=".5" d="M74.638 56.745a10.034 10.034 0 01-1.433 4.327c-.165 0 0-2.095 0-4.355a7.856 7.856 0 00-.55-2.756 2.343 2.343 0 01-.359-.606c-.138-.138-.193-.248-.165-.358.027-.11.468-.469 1.35 0a3.748 3.748 0 011.157 3.748z" fill="#7D7A7C"/><path d="M74.087 54.32c.385.964 0 1.708-.193 1.736-.193.028-.523-.69-.799-1.323-.275-.634-.303-.579-.33-.854a.578.578 0 01-.193-.524c0-.138.303-.138.66 0 .379.225.677.562.855.965z" fill="#F9E6CF"/><path opacity=".5" d="M75.85 55.67c.413-2.287.799-4.382 1.074-5.953.098-.84.273-1.671.524-2.48.15.836.196 1.688.138 2.535 0 1.571 0 3.748-.248 6.091-.469 5.65-1.653 8.433-2.039 8.268-.386-.166-.579-2.59.55-8.46z" fill="#7D7A7C"/><path d="M75.326 59.997c.249-1.654.69-2.949.965-2.921.275.027.358 1.405 0 3.086-.358 1.681-.744 2.95-1.02 2.756-.275-.193.055-1.295.055-2.921z" fill="#F9E6CF"/><path opacity=".5" d="M82.131 50.379a64.84 64.84 0 01-1.984 5.043 8.762 8.762 0 01-1.046 2.04c-.138 0 .716-3.446 1.597-7.497a42.868 42.868 0 011.846-7.193c.166 0 .634.524.716 1.847a16.953 16.953 0 01-1.129 5.76z" fill="#7D7A7C"/><path d="M82.847 46.493c-.275 1.488-.826 2.756-1.13 2.535-.302-.22-.192-1.295 0-2.756.194-1.46.552-2.563.855-2.563.303 0 .578 1.296.275 2.784z" fill="#F9E6CF"/><path opacity=".5" d="M60.478 70.855a11.54 11.54 0 015.206-.744c0 .166-2.258.8-4.628 2.095-2.755 1.57-4.104 2.48-4.463 2.232-.358-.248-.137-.661.441-1.35a6.915 6.915 0 013.444-2.233z" fill="#7D7A7C"/><path d="M58.191 72.344c.854-.634 1.736-.717 1.846-.469.11.248-.496.8-1.267 1.35-.772.552-1.488.91-1.708.662-.22-.248.248-.965 1.13-1.543z" fill="#F9E6CF"/><path opacity=".5" d="M48.356 63.139c2.171.152 4.322.521 6.42 1.102.898.16 1.77.448 2.589.854 0 .193-4.16-.606-9.036-.496-2.206.048-4.407.25-6.584.607-1.46.22-2.232.385-2.314.193-.083-.193.358-.8 1.818-1.378a14.816 14.816 0 017.107-.882z" fill="#7D7A7C"/><path d="M43.618 63.607c1.818-.303 3.306 0 3.306.22 0 .221-1.433.552-3.14.828-1.709.275-3.086.578-3.224.248-.138-.331 1.212-1.075 3.058-1.296z" fill="#F9E6CF"/><path opacity=".5" d="M91.856 57.434l-5.317 2.976c-.713.475-1.47.88-2.26 1.213a10.8 10.8 0 011.902-1.736 71.127 71.127 0 014.848-3.72 20.327 20.327 0 015.84-2.977c1.488-.441 2.397 0 2.342 0-.055 0-2.121 1.268-7.355 4.244z" fill="#7D7A7C"/><path d="M95.492 55.119c-1.487.744-2.755 1.24-2.92.992-.165-.248.91-1.185 2.424-1.957 1.516-.771 2.976-.992 3.058-.689.083.303-1.102.882-2.562 1.654z" fill="#F9E6CF"/><path opacity=".5" d="M92.104 65.426c-2.755 0-5.124.386-5.152.22a13.963 13.963 0 015.07-1.68 4.543 4.543 0 014.186.964c.772.937.414 1.598.248 1.598-.165 0-.468-.33-1.019-.578a8.702 8.702 0 00-3.333-.524z" fill="#7D7A7C"/><path d="M94.61 65.399c-.853-.22-1.68-.441-1.68-.717 0-.276.854-.606 1.956-.33 1.102.275 1.68 1.405 1.378 1.515-.303.11-.854-.276-1.653-.468z" fill="#F9E6CF"/><path opacity=".5" d="M88.44 48.064c-1.323 1.984-2.755 3.748-3.554 5.016a11.824 11.824 0 01-1.653 1.984c.27-.819.63-1.605 1.074-2.343.744-1.433 1.763-3.334 2.755-5.512 2.81-4.933 4.463-7.193 4.794-7.193.33 0 0 2.977-3.416 8.048z" fill="#7D7A7C"/><path d="M90.478 44.123c-.826 1.488-1.735 2.563-1.983 2.397-.248-.165.22-1.433 1.047-2.92.826-1.49 1.597-2.564 1.873-2.454.275.11-.11 1.626-.937 2.977z" fill="#F9E6CF"/><path opacity=".5" d="M73.067 40.87c.359 2.757.524 5.513.607 7.332a20.121 20.121 0 010 3.086 18.064 18.064 0 01-.662-3.004c-.358-1.874-.799-4.41-1.405-7.138-.716-3.307-1.322-5.76-1.79-7.386-.469-1.626-.8-2.37-.634-2.508.165-.137.964.304 1.763 1.875a22.66 22.66 0 012.121 7.744z" fill="#7D7A7C"/><path d="M71.718 35.717c.55 1.984.606 3.666.33 3.72-.275.056-.826-1.515-1.35-3.417-.523-1.901-.881-3.417-.881-3.583 0-.165 1.377 1.296 1.9 3.28z" fill="#F9E6CF"/><path opacity=".5" d="M66.346 78.214a10.749 10.749 0 012.754-2.59 20.12 20.12 0 01-1.597 3.416c-.4.807-.89 1.565-1.46 2.26-.331.441-.69.662-.882.634-.193-.027-.386-.413-.303-1.102.243-.994.758-1.9 1.488-2.618z" fill="#7D7A7C"/><path d="M65.492 79.978c.358-.662.881-1.048 1.13-.882.247.165.137.771-.194 1.405-.33.634-.771 1.02-1.019.937-.248-.082-.303-.8.083-1.46z" fill="#F9E6CF"/><path opacity=".5" d="M56.042 108.557l5.51-11.272 1.708-3.417c.201-.43.431-.844.689-1.24a6.232 6.232 0 01-.44 1.35 140.22 140.22 0 01-1.35 3.582c-1.185 3.004-2.756 7.138-4.629 11.603-4.38 10.831-7.383 16.095-7.741 15.929-.358-.165 1.047-5.153 6.253-16.535z" fill="#7D7A7C"/><path d="M52.709 116.907a18.389 18.389 0 013.003-5.512 19.292 19.292 0 01-2.039 5.953 18.69 18.69 0 01-2.975 5.512 18.83 18.83 0 012.011-5.953z" fill="#F9E6CF"/><path opacity=".5" d="M50.533 111.671l6.777-11.713c.909-1.488 1.625-2.756 2.148-3.555.254-.451.54-.884.854-1.295a9.173 9.173 0 01-.606 1.405c-.413.91-1.047 2.177-1.79 3.748l-6.089 12.099c-5.73 11.272-9.421 16.756-9.78 16.536-.357-.221 1.791-5.54 8.486-17.225z" fill="#7D7A7C"/><path d="M46.097 120.325a20.752 20.752 0 013.692-5.705 22.243 22.243 0 01-2.755 6.228 22.984 22.984 0 01-3.692 5.705 21.289 21.289 0 012.755-6.228z" fill="#F9E6CF"/><path opacity=".5" d="M44.775 113.738c2.48-3.693 4.766-7.083 6.501-9.508l2.067-2.756c.495-.662.771-1.047.826-1.02a6.9 6.9 0 01-.606 1.185l-1.736 3.059c-1.515 2.591-3.553 6.119-5.812 9.949-5.51 9.233-8.733 13.78-9.174 13.532-.44-.248 1.46-4.961 7.934-14.441z" fill="#7D7A7C"/><path d="M40.505 120.876a16.546 16.546 0 013.526-4.603 15.702 15.702 0 01-2.755 5.181 15.954 15.954 0 01-3.416 4.658 15.71 15.71 0 012.645-5.236z" fill="#F9E6CF"/><path opacity=".5" d="M47.778 104.533l5.151-6.807a24.39 24.39 0 012.314-2.756 22.296 22.296 0 01-1.763 3.142c-1.13 1.901-2.755 4.464-4.49 7.275-4.27 6.752-7.108 9.784-7.466 9.563-.358-.22 1.102-3.582 6.254-10.417z" fill="#7D7A7C"/><path d="M44.39 109.742c1.35-1.957 2.616-3.39 2.754-3.225.138.166-.633 1.874-1.983 3.831-1.35 1.957-2.617 3.39-2.755 3.224-.138-.165.66-1.901 1.983-3.83z" fill="#F9E6CF"/><path opacity=".5" d="M48.907 89.623c2.755-2.232 5.207-4.189 7.08-5.512a24.562 24.562 0 013.113-2.177s-.22.303-.688.772l-1.984 1.901-6.529 6.201c-6.143 5.76-9.284 8.599-9.614 8.268-.331-.33 1.625-3.72 8.622-9.453z" fill="#7D7A7C"/><path d="M44.224 94.226c1.818-1.709 3.471-2.894 3.692-2.756.22.138-1.158 1.819-2.893 3.665-1.736 1.847-3.306 3.032-3.526 2.756-.22-.275.909-1.929 2.727-3.665z" fill="#F9E6CF"/><path opacity=".5" d="M35.987 104.891c3.774-3.445 7.3-6.531 9.89-8.736l3.085-2.618a7.74 7.74 0 011.212-.91 6.722 6.722 0 01-1.019 1.13L46.4 96.651a1390.526 1390.526 0 00-9.339 9.315c-4.37 4.354-7.723 7.588-10.055 9.701-2.287 2.122-3.499 3.169-3.636 3.032-.138-.138 2.837-4.989 12.617-13.808z" fill="#7D7A7C"/><path d="M29.265 111.671a20.159 20.159 0 015.124-4.244 21.164 21.164 0 01-4.38 4.988 23.648 23.648 0 01-4.986 4.354 19.13 19.13 0 014.242-5.098z" fill="#F9E6CF"/><path opacity=".5" d="M40.285 106.159l7.493-7.827 2.314-2.315a6.66 6.66 0 01.909-.827 5.51 5.51 0 01-.689 1.02l-2.038 2.563-6.777 8.268c-6.447 7.717-10.331 11.161-10.662 11.024-.33-.138 2.121-4.189 9.45-11.906z" fill="#7D7A7C"/><path d="M35.298 112.029c1.984-2.232 3.747-3.886 3.967-3.665a13.777 13.777 0 01-3.14 4.354c-1.984 2.232-3.747 3.858-3.967 3.666a13.782 13.782 0 013.14-4.355z" fill="#F9E6CF"/><path opacity=".5" d="M37.557 95.135c3.857-3.031 7.466-5.512 10.22-7.468l3.169-2.15c.37-.3.778-.55 1.212-.744-.322.35-.672.672-1.047.964l-2.92 2.453-9.614 7.993c-9.009 7.441-13.554 11.271-13.775 11.023-.22-.248 2.727-4.712 12.755-12.07z" fill="#7D7A7C"/><path d="M30.67 100.895a17.908 17.908 0 015.18-3.583c.192.248-1.847 2.178-4.491 4.41a22.364 22.364 0 01-5.014 3.748 16.839 16.839 0 014.325-4.575z" fill="#F9E6CF"/><path opacity=".5" d="M24.664 86.261c4.739-1.93 9.174-3.445 12.397-4.52l3.857-1.212a7.517 7.517 0 011.46-.359 11.14 11.14 0 01-1.35.634l-3.719 1.571c-3.14 1.323-7.438 3.114-12.066 5.237-5.51 2.563-9.725 4.602-12.425 6.09a35.181 35.181 0 01-4.104 2.288c-.166 0 .633-1.406 3.14-3.225a62.44 62.44 0 0112.81-6.504z" fill="#7D7A7C"/><path d="M16.097 90.478a17.297 17.297 0 016.198-2.37 26.825 26.825 0 01-5.702 3.334 32.124 32.124 0 01-5.923 2.894 15.453 15.453 0 015.427-3.858z" fill="#F9E6CF"/><path opacity=".5" d="M26.538 90.919c3.801-1.82 7.383-3.335 9.972-4.41l3.003-1.24a6.08 6.08 0 011.185-.386s-.358.276-1.047.662l-2.893 1.57-9.56 5.264c-4.434 2.453-7.796 4.3-10 5.512a16.94 16.94 0 01-3.443 1.874c-.386-.413 2.865-4.244 12.783-8.846z" fill="#7D7A7C"/><path d="M19.678 94.887a13.33 13.33 0 015.041-2.205c.166.276-1.9 1.599-4.49 3.115a19.472 19.472 0 01-4.849 2.508c-.192-.249 1.68-1.902 4.298-3.418z" fill="#F9E6CF"/><path opacity=".5" d="M31.248 91.718a199.407 199.407 0 018.045-3.941l2.507-1.103c.308-.153.63-.273.964-.358-.245.24-.523.445-.827.606l-2.341 1.461-7.631 4.63a71.62 71.62 0 01-11.02 6.229c-.275-.331 2.37-3.445 10.303-7.524z" fill="#7D7A7C"/><path d="M25.739 95.135c2.121-1.323 3.967-2.094 4.132-1.846.165.248-1.488 1.46-3.581 2.756a12.01 12.01 0 01-3.995 2.04c-.11-.194 1.405-1.572 3.444-2.95z" fill="#F9E6CF"/><path opacity=".5" d="M26.786 66.639c4.242 0 8.127.275 11.02.551l3.333.386c.41.037.815.111 1.212.22a6.266 6.266 0 01-1.24 0h-3.416c-2.755 0-6.694 0-10.882.276-3.787.172-7.56.586-11.295 1.24-2.48.496-3.664 1.047-3.802.827-.137-.22.744-1.103 3.196-1.984a36.627 36.627 0 0111.874-1.516z" fill="#7D7A7C"/><path d="M18.88 67.576a11.896 11.896 0 015.509 0 17.983 17.983 0 01-5.372 1.047 32.846 32.846 0 01-5.372.772c-.138-.414 2.176-1.46 5.234-1.82z" fill="#F9E6CF"/><path opacity=".5" d="M34.003 71.406a81.45 81.45 0 017.824-.413c1.104-.043 2.21.003 3.306.138a18.28 18.28 0 01-3.25.523c-1.984.276-4.74.662-7.66 1.213-3.553.69-6.198 1.323-7.906 1.847-1.708.523-2.534.964-2.755.799-.22-.166.358-.992 2.011-1.902a22.803 22.803 0 018.43-2.205z" fill="#7D7A7C"/><path d="M28.494 72.757c2.12-.579 3.912-.606 3.967-.33.055.275-1.653.798-3.692 1.377-1.208.476-2.48.773-3.774.882-.193-.303 1.35-1.35 3.499-1.929z" fill="#F9E6CF"/><path opacity=".5" d="M56.676 61.044c1.57.34 3.116.782 4.628 1.323a8.266 8.266 0 011.846.827c0 .165-3.085-.386-6.694-.69a42.542 42.542 0 01-6.557-.44c0-.22.303-.634 1.46-1.047a11.373 11.373 0 015.317.027z" fill="#7D7A7C"/><path d="M53.288 60.99c1.35 0 2.396.385 2.369.66-.028.276-1.102.386-2.37.414-1.267.028-2.286 0-2.369-.303-.082-.303.854-.772 2.37-.772z" fill="#F9E6CF"/><path opacity=".5" d="M46.924 52.446a40.6 40.6 0 016.06 2.59c.83.392 1.615.872 2.342 1.433a16.248 16.248 0 01-2.617-.799 60.596 60.596 0 00-6.143-1.874 50.905 50.905 0 00-8.871-.882s0-.276.386-.551a9.032 9.032 0 011.625-.634 13.99 13.99 0 017.218.717z" fill="#7D7A7C"/><path d="M42.268 51.84c1.846.165 3.25.688 3.196 1.019-.055.33-1.515.193-3.251 0H39.98c-.578 0-.936 0-.964-.22-.027-.22.303-.331.882-.552a9.473 9.473 0 012.369-.248z" fill="#F9E6CF"/><path opacity=".5" d="M39.155 55.698a58.73 58.73 0 017.438 2.452c1.02.376 2.006.837 2.948 1.378a17.954 17.954 0 01-3.168-.744c-1.929-.468-4.6-1.185-7.521-1.626a50.817 50.817 0 00-7.934-.771 8.7 8.7 0 01-2.755 0c0-.248.578-.772 2.424-1.296a19.83 19.83 0 018.568.607z" fill="#7D7A7C"/><path d="M33.48 55.146c2.204 0 3.884.69 3.83.965-.056.276-1.764.193-3.858 0h-2.754c-.772 0-1.102 0-1.157-.165-.056-.166.385-.386 1.074-.607.945-.166 1.906-.23 2.865-.193z" fill="#F9E6CF"/><path opacity=".5" d="M23.232 59.005a153.23 153.23 0 0112.149 2.48c1.57.358 2.755.69 3.691.937.467.091.92.24 1.35.441a8.267 8.267 0 01-1.405-.165l-3.746-.634c-3.169-.469-7.494-1.13-12.232-1.626-4.298-.52-8.62-.814-12.948-.882-1.468.08-2.94.08-4.408 0 0-.165 1.13-.965 4.022-1.35a48.496 48.496 0 0113.527.799z" fill="#7D7A7C"/><path d="M14.25 58.398a15.12 15.12 0 016.172.91 22.829 22.829 0 01-6.199 0 40.536 40.536 0 01-6.17 0 11.622 11.622 0 016.198-.91z" fill="#F9E6CF"/><path opacity=".5" d="M65.657 57.296a6.915 6.915 0 012.204 2.205c.44.661.606 1.13.55 1.157a22.5 22.5 0 00-3.388-2.039 5.728 5.728 0 00-2.452-.303c-.633 0-1.019 0-1.13-.138-.11-.138 0-.661.635-1.047a3.304 3.304 0 013.58.165z" fill="#7D7A7C"/><path d="M63.288 56.993c.964 0 1.57.468 1.46.689-.11.22-.717.276-1.405.358-.689.083-1.295 0-1.433-.165-.137-.166.441-.827 1.378-.882z" fill="#F9E6CF"/><path opacity=".5" d="M66.07 48.064a35.611 35.611 0 012.562 6.063 9.76 9.76 0 01.661 2.756c-.165 0-1.735-3.859-4.49-7.937a19.618 19.618 0 00-4.298-4.823c-1.13-.855-1.9-1.048-1.873-1.268.028-.22.799-.524 2.342 0a11.021 11.021 0 015.096 5.209z" fill="#7D7A7C"/><path d="M62.93 44.398c1.35 1.296 1.955 2.756 1.735 2.756-.22 0-1.24-.91-2.48-2.094-1.239-1.185-2.424-1.847-2.34-2.122.082-.276 1.707.11 3.085 1.46z" fill="#F9E6CF"/><path opacity=".5" d="M92.737 75.485c-3.719-2.204-7.355-3.252-7.3-3.445.819.01 1.633.121 2.424.331a26.25 26.25 0 015.51 1.819 9.561 9.561 0 014.766 4.244c.218.51.366 1.048.44 1.599 0 .413 0 .606-.22.633-.22.028-.496-.496-1.267-1.46a16.53 16.53 0 00-4.353-3.72z" fill="#7D7A7C"/><path d="M96.07 77.635c-.55-.524-1.074-.992-1.404-1.378-.33-.386-.579-.634-.496-.772.082-.138.44 0 .936.138.61.354 1.183.77 1.709 1.24 1.212 1.24 1.515 2.756 1.24 2.756-.276 0-.937-1.02-1.984-1.984z" fill="#F9E6CF"/><path opacity=".5" d="M84.225 78.903a11.47 11.47 0 00-1.075-3.583 5.07 5.07 0 012.535 3.28c.826 2.756-.358 4.161-.689 4.05-.33-.11-.661-1.294-.771-3.747z" fill="#7D7A7C"/><path d="M84.61 80.722c0-.717 0-1.323.441-1.378.441-.055.661.578.634 1.378-.028.799-.33 1.405-.634 1.378-.303-.028-.44-.744-.44-1.378z" fill="#F9E6CF"/><path opacity=".5" d="M79.018 89.293a42.838 42.838 0 00-.937-7.304 6.201 6.201 0 011.02 1.985 19.632 19.632 0 011.35 5.263 12.077 12.077 0 01-.717 5.733c-.496 1.24-1.046 1.709-1.212 1.653-.165-.055.248-2.287.496-7.33z" fill="#7D7A7C"/><path d="M79.018 92.986c.193-1.406.468-2.536.744-2.536.275 0 .523 1.213.303 2.756-.22 1.543-.827 2.618-1.13 2.508-.303-.11-.22-1.35.083-2.728z" fill="#F9E6CF"/><path opacity=".5" d="M61.221 104.147l3.995-8.847a50.65 50.65 0 001.295-2.755c.303-.717.496-.993.55-.965a7.396 7.396 0 01-.275 1.075l-.936 2.756c-.854 2.397-2.011 5.512-3.251 9.15-3.113 8.543-5.51 12.649-5.84 12.484-.33-.165.523-4.051 4.462-12.898z" fill="#7D7A7C"/><path d="M58.797 110.706a11.743 11.743 0 012.314-4.299 11.196 11.196 0 01-1.322 4.713 11.302 11.302 0 01-2.314 4.299 11.799 11.799 0 011.322-4.713z" fill="#F9E6CF"/><path opacity=".5" d="M69.156 105.718c.55-3.114 1.019-6.008 1.377-8.13a23.21 23.21 0 01.716-3.39 26.3 26.3 0 010 3.473c-.137 2.122-.275 5.043-.578 8.268-.634 7.716-2.204 11.574-2.617 11.437-.414-.138-.22-3.583 1.102-11.658z" fill="#7D7A7C"/><path d="M68.55 111.671c.385-2.232.798-4.051 1.102-4.024a7.968 7.968 0 010 4.189c-.359 2.233-.882 4.024-1.213 3.969a9.375 9.375 0 01.11-4.134z" fill="#F9E6CF"/><path opacity=".5" d="M72.296 117.982c.33-5.209.661-9.977.882-13.477.137-1.736.248-3.169.303-4.161a6.45 6.45 0 01.193-1.516c.027.514.027 1.03 0 1.543v17.666c-.193 12.677-1.846 19.292-2.287 19.099-.44-.193.028-5.705.91-19.154z" fill="#7D7A7C"/><path d="M71.938 127.738c-.016-2.275.3-4.54.937-6.724.421 2.236.468 4.527.137 6.779.012 2.29-.37 4.565-1.13 6.725a24.815 24.815 0 01.056-6.78z" fill="#F9E6CF"/><path opacity=".5" d="M75.134 103.403c.413-3.059.716-5.898.826-7.992.035-1.135.136-2.267.303-3.39.086.297.142.601.165.91 0 .578.138 1.433.193 2.48a62.026 62.026 0 010 8.268 24.255 24.255 0 01-1.983 8.515c-.376.658-.79 1.293-1.24 1.902-.33.386-.606.496-.689.441-.082-.055 1.185-3.169 2.425-11.134z" fill="#7D7A7C"/><path d="M74.335 109.191a10.529 10.529 0 011.267-3.831c.33 0 .275 1.874-.248 4.106a17.848 17.848 0 01-1.047 2.756c-.413.661-.744 1.02-.854.937-.11-.083 0-.524.138-1.213.138-.689.386-1.708.744-2.755z" fill="#F9E6CF"/><path opacity=".5" d="M84.39 89.32a130.928 130.928 0 00-1.46-6.31l-.551-1.903a2.76 2.76 0 010-.744 11.74 11.74 0 011.322 2.426 56.805 56.805 0 012.26 6.173c1.735 5.898 1.514 9.177 1.156 9.232-.358.055-1.542-2.535-2.727-8.874z" fill="#7D7A7C"/><path d="M85.602 93.84c-.386-1.764-.44-3.225-.165-3.307.275-.083.826 1.323 1.212 3.086.386 1.764.358 3.28 0 3.308-.358.027-.661-1.323-1.047-3.087z" fill="#F9E6CF"/><path opacity=".5" d="M79.624 119.939c-.193-3.969-.386-7.662-.523-10.363 0-1.322 0-2.425-.138-3.169a6.479 6.479 0 010-1.185c.152.359.245.741.275 1.13 0 .772.303 1.846.524 3.169.413 2.756.936 6.311 1.35 10.307 1.102 9.729 0 14.883-.524 14.8-.523-.083-.468-4.41-.964-14.689z" fill="#7D7A7C"/><path d="M80.23 127.352a13.786 13.786 0 01.303-5.209c.639 1.649.902 3.419.772 5.182.281 1.748.12 3.539-.469 5.208a16.29 16.29 0 01-.606-5.181z" fill="#F9E6CF"/><path opacity=".5" d="M61.745 20.725a236.449 236.449 0 013.333 12.622c.386 1.626.69 2.976.882 3.913.143.475.226.966.248 1.461a9.837 9.837 0 01-.524-1.46l-1.24-3.776c-1.046-3.225-2.451-7.607-4.104-12.375-2.011-5.732-3.581-10.059-4.738-12.87a35.836 35.836 0 01-1.763-4.299c.137-.165 1.322.772 2.754 3.472a65.688 65.688 0 015.152 13.312z" fill="#7D7A7C"/><path d="M58.412 11.768a17.809 17.809 0 011.735 6.339 24.202 24.202 0 01-2.755-5.953 35.17 35.17 0 01-2.204-6.146 14.388 14.388 0 013.224 5.76z" fill="#F9E6CF"/><path opacity=".5" d="M56.263 48.753a30.31 30.31 0 013.802 4.161 9.452 9.452 0 011.294 1.984c-.137 0-2.617-2.535-6.005-4.988a16.859 16.859 0 00-4.821-2.563c-1.13-.303-1.791-.193-1.874-.413-.082-.22.386-.827 1.874-.882a8.76 8.76 0 015.73 2.7z" fill="#7D7A7C"/><path d="M52.626 46.713c1.516.634 2.37 1.654 2.204 1.874-.165.22-1.294-.33-2.617-.882-1.322-.55-2.424-.716-2.48-1.02-.054-.303 1.378-.66 2.893.028z" fill="#F9E6CF"/><path opacity=".5" d="M26.758 50.489A276.909 276.909 0 0141.028 56l4.298 1.846c.538.226 1.063.484 1.57.772a10.77 10.77 0 01-1.68-.496l-4.436-1.571c-3.719-1.268-8.87-3.004-14.49-4.713-6.832-2.057-12.002-3.5-15.51-4.326a46.368 46.368 0 01-5.317-1.186c0-.192 1.653-.578 5.207 0a81.581 81.581 0 0116.088 4.162z" fill="#7D7A7C"/><path d="M16.07 47.513a23.549 23.549 0 017.217 2.755 33.047 33.047 0 01-7.466-1.736 52.837 52.837 0 01-7.383-2.012 18.533 18.533 0 017.631.992z" fill="#F9E6CF"/><path opacity=".5" d="M26.648 56.111c5.069 1.295 9.642 2.756 12.948 3.803l3.94 1.323a9.66 9.66 0 011.404.551 8.042 8.042 0 01-1.487-.275l-3.94-.965c-3.388-.8-8.044-1.93-13.113-3.004-6.143-1.295-10.8-2.205-13.94-2.756a31.146 31.146 0 01-4.766-.716c0-.193 1.405-.69 4.573-.607a68.492 68.492 0 0114.38 2.646z" fill="#7D7A7C"/><path d="M17.033 54.32a17.93 17.93 0 016.53 1.846 27.209 27.209 0 01-6.695-.771 35.226 35.226 0 01-6.612-1.296 15.778 15.778 0 016.777.22z" fill="#F9E6CF"/><path opacity=".5" d="M37.254 46.3a119.534 119.534 0 019.257 5.043 68.185 68.185 0 012.754 1.709c.341.2.664.431.965.689a6.004 6.004 0 01-1.102-.441l-2.92-1.378c-2.452-1.157-5.84-2.756-9.56-4.272a103.535 103.535 0 00-10.33-3.72 17.022 17.022 0 01-3.61-.992c0-.166 1.13-.607 3.61-.303A36.545 36.545 0 0137.253 46.3z" fill="#7D7A7C"/><path d="M30.036 43.71a11.018 11.018 0 014.766 2.342 17.047 17.047 0 01-5.096-1.323 24.595 24.595 0 01-4.959-1.709 9.583 9.583 0 015.29.69z" fill="#F9E6CF"/><path opacity=".5" d="M98.853 71.214c-4.132-1.048-7.796-1.461-7.769-1.626a8.266 8.266 0 012.37-.166 37.238 37.238 0 015.675.331 11.79 11.79 0 015.785 2.177c1.129.965 1.267 1.82 1.074 1.902a41.132 41.132 0 00-7.135-2.618z" fill="#7D7A7C"/><path d="M102.682 72.096c-1.377-.552-2.562-1.048-2.479-1.35.083-.304 1.377-.249 2.755.357 1.377.607 2.452 1.681 2.204 1.902-.248.22-1.102-.386-2.48-.91z" fill="#F9E6CF"/><path opacity=".5" d="M83.591 40.237a178.562 178.562 0 01-2.755 9.425l-.992 2.756a5.342 5.342 0 01-.44 1.02c.016-.373.07-.742.165-1.103.138-.716.358-1.708.606-2.949.551-2.48 1.295-5.87 2.011-9.59.854-4.492 1.46-7.855 1.818-10.114a16.24 16.24 0 01.634-3.445c.22 0 .689.992.716 3.334a42.844 42.844 0 01-1.763 10.666z" fill="#7D7A7C"/><path d="M84.83 33.21a10.612 10.612 0 01-1.404 4.74 12.986 12.986 0 01.358-4.906 16.86 16.86 0 01.992-4.796 8.96 8.96 0 01.055 4.961z" fill="#F9E6CF"/><path opacity=".5" d="M107.173 38.418a1037.466 1037.466 0 00-8.403 7.772c-1.074.964-1.983 1.763-2.59 2.342a7.272 7.272 0 01-1.018.8c.221-.382.49-.733.798-1.048l2.342-2.59c2.039-2.178 4.794-5.154 7.824-8.268 7.356-7.772 11.708-11.217 11.984-11.024.275.193-2.645 4.189-10.937 12.016z" fill="#7D7A7C"/><path d="M112.875 32.438a16.113 16.113 0 01-4.49 3.665c-.22-.22 1.433-2.177 3.664-4.41a15.68 15.68 0 014.601-3.665 15.79 15.79 0 01-3.775 4.41z" fill="#F9E6CF"/><path opacity=".5" d="M112.38 47.76l-10.855 5.512-3.333 1.737c-.4.24-.824.434-1.267.578.352-.307.73-.583 1.13-.826l3.14-2.04c2.755-1.708 6.364-3.996 10.496-6.366a75.446 75.446 0 0111.708-5.705c2.755-1.02 4.353-1.102 4.38-.91.028.194-1.129.717-3.609 1.957l-11.79 6.063z" fill="#7D7A7C"/><path d="M120.121 43.544a20.386 20.386 0 01-5.703 2.315 16.043 16.043 0 015.234-3.28 14.438 14.438 0 015.841-1.984 23.399 23.399 0 01-5.372 2.949z" fill="#F9E6CF"/><path opacity=".5" d="M54.417 43.516a74.87 74.87 0 015.29 6.532 20.03 20.03 0 011.845 2.921 22.765 22.765 0 01-2.48-2.508c-1.46-1.543-3.498-3.693-5.812-5.897a72.783 72.783 0 00-6.53-5.678c-1.514-1.157-2.423-1.543-2.368-1.763.055-.22 1.047-.331 2.755.55a24.795 24.795 0 017.3 5.843z" fill="#7D7A7C"/><path d="M49.816 39.548c1.819 1.46 2.976 2.976 2.755 3.17-.22.192-1.68-.91-3.443-2.343-1.764-1.434-3.279-2.453-3.169-2.756.11-.303 2.04.413 3.857 1.929z" fill="#F9E6CF"/><path opacity=".5" d="M28.907 35.855a168.587 168.587 0 0111.57 7.579c1.46 1.02 2.755 1.874 3.416 2.508.435.291.84.623 1.212.992a8.44 8.44 0 01-1.377-.772l-3.609-2.177c-3.058-1.847-7.245-4.355-11.928-6.725a118.443 118.443 0 00-13.058-6.31 31.008 31.008 0 01-4.629-1.764c0-.193 1.543-.359 4.711.44a54.425 54.425 0 0113.692 6.229z" fill="#7D7A7C"/><path d="M19.87 31.5a18.017 18.017 0 016.006 3.528 30.073 30.073 0 01-6.418-2.535 47.974 47.974 0 01-6.309-2.756 15.01 15.01 0 016.722 1.763z" fill="#F9E6CF"/><path opacity=".5" d="M61.552 38.17a63.386 63.386 0 013.747 7.358 20.24 20.24 0 011.295 3.28 24.169 24.169 0 01-1.874-2.977 179.64 179.64 0 00-4.518-6.972 38.053 38.053 0 00-5.51-6.504c-1.432-1.213-2.369-1.516-2.341-1.736.027-.22 1.074-.414 2.92.578a19.068 19.068 0 016.281 6.973z" fill="#7D7A7C"/><path d="M57.53 33.43c1.625 1.736 2.507 3.445 2.259 3.61-.248.165-1.488-1.213-3.03-2.756-1.543-1.543-2.976-2.756-2.893-2.921.083-.166 2.176.386 3.664 2.067z" fill="#F9E6CF"/><path opacity=".5" d="M36.758 34.146c4.353 3.39 8.265 6.752 10.8 9.233a102.2 102.2 0 013.14 3.004c.411.351.781.749 1.102 1.185-.445-.29-.869-.613-1.267-.965l-3.416-2.756c-2.755-2.26-6.777-5.374-11.213-8.57a117.684 117.684 0 00-12.507-7.966c-2.948-1.543-4.6-1.874-4.573-2.122.028-.248 1.653-.358 4.793.827a53.803 53.803 0 0113.141 8.13z" fill="#7D7A7C"/><path d="M28.163 28.524a18.955 18.955 0 015.51 4.354 32.119 32.119 0 01-6.061-3.445c-3.333-2.039-6.198-3.196-6.116-3.555a14.35 14.35 0 016.667 2.646z" fill="#F9E6CF"/><path opacity=".5" d="M46.924 31.032c3.03 3.472 5.51 6.78 7.465 9.205l2.177 2.921c.285.345.526.725.716 1.13a9.048 9.048 0 01-.964-.937l-2.424-2.756c-2.067-2.232-4.877-5.346-8.072-8.626-3.83-3.886-6.805-6.78-8.87-8.488a32.813 32.813 0 01-3.197-2.756c0-.22 1.405 0 3.747 1.543a50.363 50.363 0 019.422 8.764z" fill="#7D7A7C"/><path d="M40.753 25.052a14.22 14.22 0 013.83 4.574 20.304 20.304 0 01-4.574-3.775 30.698 30.698 0 01-4.242-4.107c1.92.651 3.639 1.79 4.986 3.308z" fill="#F9E6CF"/><path opacity=".5" d="M71.222 19.567a205.292 205.292 0 011.625 13.284c.165 1.709.276 3.114.358 4.106a9.112 9.112 0 010 1.516c-.14-.489-.25-.986-.33-1.488-.166-.965-.414-2.343-.717-4.024-.55-3.417-1.377-8.075-2.341-13.118-1.24-6.118-2.314-10.693-3.168-13.78-.854-3.087-1.598-4.41-1.433-4.547.165-.138 1.323.91 2.535 3.83a63.102 63.102 0 013.47 14.221z" fill="#7D7A7C"/><path d="M68.99 10.114a18.39 18.39 0 01.965 6.67 25.054 25.054 0 01-1.984-6.394 43.278 43.278 0 01-1.57-6.477 13.783 13.783 0 012.59 6.201z" fill="#F9E6CF"/><path opacity=".5" d="M56.345 28a99.885 99.885 0 013.995 9.26c.468 1.213.826 2.178 1.074 2.756.155.353.266.723.331 1.103a3.745 3.745 0 01-.578-1.103l-1.433-2.756c-1.185-2.26-2.755-5.511-4.71-8.708a94.039 94.039 0 00-5.51-8.792c-1.323-1.874-2.232-2.59-2.15-2.756.083-.165 1.295 0 2.976 1.764A33.761 33.761 0 0156.345 28z" fill="#7D7A7C"/><path d="M52.489 21.855a10.392 10.392 0 012.148 4.547c-.275.165-1.515-1.681-3.057-3.941a23.098 23.098 0 01-2.755-4.162c.275-.33 2.12 1.213 3.664 3.556z" fill="#F9E6CF"/><path opacity=".5" d="M56.593 22.681c2.397 5.788 4.298 11.19 5.51 15.13l1.515 4.713c.192.578.348 1.167.469 1.764a11.026 11.026 0 01-.744-1.653l-1.79-4.575c-1.571-3.859-3.747-9.123-6.337-14.772a119.08 119.08 0 00-7.962-14.91c-2.066-3.142-3.581-4.327-3.47-4.492.11-.165 1.873.468 4.297 3.417a63.749 63.749 0 018.512 15.378z" fill="#7D7A7C"/><path d="M51.221 12.457a23.432 23.432 0 013.224 7.44 45.28 45.28 0 01-4.16-6.916c-2.15-3.859-4.298-6.697-4.133-6.89a17.224 17.224 0 015.07 6.366z" fill="#F9E6CF"/><path opacity=".5" d="M51.139 29.681c2.755 4.823 5.206 9.343 6.914 12.65A317.685 317.685 0 0060.01 46.3c.249.483.47.98.662 1.488a9.236 9.236 0 01-.91-1.35l-2.314-3.666c-1.928-3.17-4.573-7.551-7.576-12.209-3.636-5.76-6.474-9.838-8.485-12.594-2.01-2.756-3.25-3.969-3.14-4.162.11-.193 1.598.496 3.912 3.004a75.463 75.463 0 018.98 12.87z" fill="#7D7A7C"/><path d="M45.243 21.028a21.664 21.664 0 013.582 6.311 30.117 30.117 0 01-4.436-5.677 47.103 47.103 0 01-4.05-5.953 17.194 17.194 0 014.904 5.319z" fill="#F9E6CF"/><path opacity=".5" d="M45.712 73.088a68.066 68.066 0 017.383-1.103 18.77 18.77 0 013.113 0 18.8 18.8 0 01-2.92.552c-1.846.44-4.408 1.047-7.108 1.873-3.278.993-5.675 1.874-7.245 2.508-1.57.634-2.397 1.02-2.507.91-.11-.11.303-.882 1.735-1.957a22.751 22.751 0 017.549-2.783z" fill="#7D7A7C"/><path d="M40.615 74.824c1.956-.772 3.636-.965 3.72-.69.082.276-1.46.938-3.307 1.682-.964.358-1.763.744-2.424.91-.661.165-.992.385-1.102.248-.11-.138.193-.469.744-.91a13.23 13.23 0 012.37-1.24z" fill="#F9E6CF"/><path opacity=".5" d="M26.345 77.277a123.57 123.57 0 0112.81-2.508c1.68-.248 3.03-.414 3.967-.496a8.269 8.269 0 011.488 0l-1.433.386-3.884.881c-3.279.745-7.769 1.792-12.563 3.252a72.745 72.745 0 00-12.617 4.989c-2.755 1.488-3.691 2.618-3.884 2.48-.193-.138.44-1.516 2.948-3.39a38.561 38.561 0 0113.168-5.594z" fill="#7D7A7C"/><path d="M17.474 80.584a16.03 16.03 0 016.336-1.791 29.69 29.69 0 01-5.895 2.755c-3.196 1.461-5.703 3.004-5.95 2.811-.249-.192 2.12-2.287 5.51-3.775z" fill="#F9E6CF"/><path opacity=".5" d="M25.05 75.072a230.958 230.958 0 0114.683-1.847l4.519-.413h1.68a7.32 7.32 0 01-1.625.358l-4.463.772c-3.775.634-8.954 1.516-14.546 2.756-6.75 1.378-11.818 2.563-15.152 3.555-3.333.992-4.904 1.736-5.014 1.571-.11-.165 1.075-1.35 4.27-2.756a72.265 72.265 0 0115.648-3.996z" fill="#7D7A7C"/><path d="M14.72 77.525a22.032 22.032 0 017.355-1.103 32.771 32.771 0 01-7.19 2.178 53.304 53.304 0 01-7.19 1.763 18.013 18.013 0 017.024-2.838z" fill="#F9E6CF"/><path opacity=".5" d="M23.37 63c5.51.607 10.33 1.269 13.774 1.82l4.242.689a8.823 8.823 0 011.57.33 8.773 8.773 0 01-1.597 0l-4.298-.303-13.967-.992c-6.529-.413-11.46-.716-14.766-.827a29.213 29.213 0 01-5.014-.303c0-.193 1.433-.771 4.683-.992a92.666 92.666 0 0115.373.579z" fill="#7D7A7C"/><path d="M13.232 62.56a20.6 20.6 0 016.997.937c-2.335.354-4.706.4-7.052.138a35.801 35.801 0 01-6.998-.551 17.9 17.9 0 017.053-.524z" fill="#F9E6CF"/><path opacity=".5" d="M80.588 42.194a230.34 230.34 0 01-2.01 8.074 24.817 24.817 0 01-1.048 3.363 21.22 21.22 0 01.386-3.473c.303-2.15.744-5.07 1.212-8.268a53.984 53.984 0 012.26-11.575c.468-.027 1.074 3.748-.8 11.878z" fill="#7D7A7C"/><path d="M81.387 36.186c-.33 2.315-.909 4.106-1.212 4.05a9.374 9.374 0 010-4.188c.068-1.414.415-2.8 1.02-4.079.44.027.55 1.93.192 4.217z" fill="#F9E6CF"/><path opacity=".5" d="M76.98 28.331a355.46 355.46 0 01-1.103 13.45c-.192 1.735-.33 3.14-.44 4.105a5.735 5.735 0 01-.248 1.516 8.27 8.27 0 010-1.516v-4.133c0-3.5.165-8.268.275-13.477.166-6.284.248-11.024.33-14.248-.08-1.614.02-3.232.304-4.823.496-.11 1.818 5.677.882 19.126z" fill="#7D7A7C"/><path d="M77.034 18.575a19.71 19.71 0 01-.688 6.752 24.814 24.814 0 01-.386-6.752c-.129-2.26.01-4.525.413-6.752.652 2.187.876 4.48.661 6.752z" fill="#F9E6CF"/><path opacity=".5" d="M80.836 26.87c-.743 5.182-1.515 9.922-2.148 13.34-.249 1.708-.607 3.114-.607 4.078-.09.503-.21 1-.358 1.488a5.792 5.792 0 010-1.516c0-.992.22-2.397.386-4.133.358-3.473.826-8.268 1.35-13.422.606-6.283 1.074-11.024 1.405-14.22.032-1.628.254-3.247.661-4.823.468-.056 1.35 5.842-.689 19.209z" fill="#7D7A7C"/><path d="M81.69 17.114a20.487 20.487 0 01-1.184 6.697 22.994 22.994 0 01.137-6.78c.038-2.269.344-4.526.91-6.724.47 2.24.516 4.55.137 6.807z" fill="#F9E6CF"/><path opacity=".5" d="M88.412 41.753c-1.35 3.004-2.755 5.732-3.664 7.689a25.03 25.03 0 01-1.735 3.114 20.265 20.265 0 011.13-3.39 713.754 713.754 0 012.892-7.965 96.482 96.482 0 014.27-11.189c.55 0 .55 3.996-2.893 11.74z" fill="#7D7A7C"/><path d="M90.368 35.91c-.771 2.232-1.68 3.941-1.956 3.83a9.678 9.678 0 01.937-4.16c.771-2.206 1.405-3.97 1.708-3.914a7.72 7.72 0 01-.689 4.244z" fill="#F9E6CF"/><path opacity=".5" d="M82.682 96.568a112.845 112.845 0 00-1.79-7.551 24.808 24.808 0 01-.827-3.197s.193.276.468.8c.276.523.579 1.24.992 2.176a62.679 62.679 0 012.59 7.442c2.038 7.22.55 11.354 0 11.161-.551-.193-.166-.248-.193-.661a18.572 18.572 0 01-.193-1.957c-.181-2.756-.53-5.5-1.047-8.213z" fill="#7D7A7C"/><path d="M83.811 102.025a8.824 8.824 0 010-3.913c.304 0 .882 1.626 1.102 3.803.22 2.177-.192 3.996-.495 3.968a11.549 11.549 0 01-.607-3.858z" fill="#F9E6CF"/><path opacity=".5" d="M84.418 112.498l-3.279-13.036c-.413-1.681-.743-3.06-.964-4.024a10.606 10.606 0 01-.303-1.488c.239.448.432.92.579 1.406.303.937.771 2.287 1.35 3.913a372.552 372.552 0 014.022 12.843c3.691 12.098 4.022 18.85 3.498 18.85a16.259 16.259 0 01-1.35-4.326c-.771-3.087-1.928-7.634-3.553-14.138z" fill="#7D7A7C"/><path d="M87.007 121.868a24.404 24.404 0 01-1.13-6.67 19.84 19.84 0 012.177 6.422 18.164 18.164 0 01.882 6.724 27.91 27.91 0 01-1.929-6.476z" fill="#F9E6CF"/><path opacity=".5" d="M89.431 103.403c-1.597-4.051-3.195-7.717-4.352-10.417l-1.35-3.363a8.267 8.267 0 01-.44-1.185s.302.358.715 1.075l1.68 3.032a168.645 168.645 0 015.097 10.114 56.055 56.055 0 014.16 11.327c.606 2.756.413 4.134.22 4.134-.192 0-1.46-4.437-5.73-14.717z" fill="#7D7A7C"/><path d="M92.627 110.734a17.779 17.779 0 01-1.543-5.512 13.613 13.613 0 012.562 5.098 11.829 11.829 0 011.13 5.512 22.929 22.929 0 01-2.149-5.098z" fill="#F9E6CF"/><path opacity=".5" d="M99.073 94.942c-1.845-2.756-3.746-5.043-5.123-6.78a31.394 31.394 0 01-2.204-2.755s.303.165.77.579c.47.413 1.13 1.02 1.93 1.79a67.682 67.682 0 015.812 6.34 23.256 23.256 0 014.518 8.047c.524 2.067.248 3.197 0 3.197a67.881 67.881 0 00-5.703-10.418z" fill="#7D7A7C"/><path d="M102.517 99.93c-1.074-2.039-2.011-3.72-1.763-3.885.248-.166 1.57 1.267 2.755 3.39 1.184 2.122 1.405 4.161 1.102 4.216-.303.055-.992-1.681-2.094-3.72z" fill="#F9E6CF"/><path opacity=".5" d="M96.016 81.852c-1.819-1.571-3.61-2.922-4.904-3.886a13.118 13.118 0 01-2.094-1.654c.855.267 1.677.627 2.452 1.075a42.97 42.97 0 015.51 3.307 14.876 14.876 0 014.738 4.988c.717 1.461.606 2.37.413 2.398-.192.028-1.405-2.177-6.115-6.228z" fill="#7D7A7C"/><path d="M99.404 84.718c-1.13-1.268-2.066-2.315-1.873-2.563.193-.248 1.46.496 2.755 1.846s1.708 2.756 1.432 2.921c-.275.166-1.157-.964-2.314-2.204z" fill="#F9E6CF"/><path opacity=".5" d="M108.385 67.962c-3.223-.386-6.226-.524-8.43-.662a27.03 27.03 0 01-3.554-.248 19.52 19.52 0 013.554-.413c2.204-.138 5.207-.276 8.54-.166a22.748 22.748 0 019.009 1.792c1.956.91 2.479 2.122 2.314 2.204-.166.083-.827-.44-2.755-.936a51.314 51.314 0 00-8.678-1.571z" fill="#7D7A7C"/><path d="M114.336 68.568c-2.232-.496-4.105-.882-4.078-1.185a7.357 7.357 0 014.326.138c2.369.468 4.049 1.68 3.884 1.929a24.143 24.143 0 01-4.132-.882z" fill="#F9E6CF"/><path opacity=".5" d="M90.837 47.705c-1.57 2.178-3.03 4.162-4.133 5.512a16.734 16.734 0 01-1.846 2.26c.326-.964.76-1.889 1.295-2.756a185.68 185.68 0 013.444-6.035c3.278-5.512 5.51-8.048 5.978-7.827.468.22-.689 3.224-4.739 8.846z" fill="#7D7A7C"/><path d="M93.398 43.406c-1.046 1.599-2.093 2.756-2.341 2.618-.248-.138.385-1.598 1.432-3.197 1.047-1.598 2.094-2.756 2.342-2.618.248.138-.386 1.599-1.433 3.197z" fill="#F9E6CF"/><path opacity=".5" d="M113.068 50.764l-10.799 4.686-3.333 1.433a7.296 7.296 0 01-1.24.496s.386-.303 1.102-.744l3.168-1.792c2.755-1.46 6.364-3.445 10.496-5.512a66.403 66.403 0 0111.736-4.63c2.755-.716 4.298-.578 4.298-.358 0 .22-1.157.524-3.664 1.516s-6.337 2.618-11.764 4.905z" fill="#7D7A7C"/><path d="M120.81 47.264a19.7 19.7 0 01-5.51 1.764 15.229 15.229 0 015.262-2.756 12.774 12.774 0 015.812-1.378 25.273 25.273 0 01-5.564 2.37z" fill="#F9E6CF"/><path opacity=".5" d="M107.999 101.226c-3.333-3.886-6.529-7.331-8.843-9.839l-2.755-3.004a10.16 10.16 0 01-.964-1.13c.424.274.82.588 1.185.937l3.002 2.756c2.535 2.343 5.951 5.512 9.477 9.315a62.768 62.768 0 018.788 11.024c1.653 2.756 1.929 4.465 1.736 4.52-.193.055-.854-1.158-2.755-3.555-1.901-2.398-4.546-6.091-8.871-11.024z" fill="#7D7A7C"/><path d="M114.308 108.364a26.454 26.454 0 01-3.802-5.512 17.72 17.72 0 014.656 4.795 14.82 14.82 0 013.333 5.788 40.177 40.177 0 01-4.187-5.071z" fill="#F9E6CF"/><path opacity=".5" d="M98.963 107.895c-2.01-4.051-4.05-7.661-5.51-10.28l-1.818-3.114a6.227 6.227 0 01-.633-1.185c.325.304.611.647.854 1.02.523.689 1.295 1.654 2.149 2.921a116.198 116.198 0 016.336 9.949 43.195 43.195 0 014.738 11.658c.469 2.756.386 4.299 0 4.299a13.995 13.995 0 01-1.267-3.72 105.46 105.46 0 00-4.849-11.548z" fill="#7D7A7C"/><path d="M102.655 115.447a23.169 23.169 0 01-1.873-5.512 13.365 13.365 0 012.754 5.181c.474 1.324.86 2.677 1.158 4.051v1.791c0 .028-.386-.606-.717-1.598-.33-.992-.744-2.398-1.322-3.913z" fill="#F9E6CF"/><path opacity=".5" d="M97.558 61.54c-3.719.551-6.832 1.433-6.887 1.268a9.365 9.365 0 011.846-.992 34.996 34.996 0 014.849-1.736 10.023 10.023 0 015.509-.248c1.295.468 1.653 1.212 1.515 1.35-.137.138-.661 0-1.652 0a29.795 29.795 0 00-5.18.358z" fill="#7D7A7C"/><path d="M100.947 60.906c-1.295 0-2.424 0-2.48-.303-.055-.303 1.02-.744 2.452-.771 1.433-.028 2.755.578 2.452.854-.303.276-1.129.138-2.424.22z" fill="#F9E6CF"/><path opacity=".5" d="M100.892 37.563l-6.722 8.268-2.094 2.453c-.253.323-.54.618-.854.882.178-.316.391-.612.634-.882l1.818-2.756 6.06-8.819c5.758-8.268 9.34-11.96 9.67-11.713.331.248-1.845 4.217-8.512 12.567z" fill="#7D7A7C"/><path d="M105.355 31.252c-1.763 2.37-3.389 4.134-3.637 3.969a14.556 14.556 0 012.755-4.63c1.791-2.37 3.416-4.134 3.664-3.969a13.791 13.791 0 01-2.782 4.63z" fill="#F9E6CF"/><path opacity=".5" d="M93.178 31.473c-2.314 4.63-4.463 8.874-6.005 11.988-.8 1.516-1.46 2.756-1.901 3.638-.23.457-.487.899-.772 1.323a8.81 8.81 0 01.524-1.433 170.1 170.1 0 011.542-3.803c1.378-3.17 3.224-7.58 5.29-12.347 4.986-11.492 8.264-17.087 8.678-16.921.413.165-1.433 5.567-7.356 17.555z" fill="#7D7A7C"/><path d="M97.063 22.626a21.058 21.058 0 01-3.306 5.843 21.087 21.087 0 012.341-6.311 21.22 21.22 0 013.306-5.87 20.84 20.84 0 01-2.341 6.338z" fill="#F9E6CF"/><path opacity=".5" d="M105.162 76.615a56.154 56.154 0 00-6.612-2.756 20.301 20.301 0 01-2.755-1.047c.275-.03.552-.03.827 0 .74.072 1.475.183 2.204.33a40.602 40.602 0 017.025 2.013 15.154 15.154 0 016.446 4.492c.361.584.683 1.192.964 1.819v.771a33.072 33.072 0 00-8.099-5.622z" fill="#7D7A7C"/><path d="M109.625 78.958a18.4 18.4 0 01-1.984-1.488c-.551-.386-.826-.69-.771-.827.055-.138.496 0 1.129.165a16.14 16.14 0 012.287 1.295 10.06 10.06 0 011.791 1.93c.33.606.468 1.02.358 1.102-.11.083-.469-.165-.909-.606-.441-.441-1.213-.91-1.901-1.571z" fill="#F9E6CF"/><path opacity=".5" d="M118.247 74.99c-4.683-1.048-9.036-1.792-12.176-2.316l-3.774-.634a9.398 9.398 0 01-1.378-.303 9.153 9.153 0 011.405 0l3.802.276c3.223.275 7.631.689 12.397 1.516a45.07 45.07 0 0112.783 3.775c2.754 1.378 3.636 2.756 3.498 2.95-.137.192-1.157-.69-3.774-1.654a89.141 89.141 0 00-12.783-3.61z" fill="#7D7A7C"/><path d="M126.925 76.946a24.548 24.548 0 01-5.84-2.122 15.396 15.396 0 016.171 1.075 11.848 11.848 0 015.51 2.921 56.7 56.7 0 01-5.841-1.874z" fill="#F9E6CF"/><path opacity=".5" d="M91.277 27.945c-1.928 5.347-3.774 10.252-5.179 13.78a341.358 341.358 0 00-1.68 4.189 6.477 6.477 0 01-.717 1.516c.117-.54.264-1.075.441-1.599.303-1.047.772-2.508 1.323-4.327 1.156-3.637 2.754-8.626 4.407-14.027l4.739-14.855a22.992 22.992 0 011.845-4.96c.469.055-.137 6.448-5.179 20.283z" fill="#7D7A7C"/><path d="M94.363 17.72a24.062 24.062 0 01-2.755 6.89 28.95 28.95 0 011.735-7.192 31.481 31.481 0 012.507-6.945 21.312 21.312 0 01-1.487 7.248z" fill="#F9E6CF"/><path opacity=".5" d="M106.319 86.068c-2.755-1.681-5.097-3.114-6.915-4.134-1.015-.52-2-1.1-2.948-1.736.304.043.6.126.882.248.579.193 1.377.469 2.342.882a66.634 66.634 0 017.41 3.5 26.198 26.198 0 016.943 5.319c1.239 1.626 1.597 2.563 1.377 2.756-.22.193-2.424-2.398-9.091-6.835z" fill="#7D7A7C"/><path d="M111.14 89.21c-1.763-1.378-3.141-2.563-2.975-2.756.165-.193 1.845.524 3.636 1.93a18.116 18.116 0 012.066 2.066c.441.662.634 1.102.524 1.185-.111.083-.524-.165-1.047-.634-.524-.468-1.323-1.102-2.204-1.791z" fill="#F9E6CF"/><path opacity=".5" d="M124.501 62.064c-3.333 0-6.419.413-8.678.634a30.539 30.539 0 01-3.664.303c.293-.16.609-.271.937-.33l2.617-.635a78.355 78.355 0 018.705-1.433 25.227 25.227 0 019.422.386c2.121.634 2.948 1.543 2.755 1.681-.193.138-.992 0-2.893-.358a58.103 58.103 0 00-9.201-.248z" fill="#7D7A7C"/><path d="M130.755 61.76a11.814 11.814 0 01-4.353-.55 7.96 7.96 0 014.408-.524c2.479.138 4.408.965 4.297 1.268-1.453.104-2.914.04-4.352-.193z" fill="#F9E6CF"/><path opacity=".5" d="M120.617 55.67l-8.926 2.37-2.755.717c-.661.165-1.019.248-1.047.193a5.55 5.55 0 01.964-.469l2.617-1.075a177.49 177.49 0 018.706-3.141 49.213 49.213 0 019.614-2.343c2.232-.248 3.416 0 3.389.248a93.205 93.205 0 01-12.562 3.5z" fill="#7D7A7C"/><path d="M126.98 53.796c-1.477.55-3.055.775-4.628.662a9.89 9.89 0 014.353-1.71 8.757 8.757 0 014.683-.357 13.767 13.767 0 01-4.408 1.405z" fill="#F9E6CF"/><path opacity=".5" d="M111.774 38.666c-3.224 2.315-6.144 4.52-8.265 6.09l-2.535 1.902a4.35 4.35 0 01-.991.634c.235-.312.503-.599.799-.854l2.314-2.178a161.28 161.28 0 017.796-6.78 50.233 50.233 0 019.119-6.172c2.259-1.103 3.664-1.158 3.664-.965 0 .193-.882.661-2.755 1.984-1.874 1.323-4.959 3.363-9.146 6.339z" fill="#7D7A7C"/><path d="M117.669 34.174a14.186 14.186 0 01-4.518 2.535c-.165-.248 1.543-1.846 3.912-3.445a9.915 9.915 0 014.738-2.177c.138.276-1.79 1.488-4.132 3.087z" fill="#F9E6CF"/><path opacity=".5" d="M119.763 80.115c-3.306-1.323-6.447-2.287-8.761-2.976l-2.755-.8-.991-.358h1.046c.662 0 1.653.22 2.755.414a76.258 76.258 0 019.091 2.232 22.8 22.8 0 018.871 4.713c1.681 1.653 1.984 2.921 1.763 3.004-.22.082-.799-.69-2.424-1.874a39.193 39.193 0 00-8.595-4.355z" fill="#7D7A7C"/><path d="M125.878 82.623c-2.203-1.267-4.077-2.177-3.939-2.48a8.263 8.263 0 014.463 1.543c2.314 1.295 3.691 3.087 3.416 3.28a34.823 34.823 0 01-3.94-2.343z" fill="#F9E6CF"/><path opacity=".5" d="M106.705 95.88c-3.113-3.087-6.144-5.76-8.265-7.69l-2.755-2.315a5.837 5.837 0 01-.937-.882c.39.18.76.402 1.102.662.69.468 1.68 1.13 2.755 2.012 2.397 1.736 5.51 4.189 8.981 7.138a44.66 44.66 0 018.265 9.094c1.377 2.398 1.79 3.776 1.57 3.886-.22.11-.937-.882-2.479-2.949-1.543-2.067-4.188-4.988-8.237-8.957z" fill="#7D7A7C"/><path d="M112.572 101.584c-2.066-2.342-3.746-4.272-3.526-4.492.221-.22 2.232 1.406 4.325 3.803a28.12 28.12 0 012.425 3.307c.496.91.688 1.544.578 1.626-.11.083-.551-.413-1.184-1.185-.634-.771-1.598-1.874-2.618-3.059z" fill="#F9E6CF"/><path opacity=".5" d="M99.184 102.549c-1.929-3.28-3.802-6.256-5.152-8.434l-1.57-2.59a4.663 4.663 0 01-.524-.992c.285.24.536.518.744.827.469.578 1.13 1.377 1.901 2.37 1.57 2.04 3.692 4.85 5.84 8.019 5.51 7.607 6.447 12.678 6.006 12.76-.441.083-2.121-3.527-7.245-11.96z" fill="#7D7A7C"/><path d="M103.041 108.529a13.244 13.244 0 01-2.067-4.52c.248-.165 1.626 1.599 3.003 3.996a9.915 9.915 0 011.763 4.686c-.303.11-1.35-1.819-2.699-4.162z" fill="#F9E6CF"/><path opacity=".5" d="M116.65 88.025c-2.755-1.571-5.317-2.756-7.191-3.83a21.546 21.546 0 01-3.03-1.627c1.129.247 2.234.588 3.306 1.02 2.589.9 5.127 1.94 7.603 3.114a24.087 24.087 0 017.301 4.933c1.405 1.488 1.598 2.756 1.432 2.756-.165 0-.743-.551-2.176-1.654a67.601 67.601 0 00-7.245-4.712z" fill="#7D7A7C"/><path d="M121.829 90.836c-1.846-1.268-3.334-2.343-3.168-2.756.165-.413 1.873.413 3.774 1.736s3.03 2.894 2.755 3.087c-.276.193-1.543-.827-3.361-2.067z" fill="#F9E6CF"/><path opacity=".5" d="M109.459 43.489l-8.264 5.65-2.535 1.736c-.297.23-.62.425-.964.578.238-.293.506-.56.799-.799l2.287-2.04c1.928-1.68 4.655-3.94 7.713-6.338a51.954 51.954 0 018.981-5.815c2.149-1.075 3.444-1.24 3.499-1.047a121.141 121.141 0 01-11.516 8.075z" fill="#7D7A7C"/><path d="M115.217 39.245c-2.286 1.488-4.215 2.756-4.408 2.37-.193-.386 1.516-1.764 3.83-3.28a9.61 9.61 0 014.573-2.094 16.54 16.54 0 01-3.995 3.004z" fill="#F9E6CF"/><path opacity=".5" d="M60.863 118.781l3.637-11.492 1.13-3.528c.1-.445.267-.873.495-1.267a9.79 9.79 0 01-.22 1.35c-.193.854-.441 2.094-.772 3.61a771.445 771.445 0 01-2.754 11.741c-2.755 11.023-5.51 16.287-5.978 16.067-.469-.221.909-4.989 4.462-16.481z" fill="#7D7A7C"/><path d="M58.577 127.187a19.3 19.3 0 012.259-5.65 17.012 17.012 0 01-1.24 5.953 17.064 17.064 0 01-2.369 5.512 17.615 17.615 0 011.35-5.815z" fill="#F9E6CF"/><path opacity=".5" d="M89.321 23.095c-1.35 4.244-2.755 8.075-3.746 10.858l-1.268 3.307a7.27 7.27 0 01-.523 1.185 6.42 6.42 0 01.248-1.185l.909-3.417c.771-2.756 1.818-6.807 2.948-11.024 1.35-5.153 2.341-9.012 3.058-11.712.21-1.427.59-2.824 1.13-4.162.192 0 .495 1.268.192 3.913a71.21 71.21 0 01-2.948 12.237z" fill="#7D7A7C"/><path d="M91.277 15.02a13.977 13.977 0 01-1.983 5.512c.003-1.93.319-3.848.936-5.678a22.055 22.055 0 011.653-5.511 12.656 12.656 0 01-.606 5.677z" fill="#F9E6CF"/><path opacity=".5" d="M102.875 39.796c-2.121 2.177-4.077 4.189-5.51 5.512a22.53 22.53 0 01-2.424 2.26 18.632 18.632 0 011.929-2.756c1.24-1.626 3.002-3.803 4.931-6.174 4.656-5.732 7.658-8.267 7.961-7.882.303.386-1.57 3.363-6.887 9.04z" fill="#7D7A7C"/><path d="M106.374 35.386c-1.46 1.626-2.755 2.756-3.03 2.618-.276-.137.771-1.68 2.231-3.334 1.46-1.654 2.755-2.756 3.003-2.59.248.165-.771 1.68-2.204 3.306z" fill="#F9E6CF"/><path opacity=".5" d="M99.432 32.52l-6.695 9.59-2.093 2.922a7.334 7.334 0 01-.854 1.02 6.94 6.94 0 01.606-1.185l1.79-3.114c1.57-2.591 3.692-6.174 6.006-10.032 5.703-9.343 9.311-13.78 9.67-13.532.358.248-1.791 4.713-8.43 14.331z" fill="#7D7A7C"/><path d="M103.867 25.327a16.298 16.298 0 01-3.747 4.63 16.569 16.569 0 012.755-5.209 15.772 15.772 0 013.637-4.63 16.803 16.803 0 01-2.645 5.21z" fill="#F9E6CF"/></g></svg>