<svg width="256" height="261" fill="none" xmlns="http://www.w3.org/2000/svg"><g style="mix-blend-mode:screen" opacity=".8"><path opacity=".5" d="M139.697 128.192a8.401 8.401 0 014.811 0 19.386 19.386 0 01-3.89 2.509c-2.508 1.536-4.35 1.075-4.657.41-.308-.666.46-2.407 3.736-2.919z" fill="#7D7A7C"/><path d="M137.65 129.37c.818-.359 1.637 0 1.842.307.205.307-.307 1.178-1.126 1.536-.819.358-1.638 0-1.842-.307-.205-.307.255-1.229 1.126-1.536z" fill="#F9E6CF"/><path opacity=".5" d="M143.023 140.685a9.117 9.117 0 00.359-4.557c0-1.229-.87-1.843-.717-1.945.154-.103 1.024 0 1.843 1.382a9.226 9.226 0 011.228 5.427c-.307 5.12-2.713 7.014-3.327 6.758-.614-.256-.819-2.611.614-7.065z" fill="#7D7A7C"/><path d="M142.614 144.115c.358-1.28 1.126-2.253 1.586-2.15.461.102.717 1.331.308 2.713-.41 1.383-1.28 2.304-1.741 2.151-.46-.154-.46-1.383-.153-2.714z" fill="#F9E6CF"/><path opacity=".5" d="M132.532 115.239a7.481 7.481 0 012.354 4.249c.256 1.127.256 1.895 0 1.895s-1.74-2.714-4.043-3.84c-2.303-1.127-4.351.358-4.811-.461-.461-.819 0-1.024.665-1.843a5.103 5.103 0 012.15-.973 4.2 4.2 0 013.685.973z" fill="#7D7A7C"/><path d="M128.847 114.829c1.484 0 2.559.666 2.303 1.127-.256.46-1.075.665-1.945.819-.87.153-1.894 0-2.15 0s.205-1.536 1.792-1.946z" fill="#F9E6CF"/><path opacity=".5" d="M119.89 122.407a8.89 8.89 0 017.165 1.484 27.204 27.204 0 00-6.346 1.127c-3.224 1.792-5.118 3.328-5.681 2.867-.563-.461-.461-.973 0-2.099a6.811 6.811 0 014.862-3.379z" fill="#7D7A7C"/><path d="M116.615 124.557c1.228-.87 2.456-1.024 2.712-.461.256.563-.512 1.331-1.484 2.048-.972.717-1.894 1.229-2.252.922-.358-.307-.051-1.485 1.024-2.509z" fill="#F9E6CF"/><path opacity=".5" d="M112.367 139.354a27.966 27.966 0 019.468-3.584s-3.838 2.611-7.933 5.888c-5.118 3.942-6.96 6.092-7.626 5.888-.665-.205-.563-1.127.256-2.714a13.812 13.812 0 015.835-5.478z" fill="#7D7A7C"/><path d="M108.375 142.938c1.484-1.383 3.019-1.997 3.378-1.536.358.46-.666 1.689-1.996 2.969-1.331 1.28-2.457 2.253-2.969 1.946-.512-.307.205-1.946 1.587-3.379z" fill="#F9E6CF"/><path opacity=".5" d="M149.318 117.543a13.244 13.244 0 01-5.118 3.635 33.17 33.17 0 012.815-5.12c.87-1.638 1.177-2.611 1.433-2.611s0-.359 0-.666a.87.87 0 010-.665s.666-1.076 2.15 0a2.972 2.972 0 01.409 2.918 7.215 7.215 0 01-1.689 2.509z" fill="#7D7A7C"/><path d="M150.7 114.368c-.46 1.383-1.433 1.895-1.842 1.588-.41-.308-.358-1.28 0-2.1a.86.86 0 010-.512.408.408 0 010-.307v-.768a.657.657 0 01.794-.177.651.651 0 01.229.177c.24.272.431.584.563.922a4.4 4.4 0 01.256 1.177z" fill="#F9E6CF"/><path opacity=".5" d="M137.803 106.176a18.643 18.643 0 01-2.661 8.039c-.307 0 0-3.891 0-8.09a14.612 14.612 0 00-1.024-5.12 4.346 4.346 0 01-.665-1.126c-.256-.256-.359-.46-.307-.666.051-.204.87-.87 2.507 0a6.963 6.963 0 012.15 6.963z" fill="#7D7A7C"/><path d="M136.779 101.671c.717 1.792 0 3.174-.358 3.225-.358.052-.972-1.28-1.484-2.457-.512-1.178-.563-1.075-.614-1.587a1.071 1.071 0 01-.358-.973c0-.256.563-.256 1.228 0a3.938 3.938 0 011.586 1.792z" fill="#F9E6CF"/><path opacity=".5" d="M140.055 104.18c.768-4.25 1.484-8.141 1.996-11.06.182-1.562.507-3.105.972-4.607.279 1.553.365 3.135.256 4.71 0 2.918 0 6.963-.46 11.315-.87 10.496-3.071 15.667-3.788 15.36-.716-.307-1.074-4.813 1.024-15.718z" fill="#7D7A7C"/><path d="M139.083 112.218c.46-3.072 1.279-5.478 1.791-5.427.512.051.665 2.611 0 5.734-.666 3.123-1.382 5.479-1.894 5.12-.512-.358.103-2.406.103-5.427z" fill="#F9E6CF"/><path opacity=".5" d="M151.724 94.35a120.579 120.579 0 01-3.685 9.369 16.32 16.32 0 01-1.945 3.789c-.256 0 1.331-6.4 2.969-13.927a79.548 79.548 0 013.429-13.363c.307 0 1.177.973 1.33 3.43a31.503 31.503 0 01-2.098 10.701z" fill="#7D7A7C"/><path d="M153.055 87.13c-.512 2.765-1.536 5.12-2.099 4.71-.563-.409-.358-2.406 0-5.12.358-2.713 1.024-4.76 1.587-4.76s1.075 2.406.512 5.17z" fill="#F9E6CF"/><path opacity=".5" d="M111.497 132.391a21.427 21.427 0 019.673-1.383c0 .307-4.197 1.485-8.599 3.891-5.117 2.919-7.625 4.608-8.291 4.147-.665-.46-.256-1.228.819-2.508a12.847 12.847 0 016.398-4.147z" fill="#7D7A7C"/><path d="M107.249 135.155c1.586-1.177 3.224-1.331 3.429-.87.205.461-.921 1.485-2.354 2.509-1.433 1.024-2.764 1.689-3.174 1.228-.409-.46.461-1.791 2.099-2.867z" fill="#F9E6CF"/><path opacity=".5" d="M88.978 118.055c4.033.283 8.028.969 11.925 2.048 1.67.298 3.29.833 4.81 1.587 0 .358-7.728-1.127-16.786-.922a87.516 87.516 0 00-12.232 1.127c-2.713.409-4.146.716-4.3.358-.153-.358.666-1.485 3.378-2.56a27.52 27.52 0 0113.205-1.638z" fill="#7D7A7C"/><path d="M80.175 118.925c3.378-.563 6.141 0 6.141.41 0 .409-2.661 1.024-5.834 1.536-3.173.512-5.732 1.075-5.988.46-.256-.614 2.252-1.996 5.68-2.406z" fill="#F9E6CF"/><path opacity=".5" d="M169.79 107.456l-9.877 5.53a25.288 25.288 0 01-4.197 2.253 20.095 20.095 0 013.531-3.226 132.188 132.188 0 019.008-6.912 37.773 37.773 0 0110.85-5.53c2.764-.819 4.453 0 4.35 0-.102 0-3.941 2.356-13.665 7.885z" fill="#7D7A7C"/><path d="M176.546 103.156c-2.764 1.382-5.118 2.304-5.425 1.843-.307-.461 1.689-2.202 4.504-3.635 2.815-1.434 5.527-1.844 5.681-1.28.153.563-2.047 1.638-4.76 3.072z" fill="#F9E6CF"/><path opacity=".5" d="M170.251 122.304c-5.118 0-9.52.717-9.571.41a25.94 25.94 0 019.417-3.123 8.447 8.447 0 017.78 1.792c1.433 1.74.767 2.969.46 2.969s-.87-.614-1.893-1.075a16.17 16.17 0 00-6.193-.973z" fill="#7D7A7C"/><path d="M174.908 122.253c-1.586-.41-3.122-.819-3.122-1.331s1.587-1.126 3.634-.614c2.047.511 3.122 2.611 2.559 2.815-.563.205-1.587-.512-3.071-.87z" fill="#F9E6CF"/><path opacity=".5" d="M163.444 90.049c-2.457 3.686-5.118 6.963-6.602 9.318a21.98 21.98 0 01-3.071 3.686c.501-1.52 1.17-2.98 1.996-4.352 1.382-2.662 3.276-6.195 5.118-10.24 5.22-9.164 8.291-13.363 8.905-13.363.614 0 0 5.53-6.346 14.95z" fill="#7D7A7C"/><path d="M167.231 82.727c-1.535 2.765-3.224 4.762-3.685 4.454-.46-.307.41-2.662 1.945-5.427 1.536-2.764 2.969-4.761 3.48-4.556.512.204-.204 3.02-1.74 5.53z" fill="#F9E6CF"/><path opacity=".5" d="M134.886 76.686c.665 5.12.972 10.24 1.126 13.619a37.338 37.338 0 010 5.734 33.493 33.493 0 01-1.229-5.58c-.665-3.482-1.484-8.193-2.61-13.261-1.33-6.144-2.456-10.701-3.326-13.722-.87-3.02-1.485-4.403-1.178-4.659.308-.256 1.792.563 3.276 3.481a42.116 42.116 0 013.941 14.388z" fill="#7D7A7C"/><path d="M132.378 67.111c1.024 3.687 1.126 6.81.614 6.912-.512.103-1.535-2.816-2.508-6.349-.972-3.532-1.637-6.348-1.637-6.656 0-.307 2.559 2.407 3.531 6.093z" fill="#F9E6CF"/><path opacity=".5" d="M122.398 146.061a19.966 19.966 0 015.118-4.813 37.428 37.428 0 01-2.968 6.349 22.13 22.13 0 01-2.713 4.198c-.614.819-1.279 1.229-1.638 1.178-.358-.051-.716-.768-.563-2.048a10.236 10.236 0 012.764-4.864z" fill="#7D7A7C"/><path d="M120.811 149.338c.666-1.229 1.638-1.946 2.099-1.639.46.307.256 1.434-.358 2.611-.615 1.178-1.433 1.895-1.894 1.741-.461-.153-.563-1.485.153-2.713z" fill="#F9E6CF"/><path opacity=".5" d="M103.257 202.431l10.236-20.94 3.173-6.349c.373-.796.8-1.566 1.279-2.304a11.529 11.529 0 01-.819 2.509c-.563 1.587-1.433 3.891-2.507 6.656-2.201 5.581-5.118 13.26-8.598 21.555-8.138 20.121-13.717 29.9-14.382 29.593-.665-.307 1.945-9.574 11.618-30.72z" fill="#7D7A7C"/><path d="M97.064 217.945a34.146 34.146 0 015.579-10.24 35.856 35.856 0 01-3.788 11.059 34.72 34.72 0 01-5.527 10.24 34.977 34.977 0 013.736-11.059z" fill="#F9E6CF"/><path opacity=".5" d="M93.02 208.217l12.591-21.76c1.689-2.765 3.02-5.12 3.992-6.605a20.526 20.526 0 011.587-2.406c-.302.9-.679 1.774-1.126 2.611-.768 1.69-1.945 4.045-3.327 6.963l-11.31 22.477c-10.646 20.94-17.504 31.129-18.17 30.72-.665-.41 3.327-10.292 15.764-32z" fill="#7D7A7C"/><path d="M84.781 224.294a38.558 38.558 0 016.858-10.599 41.323 41.323 0 01-5.118 11.571 42.704 42.704 0 01-6.858 10.599 39.575 39.575 0 015.118-11.571z" fill="#F9E6CF"/><path opacity=".5" d="M82.324 212.057c4.606-6.861 8.854-13.158 12.079-17.664l3.838-5.12c.921-1.229 1.433-1.945 1.536-1.894a12.906 12.906 0 01-1.126 2.201l-3.225 5.683c-2.814 4.813-6.602 11.367-10.799 18.483-10.236 17.152-16.224 25.6-17.042 25.139-.82-.46 2.712-9.216 14.74-26.828z" fill="#7D7A7C"/><path d="M74.391 225.318a30.722 30.722 0 016.551-8.551 29.19 29.19 0 01-5.117 9.626 29.646 29.646 0 01-6.347 8.652 29.186 29.186 0 014.913-9.727z" fill="#F9E6CF"/><path opacity=".5" d="M87.903 194.956l9.57-12.646a45.203 45.203 0 014.3-5.12 41.46 41.46 0 01-3.276 5.837c-2.098 3.533-5.118 8.294-8.342 13.516-7.933 12.544-13.204 18.176-13.87 17.767-.665-.41 2.047-6.656 11.618-19.354z" fill="#7D7A7C"/><path d="M81.608 204.633c2.508-3.635 4.862-6.298 5.118-5.99.256.307-1.177 3.481-3.685 7.116s-4.862 6.298-5.118 5.991c-.256-.308 1.228-3.533 3.685-7.117z" fill="#F9E6CF"/><path opacity=".5" d="M90.001 167.257c5.118-4.147 9.673-7.782 13.153-10.24a45.682 45.682 0 015.784-4.044s-.41.563-1.28 1.433l-3.685 3.533-12.13 11.52c-11.412 10.701-17.247 15.974-17.86 15.36-.615-.615 3.019-6.912 16.018-17.562z" fill="#7D7A7C"/><path d="M81.3 175.808c3.379-3.175 6.45-5.376 6.859-5.12.41.256-2.15 3.379-5.374 6.809-3.224 3.431-6.142 5.632-6.551 5.12-.41-.512 1.689-3.584 5.067-6.809z" fill="#F9E6CF"/><path opacity=".5" d="M65.998 195.622a735.482 735.482 0 0118.373-16.23l5.733-4.864a14.346 14.346 0 012.252-1.69 12.501 12.501 0 01-1.894 2.099l-5.118 5.376a2572.036 2572.036 0 00-17.35 17.306c-8.12 8.089-14.347 14.097-18.68 18.022-4.248 3.942-6.5 5.888-6.756 5.632-.256-.256 5.271-9.267 23.44-25.651z" fill="#7D7A7C"/><path d="M53.51 208.217a37.476 37.476 0 019.52-7.885 39.307 39.307 0 01-8.138 9.267 43.95 43.95 0 01-9.263 8.09 35.523 35.523 0 017.881-9.472z" fill="#F9E6CF"/><path opacity=".5" d="M73.982 197.977l13.92-14.541 4.3-4.3a12.413 12.413 0 011.689-1.536 10.25 10.25 0 01-1.28 1.894l-3.787 4.762-12.59 15.359c-11.976 14.336-19.192 20.736-19.806 20.48-.615-.256 3.94-7.782 17.554-22.118z" fill="#7D7A7C"/><path d="M64.719 208.882c3.684-4.147 6.96-7.219 7.37-6.809a25.59 25.59 0 01-5.835 8.089c-3.685 4.148-6.96 7.168-7.37 6.81a25.607 25.607 0 015.835-8.09z" fill="#F9E6CF"/><path opacity=".5" d="M68.915 177.497c7.165-5.632 13.87-10.24 18.988-13.875l5.886-3.993a10.222 10.222 0 012.251-1.383 16.087 16.087 0 01-1.944 1.792l-5.425 4.557-17.862 14.848c-16.736 13.824-25.18 20.94-25.59 20.48-.41-.461 5.067-8.755 23.696-22.426z" fill="#7D7A7C"/><path d="M56.12 188.198a33.269 33.269 0 019.622-6.656c.358.461-3.429 4.045-8.342 8.192a41.492 41.492 0 01-9.315 6.963 31.276 31.276 0 018.035-8.499z" fill="#F9E6CF"/><path opacity=".5" d="M44.963 161.011c8.803-3.584 17.043-6.4 23.031-8.397l7.165-2.252a14 14 0 012.713-.666c-.81.447-1.647.84-2.508 1.178l-6.91 2.918c-5.834 2.457-13.818 5.785-22.416 9.728-10.236 4.761-18.066 8.55-23.082 11.315a65.349 65.349 0 01-7.626 4.249c-.307 0 1.177-2.611 5.835-5.99a116.03 116.03 0 0123.798-12.083z" fill="#7D7A7C"/><path d="M29.046 168.845a32.128 32.128 0 0111.516-4.404 49.847 49.847 0 01-10.594 6.196 59.66 59.66 0 01-11.004 5.375 28.717 28.717 0 0110.082-7.167z" fill="#F9E6CF"/><path opacity=".5" d="M48.444 169.664c7.062-3.379 13.716-6.195 18.526-8.192l5.58-2.304a11.348 11.348 0 012.2-.717s-.666.512-1.945 1.229l-5.374 2.918-17.76 9.779c-8.24 4.557-14.483 7.987-18.577 10.24a31.488 31.488 0 01-6.398 3.482c-.716-.768 5.323-7.885 23.747-16.435z" fill="#7D7A7C"/><path d="M35.7 177.036a24.794 24.794 0 019.366-4.096c.307.512-3.532 2.97-8.343 5.786a36.175 36.175 0 01-9.007 4.659c-.359-.461 3.122-3.533 7.984-6.349z" fill="#F9E6CF"/><path opacity=".5" d="M57.195 171.149a369.921 369.921 0 0114.945-7.322l4.657-2.048a9.141 9.141 0 011.791-.666 6.636 6.636 0 01-1.535 1.127l-4.35 2.713-14.177 8.602a133.025 133.025 0 01-20.472 11.571c-.512-.614 4.401-6.4 19.141-13.977z" fill="#7D7A7C"/><path d="M46.96 177.497c3.94-2.457 7.37-3.891 7.676-3.43.307.461-2.764 2.713-6.653 5.12a22.315 22.315 0 01-7.421 3.789c-.205-.359 2.61-2.919 6.397-5.479z" fill="#F9E6CF"/><path opacity=".5" d="M48.904 124.557c7.882 0 15.098.512 20.472 1.024l6.193.717c.76.07 1.514.207 2.251.409a11.66 11.66 0 01-2.303 0h-6.346c-5.118 0-12.437 0-20.216.512-7.036.32-14.045 1.09-20.983 2.304-4.607.922-6.807 1.946-7.063 1.536-.256-.409 1.382-2.048 5.937-3.686a68.051 68.051 0 0122.058-2.816z" fill="#7D7A7C"/><path d="M34.215 126.298a22.101 22.101 0 0110.236 0 33.39 33.39 0 01-9.98 1.945 60.98 60.98 0 01-9.98 1.434c-.256-.768 4.044-2.714 9.724-3.379z" fill="#F9E6CF"/><path opacity=".5" d="M62.313 133.415c5.63-.564 10.799-.768 14.535-.768a38.08 38.08 0 016.142.256 33.99 33.99 0 01-6.04.972c-3.684.512-8.802 1.229-14.227 2.253-6.603 1.28-11.516 2.458-14.689 3.43-3.173.973-4.709 1.792-5.118 1.485-.41-.307.665-1.843 3.736-3.532a42.332 42.332 0 0115.661-4.096z" fill="#7D7A7C"/><path d="M52.077 135.923c3.941-1.075 7.268-1.126 7.37-.614.102.512-3.07 1.485-6.858 2.56a24.808 24.808 0 01-7.012 1.638c-.358-.563 2.508-2.508 6.5-3.584z" fill="#F9E6CF"/><path opacity=".5" d="M104.434 114.164a68.207 68.207 0 018.598 2.457c1.202.37 2.353.886 3.429 1.536 0 .307-5.732-.717-12.437-1.28a78.92 78.92 0 01-12.18-.819c0-.41.563-1.178 2.712-1.946a21.128 21.128 0 019.878.052z" fill="#7D7A7C"/><path d="M98.139 114.061c2.508 0 4.452.717 4.401 1.229-.051.512-2.047.717-4.401.768-2.354.051-4.248 0-4.402-.563-.153-.563 1.587-1.434 4.402-1.434z" fill="#F9E6CF"/><path opacity=".5" d="M86.316 98.19a75.403 75.403 0 0111.26 4.812c1.542.728 3 1.621 4.35 2.662a30.243 30.243 0 01-4.862-1.484 112.464 112.464 0 00-11.413-3.482 94.563 94.563 0 00-16.48-1.638s0-.512.717-1.024a16.78 16.78 0 013.02-1.178 25.99 25.99 0 0113.408 1.331z" fill="#7D7A7C"/><path d="M77.667 97.063c3.43.307 6.04 1.28 5.937 1.894-.103.615-2.815.359-6.04 0H73.42c-1.075 0-1.74 0-1.791-.41-.051-.409.563-.614 1.638-1.023a17.6 17.6 0 014.401-.461z" fill="#F9E6CF"/><path opacity=".5" d="M71.884 104.231a109.106 109.106 0 0113.818 4.557 35.687 35.687 0 015.476 2.56c-2-.282-3.97-.745-5.885-1.383-3.583-.87-8.547-2.201-13.972-3.021a94.397 94.397 0 00-14.74-1.433 16.152 16.152 0 01-5.118 0c0-.461 1.075-1.434 4.504-2.407a36.835 36.835 0 0115.917 1.127z" fill="#7D7A7C"/><path d="M61.34 103.207c4.095 0 7.217 1.28 7.115 1.792-.103.512-3.276.358-7.166 0h-5.117c-1.433 0-2.048 0-2.15-.307-.102-.308.717-.717 1.996-1.127a25.111 25.111 0 015.323-.358z" fill="#F9E6CF"/><path opacity=".5" d="M42.302 110.375c8.803 1.433 16.838 3.174 22.57 4.608 2.917.665 5.118 1.28 6.858 1.741.867.169 1.709.444 2.508.819a15.476 15.476 0 01-2.61-.307l-6.96-1.178c-5.886-.87-13.922-2.099-22.724-3.021a230.847 230.847 0 00-24.055-1.638 76.081 76.081 0 01-8.188 0c0-.307 2.098-1.792 7.472-2.509a90.093 90.093 0 0125.129 1.485z" fill="#7D7A7C"/><path d="M25.617 109.248a28.101 28.101 0 0111.465 1.69 42.378 42.378 0 01-11.516 0 75.384 75.384 0 01-11.464 0 21.593 21.593 0 0111.515-1.69z" fill="#F9E6CF"/><path opacity=".5" d="M121.118 107.2a12.857 12.857 0 014.095 4.096c.819 1.229 1.126 2.1 1.023 2.151a41.817 41.817 0 00-6.295-3.789 10.634 10.634 0 00-4.555-.563c-1.177 0-1.893 0-2.098-.256-.205-.256 0-1.229 1.177-1.946a6.147 6.147 0 016.653.307z" fill="#7D7A7C"/><path d="M116.717 106.637c1.791 0 2.917.871 2.713 1.28-.205.41-1.331.512-2.611.666-1.279.153-2.405 0-2.661-.307-.256-.308.819-1.536 2.559-1.639z" fill="#F9E6CF"/><path opacity=".5" d="M121.886 90.049a66.181 66.181 0 014.76 11.264 18.163 18.163 0 011.228 5.119c-.307 0-3.224-7.168-8.342-14.745a36.446 36.446 0 00-7.984-8.96c-2.098-1.587-3.532-1.946-3.48-2.355.051-.41 1.484-.973 4.35 0a20.478 20.478 0 019.468 9.677z" fill="#7D7A7C"/><path d="M116.052 83.24c2.508 2.406 3.633 5.12 3.224 5.12-.409 0-2.303-1.69-4.606-3.892s-4.504-3.43-4.35-3.943c.153-.512 3.173.205 5.732 2.714z" fill="#F9E6CF"/><path opacity=".5" d="M171.428 140.992c-6.909-4.096-13.665-6.041-13.563-6.4 1.521.018 3.034.225 4.504.615a48.694 48.694 0 0110.236 3.379 17.757 17.757 0 018.854 7.884c.405.949.681 1.948.819 2.97 0 .768 0 1.126-.409 1.178-.41.051-.922-.922-2.355-2.714a30.708 30.708 0 00-8.086-6.912z" fill="#7D7A7C"/><path d="M177.621 144.986c-1.024-.973-1.996-1.844-2.61-2.56-.615-.717-1.075-1.178-.922-1.434.154-.256.819 0 1.74.256a19.252 19.252 0 013.174 2.304c2.251 2.304 2.814 5.12 2.303 5.12-.512 0-1.74-1.894-3.685-3.686z" fill="#F9E6CF"/><path opacity=".5" d="M155.614 147.341a21.314 21.314 0 00-1.996-6.656 9.423 9.423 0 014.708 6.093c1.535 5.12-.665 7.731-1.279 7.526-.615-.205-1.229-2.406-1.433-6.963z" fill="#7D7A7C"/><path d="M156.33 150.72c0-1.331 0-2.458.819-2.56.819-.102 1.228 1.075 1.177 2.56-.051 1.485-.614 2.611-1.177 2.56-.563-.051-.819-1.382-.819-2.56z" fill="#F9E6CF"/><path opacity=".5" d="M145.941 166.643a79.565 79.565 0 00-1.741-13.568 11.512 11.512 0 011.894 3.686 36.498 36.498 0 012.508 9.78 22.436 22.436 0 01-1.331 10.649c-.921 2.304-1.945 3.174-2.252 3.072-.307-.102.461-4.25.922-13.619z" fill="#7D7A7C"/><path d="M145.941 173.504c.358-2.611.87-4.711 1.381-4.711.512 0 .973 2.253.563 5.12-.409 2.867-1.535 4.864-2.098 4.659-.563-.204-.409-2.508.154-5.068z" fill="#F9E6CF"/><path opacity=".5" d="M112.879 194.239l7.421-16.435c1.023-2.048 1.842-3.788 2.405-5.12.563-1.331.921-1.843 1.024-1.791a13.88 13.88 0 01-.512 1.996l-1.74 5.12c-1.587 4.455-3.736 10.24-6.039 16.998-5.784 15.872-10.236 23.501-10.851 23.194-.614-.307.973-7.527 8.292-23.962z" fill="#7D7A7C"/><path d="M108.375 206.425a21.798 21.798 0 014.299-7.987 20.79 20.79 0 01-2.457 8.755 20.99 20.99 0 01-4.299 7.987 21.917 21.917 0 012.457-8.755z" fill="#F9E6CF"/><path opacity=".5" d="M127.618 197.158c1.024-5.786 1.894-11.162 2.559-15.104a43.135 43.135 0 011.331-6.298 48.913 48.913 0 010 6.452c-.256 3.942-.512 9.369-1.075 15.359-1.177 14.336-4.094 21.504-4.862 21.248-.768-.256-.409-6.656 2.047-21.657z" fill="#7D7A7C"/><path d="M126.492 208.217c.717-4.147 1.485-7.526 2.048-7.475a14.804 14.804 0 010 7.782c-.666 4.147-1.638 7.475-2.252 7.373a17.407 17.407 0 01.204-7.68z" fill="#F9E6CF"/><path opacity=".5" d="M133.453 219.942c.614-9.677 1.228-18.535 1.637-25.037.256-3.226.461-5.888.563-7.731.008-.95.128-1.895.359-2.816.052.955.052 1.912 0 2.867v32.819c-.359 23.552-3.429 35.84-4.248 35.481-.819-.358.051-10.598 1.689-35.583z" fill="#7D7A7C"/><path d="M132.787 238.066a43.464 43.464 0 011.741-12.493c.783 4.156.869 8.412.255 12.596a37.058 37.058 0 01-2.098 12.492 46.119 46.119 0 01.102-12.595z" fill="#F9E6CF"/><path opacity=".5" d="M138.724 192.857c.768-5.683 1.331-10.957 1.536-14.848.065-2.108.253-4.211.563-6.297.159.551.262 1.117.307 1.689 0 1.075.256 2.663.358 4.608.342 5.114.342 10.246 0 15.36a45.082 45.082 0 01-3.685 15.821 35.883 35.883 0 01-2.303 3.532c-.614.717-1.126.922-1.28.82-.153-.103 2.201-5.888 4.504-20.685z" fill="#7D7A7C"/><path d="M137.24 203.609a19.57 19.57 0 012.354-7.117c.614 0 .512 3.482-.46 7.629a33.208 33.208 0 01-1.945 5.12c-.768 1.229-1.382 1.894-1.587 1.741-.204-.154 0-.973.256-2.253.256-1.28.717-3.174 1.382-5.12z" fill="#F9E6CF"/><path opacity=".5" d="M155.921 166.694c-.922-4.557-1.945-8.704-2.713-11.724l-1.024-3.533a5.165 5.165 0 010-1.383 21.805 21.805 0 012.457 4.506 105.701 105.701 0 014.197 11.469c3.224 10.956 2.815 17.049 2.149 17.151-.665.103-2.866-4.71-5.066-16.486z" fill="#7D7A7C"/><path d="M158.172 175.091c-.716-3.277-.818-5.99-.307-6.144.512-.154 1.536 2.458 2.252 5.734.717 3.277.666 6.093 0 6.144-.665.051-1.228-2.457-1.945-5.734z" fill="#F9E6CF"/><path opacity=".5" d="M147.067 223.577c-.359-7.373-.717-14.234-.973-19.251 0-2.458 0-4.506-.256-5.888a12.087 12.087 0 010-2.202c.282.668.455 1.377.512 2.099 0 1.434.563 3.431.972 5.888.768 5.12 1.741 11.725 2.508 19.149 2.047 18.073 0 27.648-.972 27.494-.973-.154-.87-8.192-1.791-27.289z" fill="#7D7A7C"/><path d="M148.192 237.349a25.626 25.626 0 01.563-9.676 22.103 22.103 0 011.433 9.625 19.662 19.662 0 01-.87 9.677 30.295 30.295 0 01-1.126-9.626z" fill="#F9E6CF"/><path opacity=".5" d="M113.851 39.259c2.661 9.01 4.76 17.356 6.193 23.45.716 3.02 1.279 5.529 1.637 7.27.266.881.421 1.793.461 2.713a18.258 18.258 0 01-.972-2.714l-2.303-7.014c-1.945-5.99-4.555-14.13-7.626-22.988-3.736-10.65-6.654-18.688-8.803-23.91a66.433 66.433 0 01-3.276-7.988c.256-.307 2.457 1.434 5.118 6.452a122.05 122.05 0 019.571 24.729z" fill="#7D7A7C"/><path d="M107.658 22.619a33.086 33.086 0 013.225 11.776 44.948 44.948 0 01-5.118-11.06 65.342 65.342 0 01-4.095-11.417 26.73 26.73 0 015.988 10.701z" fill="#F9E6CF"/><path opacity=".5" d="M103.666 91.329a56.32 56.32 0 017.063 7.73 17.57 17.57 0 012.405 3.687c-.255 0-4.862-4.71-11.157-9.267a31.314 31.314 0 00-8.956-4.762c-2.099-.563-3.327-.358-3.48-.768-.154-.41.716-1.535 3.48-1.638a16.27 16.27 0 0110.645 5.018z" fill="#7D7A7C"/><path d="M96.91 87.54c2.815 1.177 4.402 3.072 4.095 3.481-.307.41-2.405-.614-4.862-1.638-2.457-1.024-4.504-1.331-4.606-1.894-.103-.564 2.559-1.23 5.373.05z" fill="#F9E6CF"/><path opacity=".5" d="M48.853 94.554c10.236 3.635 19.704 7.373 26.51 10.24l7.985 3.43c1 .42 1.974.899 2.917 1.434a19.967 19.967 0 01-3.122-.922l-8.24-2.918c-6.909-2.355-16.48-5.581-26.92-8.755-12.693-3.823-22.297-6.502-28.814-8.038a86.177 86.177 0 01-9.878-2.202c0-.358 3.07-1.075 9.673 0a151.54 151.54 0 0129.889 7.731z" fill="#7D7A7C"/><path d="M28.995 89.025a43.75 43.75 0 0113.41 5.12 61.4 61.4 0 01-13.87-3.226 98.184 98.184 0 01-13.716-3.738 34.431 34.431 0 0114.176 1.844z" fill="#F9E6CF"/><path opacity=".5" d="M48.648 104.999c9.417 2.406 17.913 5.12 24.055 7.065l7.318 2.458c.896.273 1.768.615 2.61 1.024a15 15 0 01-2.763-.512l-7.319-1.792c-6.295-1.485-14.944-3.584-24.362-5.581-11.412-2.406-20.062-4.096-25.896-5.12a57.787 57.787 0 01-8.854-1.331c0-.358 2.61-1.28 8.495-1.126 9.055.68 18.012 2.328 26.716 4.915z" fill="#7D7A7C"/><path d="M30.787 101.671a33.31 33.31 0 0112.129 3.43 50.532 50.532 0 01-12.437-1.433 65.436 65.436 0 01-12.283-2.407 29.326 29.326 0 0112.59.41z" fill="#F9E6CF"/><path opacity=".5" d="M68.352 86.772C75.16 90.1 81.25 93.53 85.55 96.142c2.15 1.28 3.89 2.355 5.118 3.174a12.46 12.46 0 011.79 1.28 11.137 11.137 0 01-2.046-.82l-5.425-2.56c-4.555-2.15-10.85-5.12-17.76-7.935a192.403 192.403 0 00-19.192-6.912 31.61 31.61 0 01-6.704-1.844c0-.307 2.098-1.126 6.704-.563a67.897 67.897 0 0120.318 6.81z" fill="#7D7A7C"/><path d="M54.943 81.96a20.469 20.469 0 018.854 4.351 31.671 31.671 0 01-9.468-2.458 45.689 45.689 0 01-9.212-3.174 17.804 17.804 0 019.826 1.28z" fill="#F9E6CF"/><path opacity=".5" d="M182.79 133.056c-7.677-1.945-14.484-2.713-14.433-3.021a15.385 15.385 0 014.402-.307 69.09 69.09 0 0110.543.615 21.899 21.899 0 0110.747 4.044c2.099 1.792 2.355 3.38 1.996 3.533a76.432 76.432 0 00-13.255-4.864z" fill="#7D7A7C"/><path d="M189.904 134.695c-2.559-1.024-4.76-1.946-4.606-2.509.153-.563 2.559-.461 5.118.665 2.559 1.127 4.555 3.124 4.094 3.533-.461.41-2.047-.717-4.606-1.689z" fill="#F9E6CF"/><path opacity=".5" d="M154.436 75.508a331.43 331.43 0 01-5.118 17.51l-1.842 5.12a9.923 9.923 0 01-.819 1.895 9.71 9.71 0 01.307-2.048c.256-1.332.666-3.175 1.126-5.479 1.024-4.608 2.406-10.905 3.736-17.817 1.587-8.346 2.713-14.592 3.378-18.79.161-2.17.555-4.316 1.177-6.4.41 0 1.28 1.843 1.331 6.195a79.602 79.602 0 01-3.276 19.814z" fill="#7D7A7C"/><path d="M156.739 62.452a19.71 19.71 0 01-2.61 8.806 24.108 24.108 0 01.666-9.113 31.288 31.288 0 011.842-8.909c.901 3.001.936 6.196.102 9.216z" fill="#F9E6CF"/><path opacity=".5" d="M198.246 72.129a1948.315 1948.315 0 00-15.61 14.438c-1.996 1.792-3.685 3.277-4.81 4.352-.586.55-1.22 1.047-1.894 1.485a9.833 9.833 0 011.484-1.946l4.35-4.813c3.788-4.044 8.906-9.574 14.535-15.36 13.665-14.438 21.752-20.837 22.263-20.48.512.36-4.913 7.783-20.318 22.324z" fill="#7D7A7C"/><path d="M208.84 61.019a29.937 29.937 0 01-8.342 6.81c-.409-.41 2.661-4.046 6.807-8.193a29.121 29.121 0 018.547-6.81 29.337 29.337 0 01-7.012 8.193z" fill="#F9E6CF"/><path opacity=".5" d="M207.919 89.485l-20.165 10.24-6.192 3.226c-.742.445-1.532.806-2.355 1.075a15.41 15.41 0 012.099-1.536l5.834-3.789c5.118-3.174 11.823-7.424 19.5-11.827a140.174 140.174 0 0121.751-10.598c5.118-1.894 8.086-2.048 8.137-1.69.052.359-2.098 1.332-6.704 3.636l-21.905 11.263z" fill="#7D7A7C"/><path d="M222.301 81.652a37.869 37.869 0 01-10.595 4.3 29.788 29.788 0 019.724-6.092 26.815 26.815 0 0110.851-3.686 43.475 43.475 0 01-9.98 5.478z" fill="#F9E6CF"/><path opacity=".5" d="M100.237 81.6c3.5 3.858 6.781 7.91 9.827 12.135a37.271 37.271 0 013.429 5.427 42.437 42.437 0 01-4.606-4.659c-2.713-2.867-6.5-6.86-10.8-10.957A135.236 135.236 0 0085.959 73c-2.815-2.15-4.504-2.867-4.401-3.276.102-.41 1.944-.615 5.118 1.023a46.063 46.063 0 0113.562 10.855z" fill="#7D7A7C"/><path d="M91.69 74.228c3.378 2.714 5.528 5.53 5.118 5.888-.41.358-3.122-1.69-6.397-4.352-3.276-2.662-6.09-4.557-5.886-5.12.205-.563 3.787.768 7.165 3.584z" fill="#F9E6CF"/><path opacity=".5" d="M52.845 67.367c8.598 5.12 16.121 10.24 21.495 14.08 2.713 1.894 5.118 3.482 6.347 4.66a15.354 15.354 0 012.252 1.843 15.666 15.666 0 01-2.56-1.434l-6.704-4.045c-5.68-3.43-13.46-8.09-22.16-12.493a220.032 220.032 0 00-24.26-11.724 57.616 57.616 0 01-8.598-3.277c0-.358 2.866-.666 8.752.82a101.11 101.11 0 0125.436 11.57z" fill="#7D7A7C"/><path d="M36.058 59.278a33.47 33.47 0 0111.157 6.553 55.878 55.878 0 01-11.925-4.71 89.138 89.138 0 01-11.72-5.12c4.362.1 8.639 1.223 12.488 3.277z" fill="#F9E6CF"/><path opacity=".5" d="M113.493 71.668c2.614 4.4 4.94 8.967 6.96 13.67a37.55 37.55 0 012.406 6.093 44.975 44.975 0 01-3.481-5.53c-2.098-3.43-5.118-8.14-8.393-12.953a70.687 70.687 0 00-10.236-12.083c-2.661-2.253-4.401-2.816-4.35-3.226.05-.41 1.996-.768 5.425 1.076a35.429 35.429 0 0111.669 12.953z" fill="#7D7A7C"/><path d="M106.021 62.862c3.019 3.225 4.657 6.4 4.196 6.707-.46.307-2.763-2.253-5.63-5.12-2.866-2.867-5.527-5.12-5.373-5.427.153-.307 4.043.717 6.807 3.84z" fill="#F9E6CF"/><path opacity=".5" d="M67.431 64.193c8.087 6.297 15.354 12.544 20.063 17.152a192.468 192.468 0 015.834 5.58 13.16 13.16 0 012.047 2.202 20.462 20.462 0 01-2.354-1.792l-6.346-5.12c-5.118-4.198-12.59-9.984-20.83-15.923a218.626 218.626 0 00-23.236-14.797c-5.476-2.867-8.547-3.481-8.496-3.942.051-.46 3.071-.665 8.905 1.536a99.946 99.946 0 0124.413 15.104z" fill="#7D7A7C"/><path d="M51.463 53.748a35.213 35.213 0 0110.236 8.09 59.664 59.664 0 01-11.26-6.4c-6.192-3.789-11.515-5.94-11.361-6.605a26.658 26.658 0 0112.385 4.915z" fill="#F9E6CF"/><path opacity=".5" d="M86.316 58.407c5.63 6.452 10.236 12.595 13.87 17.101l4.043 5.427c.53.641.977 1.346 1.331 2.1a16.854 16.854 0 01-1.791-1.742l-4.504-5.12c-3.839-4.147-9.059-9.932-14.996-16.025-7.114-7.219-12.641-12.595-16.48-15.77a60.954 60.954 0 01-5.937-5.12c0-.409 2.61 0 6.961 2.868a93.57 93.57 0 0117.503 16.281z" fill="#7D7A7C"/><path d="M74.852 47.297a26.417 26.417 0 017.114 8.5 37.721 37.721 0 01-8.496-7.015 57.03 57.03 0 01-7.881-7.629 21.699 21.699 0 019.263 6.144z" fill="#F9E6CF"/><path opacity=".5" d="M131.457 37.108a381.65 381.65 0 013.019 24.679c.307 3.174.512 5.785.666 7.628.078.937.078 1.88 0 2.816a23.118 23.118 0 01-.614-2.764 1063.2 1063.2 0 00-1.331-7.476c-1.024-6.348-2.559-15.001-4.35-24.37-2.303-11.367-4.299-19.866-5.886-25.6-1.587-5.735-2.968-8.192-2.661-8.448.307-.256 2.456 1.69 4.708 7.117a117.267 117.267 0 016.449 26.418z" fill="#7D7A7C"/><path d="M127.311 19.547a34.15 34.15 0 011.791 12.39 46.53 46.53 0 01-3.684-11.878A80.338 80.338 0 01122.5 8.027a25.602 25.602 0 014.811 11.52z" fill="#F9E6CF"/><path opacity=".5" d="M103.82 52.775c3.173 6.452 5.681 12.493 7.421 17.203.87 2.253 1.535 4.045 1.996 5.12a8.77 8.77 0 01.614 2.048 6.972 6.972 0 01-1.075-2.048l-2.661-5.12c-2.201-4.198-5.118-10.24-8.752-16.179a174.663 174.663 0 00-10.236-16.332c-2.456-3.482-4.145-4.813-3.992-5.12.154-.307 2.406 0 5.528 3.277a62.739 62.739 0 0111.157 17.151z" fill="#7D7A7C"/><path d="M96.655 41.358a19.306 19.306 0 013.992 8.448c-.512.307-2.815-3.123-5.681-7.322a42.908 42.908 0 01-5.118-7.73c.512-.615 3.94 2.252 6.807 6.604z" fill="#F9E6CF"/><path opacity=".5" d="M104.28 42.894c4.453 10.752 7.984 20.787 10.236 28.108l2.815 8.755a27.88 27.88 0 01.87 3.277 20.552 20.552 0 01-1.382-3.072l-3.326-8.499c-2.918-7.168-6.961-16.947-11.772-27.443a221.165 221.165 0 00-14.79-27.699c-3.839-5.836-6.654-8.038-6.45-8.345.206-.307 3.481.87 7.985 6.349a118.425 118.425 0 0115.814 28.569z" fill="#7D7A7C"/><path d="M94.3 23.899a43.517 43.517 0 015.988 13.824 84.15 84.15 0 01-7.728-12.851c-3.992-7.168-7.984-12.442-7.677-12.8A31.998 31.998 0 0194.3 23.899z" fill="#F9E6CF"/><path opacity=".5" d="M94.147 55.899c5.118 8.96 9.673 17.356 12.846 23.5 1.484 3.072 2.764 5.632 3.634 7.373.461.897.871 1.82 1.228 2.765a17.13 17.13 0 01-1.689-2.51l-4.299-6.809c-3.583-5.888-8.496-14.028-14.074-22.681-6.756-10.7-12.028-18.278-15.764-23.398-3.736-5.12-6.039-7.373-5.834-7.731.205-.359 2.968.921 7.267 5.58a140.177 140.177 0 0116.685 23.91z" fill="#7D7A7C"/><path d="M83.194 39.822a40.245 40.245 0 016.654 11.725A55.957 55.957 0 0181.608 41a87.5 87.5 0 01-7.524-11.06 31.944 31.944 0 019.11 9.882z" fill="#F9E6CF"/><path opacity=".5" d="M84.064 136.538c4.532-.933 9.11-1.617 13.717-2.048 1.924-.16 3.858-.16 5.783 0a34.974 34.974 0 01-5.425 1.024c-3.43.819-8.189 1.945-13.204 3.481-6.09 1.843-10.544 3.482-13.46 4.659-2.918 1.178-4.453 1.895-4.658 1.69-.205-.205.563-1.638 3.224-3.635a42.271 42.271 0 0114.023-5.171z" fill="#7D7A7C"/><path d="M74.596 139.763c3.634-1.433 6.756-1.792 6.91-1.28.153.512-2.713 1.741-6.142 3.123-1.791.666-3.276 1.383-4.504 1.69-1.228.307-1.842.717-2.047.461-.205-.256.358-.871 1.382-1.69a24.675 24.675 0 014.401-2.304z" fill="#F9E6CF"/><path opacity=".5" d="M48.085 144.32a229.725 229.725 0 0123.799-4.659c3.122-.461 5.63-.768 7.37-.922a15.36 15.36 0 012.763 0l-2.661.717-7.216 1.639c-6.09 1.382-14.433 3.327-23.338 6.041a135.113 135.113 0 00-23.44 9.267c-5.118 2.765-6.859 4.864-7.217 4.608-.358-.256.819-2.816 5.476-6.297a71.629 71.629 0 0124.464-10.394z" fill="#7D7A7C"/><path d="M31.605 150.464a29.783 29.783 0 0111.772-3.328 55.146 55.146 0 01-10.953 5.12c-5.937 2.714-10.594 5.581-11.055 5.222-.46-.358 3.941-4.249 10.236-7.014z" fill="#F9E6CF"/><path opacity=".5" d="M45.68 140.224c10.543-1.689 20.216-2.765 27.279-3.43l8.393-.768h3.122c-.978.336-1.991.559-3.02.665l-8.29 1.434c-7.012 1.178-16.634 2.816-27.024 5.12-12.539 2.56-21.956 4.761-28.148 6.605-6.193 1.843-9.11 3.225-9.315 2.918-.205-.307 1.996-2.509 7.933-5.12a134.279 134.279 0 0129.07-7.424z" fill="#7D7A7C"/><path d="M26.487 144.781a40.926 40.926 0 0113.665-2.048 60.891 60.891 0 01-13.358 4.045 99.058 99.058 0 01-13.357 3.276 33.46 33.46 0 0113.05-5.273z" fill="#F9E6CF"/><path opacity=".5" d="M42.558 117.799c10.236 1.126 19.192 2.355 25.59 3.379l7.881 1.28a16.41 16.41 0 012.918.614c-.988.09-1.981.09-2.969 0l-7.984-.563-25.948-1.843c-12.13-.768-21.29-1.331-27.432-1.536a54.359 54.359 0 01-9.315-.563c0-.359 2.661-1.434 8.7-1.843a172.046 172.046 0 0128.559 1.075z" fill="#7D7A7C"/><path d="M23.724 116.98a38.248 38.248 0 0113 1.74 50.112 50.112 0 01-13.103.256 66.404 66.404 0 01-13-1.024 33.247 33.247 0 0113.103-.972z" fill="#F9E6CF"/><path opacity=".5" d="M148.858 79.143c-1.331 5.837-2.713 11.162-3.736 15.002a46.223 46.223 0 01-1.945 6.246c.061-2.166.301-4.324.716-6.451.563-3.994 1.382-9.42 2.252-15.36.61-7.3 2.017-14.51 4.197-21.504.87-.051 1.996 6.963-1.484 22.067z" fill="#7D7A7C"/><path d="M150.342 67.982c-.614 4.3-1.689 7.628-2.252 7.526a17.416 17.416 0 010-7.782 19.98 19.98 0 011.894-7.578c.819.051 1.023 3.584.358 7.834z" fill="#F9E6CF"/><path opacity=".5" d="M142.153 53.39c-.614 9.676-1.382 18.534-2.047 24.985-.358 3.226-.614 5.837-.819 7.629a10.634 10.634 0 01-.46 2.816 15.223 15.223 0 010-2.816v-7.68c0-6.502.307-15.36.511-25.037.307-11.673.461-20.48.615-26.47a39.674 39.674 0 01.563-8.96c.921-.204 3.377 10.547 1.637 35.533z" fill="#7D7A7C"/><path d="M142.256 35.265a36.608 36.608 0 01-1.28 12.544 46.097 46.097 0 01-.716-12.544c-.24-4.197.017-8.407.767-12.544a33.036 33.036 0 011.229 12.544z" fill="#F9E6CF"/><path opacity=".5" d="M149.318 50.676c-1.381 9.626-2.814 18.432-3.992 24.78-.46 3.175-1.125 5.786-1.125 7.578a24.737 24.737 0 01-.666 2.765 10.791 10.791 0 010-2.816c0-1.843.41-4.454.717-7.68.665-6.45 1.535-15.36 2.507-24.934 1.126-11.673 1.996-20.48 2.611-26.419a38.94 38.94 0 011.228-8.96c.87-.102 2.508 10.855-1.28 35.686z" fill="#7D7A7C"/><path d="M150.905 32.552a38.042 38.042 0 01-2.201 12.441 42.75 42.75 0 01.256-12.595c.071-4.216.638-8.41 1.689-12.493a34.11 34.11 0 01.256 12.647z" fill="#F9E6CF"/><path opacity=".5" d="M163.393 78.324c-2.508 5.58-5.118 10.65-6.807 14.285a46.487 46.487 0 01-3.224 5.785 37.537 37.537 0 012.098-6.297 1316.44 1316.44 0 015.374-14.797 179.212 179.212 0 017.933-20.787c1.023 0 1.023 7.424-5.374 21.811z" fill="#7D7A7C"/><path d="M167.027 67.47c-1.433 4.147-3.122 7.321-3.634 7.116a17.978 17.978 0 011.74-7.73c1.433-4.097 2.61-7.373 3.173-7.271a14.345 14.345 0 01-1.279 7.885z" fill="#F9E6CF"/><path opacity=".5" d="M152.747 180.16c-1.074-5.428-2.303-10.24-3.326-14.029a46.227 46.227 0 01-1.536-5.939s.359.512.87 1.485c.512.972 1.075 2.304 1.843 4.044a116.458 116.458 0 014.811 13.824c3.787 13.414 1.023 21.094 0 20.736-1.024-.358-.307-.461-.358-1.229a34.326 34.326 0 01-.359-3.635 125.657 125.657 0 00-1.945-15.257z" fill="#7D7A7C"/><path d="M154.846 190.297a16.397 16.397 0 010-7.27c.563 0 1.638 3.021 2.047 7.065.409 4.045-.358 7.424-.921 7.373a21.452 21.452 0 01-1.126-7.168z" fill="#F9E6CF"/><path opacity=".5" d="M155.972 209.753l-6.091-24.217a524.859 524.859 0 01-1.791-7.476 19.854 19.854 0 01-.563-2.764c.443.833.803 1.707 1.075 2.611.563 1.741 1.433 4.249 2.508 7.27a693.41 693.41 0 017.472 23.859c6.858 22.477 7.472 35.02 6.5 35.02a30.217 30.217 0 01-2.508-8.038c-1.433-5.734-3.583-14.182-6.602-26.265z" fill="#7D7A7C"/><path d="M160.783 227.161a45.317 45.317 0 01-2.099-12.391 36.942 36.942 0 014.044 11.93 33.755 33.755 0 011.637 12.493 51.835 51.835 0 01-3.582-12.032z" fill="#F9E6CF"/><path opacity=".5" d="M165.286 192.857c-2.968-7.526-5.936-14.336-8.086-19.353l-2.508-6.247a15.558 15.558 0 01-.819-2.201s.563.665 1.331 1.997l3.122 5.632a313.108 313.108 0 019.468 18.79 104.079 104.079 0 017.728 21.043c1.126 5.12.768 7.68.41 7.68-.358 0-2.713-8.244-10.646-27.341z" fill="#7D7A7C"/><path d="M171.223 206.476a33.029 33.029 0 01-2.866-10.24 25.299 25.299 0 014.76 9.472 21.967 21.967 0 012.098 10.24 42.614 42.614 0 01-3.992-9.472z" fill="#F9E6CF"/><path opacity=".5" d="M183.199 177.139c-3.429-5.12-6.96-9.37-9.519-12.595a58.21 58.21 0 01-4.094-5.12s.563.307 1.433 1.075c.87.768 2.098 1.894 3.582 3.328a125.629 125.629 0 0110.799 11.776 43.223 43.223 0 018.394 14.95c.972 3.84.46 5.939 0 5.939a126.266 126.266 0 00-10.595-19.353z" fill="#7D7A7C"/><path d="M189.597 186.406c-1.996-3.789-3.736-6.912-3.276-7.219.461-.307 2.918 2.355 5.118 6.297 2.201 3.943 2.61 7.731 2.047 7.834-.563.102-1.842-3.123-3.889-6.912z" fill="#F9E6CF"/><path opacity=".5" d="M177.518 152.819c-3.378-2.918-6.704-5.427-9.11-7.219a24.366 24.366 0 01-3.889-3.072 22.495 22.495 0 014.555 1.997 79.76 79.76 0 0110.236 6.144 27.647 27.647 0 018.803 9.267c1.33 2.713 1.125 4.403.767 4.454-.358.051-2.61-4.045-11.362-11.571z" fill="#7D7A7C"/><path d="M183.813 158.144c-2.098-2.355-3.838-4.301-3.48-4.762.359-.46 2.713.922 5.118 3.431 2.406 2.508 3.173 5.12 2.662 5.427-.512.307-2.15-1.792-4.3-4.096z" fill="#F9E6CF"/><path opacity=".5" d="M200.498 127.015c-5.988-.717-11.567-.973-15.661-1.229a50.107 50.107 0 01-6.602-.461 36.291 36.291 0 016.602-.768c4.094-.256 9.673-.512 15.866-.307a42.257 42.257 0 0116.735 3.328c3.634 1.689 4.607 3.942 4.3 4.096-.307.153-1.536-.819-5.118-1.741a95.27 95.27 0 00-16.122-2.918z" fill="#7D7A7C"/><path d="M211.553 128.141c-4.146-.922-7.626-1.638-7.575-2.202a13.667 13.667 0 018.035.256c4.402.871 7.524 3.124 7.217 3.584a44.82 44.82 0 01-7.677-1.638z" fill="#F9E6CF"/><path opacity=".5" d="M167.897 89.383c-2.918 4.045-5.63 7.731-7.677 10.24a31.097 31.097 0 01-3.429 4.198 25.036 25.036 0 012.405-5.12 345.837 345.837 0 016.398-11.212c6.09-10.24 10.235-14.95 11.106-14.541.87.41-1.28 5.99-8.803 16.435z" fill="#7D7A7C"/><path d="M172.656 81.396c-1.944 2.97-3.889 5.12-4.35 4.864-.461-.256.717-2.97 2.661-5.94 1.945-2.969 3.89-5.12 4.351-4.863.46.256-.717 2.97-2.662 5.939z" fill="#F9E6CF"/><path opacity=".5" d="M209.199 95.066l-20.063 8.704-6.193 2.662c-.738.377-1.508.686-2.303.922 0 0 .717-.563 2.048-1.382l5.885-3.328c5.118-2.714 11.823-6.4 19.5-10.24a123.349 123.349 0 0121.802-8.602c5.118-1.33 7.984-1.075 7.984-.665 0 .41-2.149.972-6.807 2.816-4.657 1.843-11.771 4.864-21.853 9.113z" fill="#7D7A7C"/><path d="M223.58 88.564a36.578 36.578 0 01-10.236 3.277 28.301 28.301 0 019.775-5.12 23.741 23.741 0 0110.799-2.56 46.956 46.956 0 01-10.338 4.403z" fill="#F9E6CF"/><path opacity=".5" d="M199.782 188.812c-6.193-7.219-12.13-13.619-16.429-18.278l-5.118-5.581a18.758 18.758 0 01-1.791-2.099 14.591 14.591 0 012.2 1.741l5.579 5.12c4.708 4.352 11.055 10.24 17.606 17.305a116.753 116.753 0 0116.326 20.48c3.071 5.12 3.583 8.294 3.224 8.397-.358.102-1.586-2.151-5.118-6.605-3.531-4.454-8.444-11.315-16.479-20.48z" fill="#7D7A7C"/><path d="M211.502 202.073a49.032 49.032 0 01-7.063-10.24 32.913 32.913 0 018.649 8.909 27.544 27.544 0 016.193 10.752 74.485 74.485 0 01-7.779-9.421z" fill="#F9E6CF"/><path opacity=".5" d="M182.995 201.203c-3.737-7.527-7.524-14.234-10.236-19.098l-3.378-5.785a11.59 11.59 0 01-1.177-2.202 10.235 10.235 0 011.586 1.894c.973 1.28 2.406 3.072 3.992 5.428a215.363 215.363 0 0111.772 18.483 80.247 80.247 0 018.802 21.657c.871 5.12.717 7.987 0 7.987a25.956 25.956 0 01-2.354-6.912 195.81 195.81 0 00-9.007-21.452z" fill="#7D7A7C"/><path d="M189.853 215.231a43.027 43.027 0 01-3.481-10.24 24.835 24.835 0 015.118 9.626 59.914 59.914 0 012.15 7.526v3.328c0 .051-.717-1.126-1.331-2.969-.614-1.844-1.382-4.455-2.456-7.271z" fill="#F9E6CF"/><path opacity=".5" d="M180.384 115.085c-6.909 1.024-12.692 2.663-12.794 2.355 1.07-.74 2.22-1.359 3.429-1.843a64.955 64.955 0 019.007-3.225 18.616 18.616 0 0110.236-.461c2.406.87 3.071 2.253 2.815 2.509-.256.256-1.228 0-3.071 0a55.35 55.35 0 00-9.622.665z" fill="#7D7A7C"/><path d="M186.68 113.908c-2.406 0-4.504 0-4.607-.564-.102-.563 1.894-1.382 4.555-1.433 2.662-.051 5.118 1.075 4.555 1.587-.563.512-2.098.256-4.503.41z" fill="#F9E6CF"/><path opacity=".5" d="M186.577 70.542l-12.488 15.36-3.889 4.556c-.471.6-1.003 1.149-1.587 1.639a9.21 9.21 0 011.177-1.639l3.378-5.12 11.26-16.383c10.696-15.36 17.35-22.221 17.964-21.76.614.46-3.429 7.833-15.815 23.347z" fill="#7D7A7C"/><path d="M194.868 58.817c-3.275 4.403-6.295 7.68-6.755 7.373a27.008 27.008 0 015.118-8.602c3.326-4.403 6.346-7.68 6.806-7.373a25.579 25.579 0 01-5.169 8.602z" fill="#F9E6CF"/><path opacity=".5" d="M172.247 59.227c-4.299 8.601-8.291 16.486-11.157 22.271-1.484 2.816-2.713 5.12-3.532 6.759a22.7 22.7 0 01-1.433 2.457 16.5 16.5 0 01.973-2.662c.665-1.69 1.637-4.147 2.866-7.066 2.559-5.888 5.988-14.08 9.826-22.937 9.264-21.35 15.354-31.744 16.122-31.436.768.307-2.662 10.342-13.665 32.614z" fill="#7D7A7C"/><path d="M179.463 42.792a39.11 39.11 0 01-6.141 10.854 39.162 39.162 0 014.35-11.725 39.454 39.454 0 016.141-10.905 38.694 38.694 0 01-4.35 11.776z" fill="#F9E6CF"/><path opacity=".5" d="M194.51 143.091a104.454 104.454 0 00-12.283-5.12 37.726 37.726 0 01-5.118-1.945 6.91 6.91 0 011.535 0c1.375.134 2.741.339 4.095.614a75.434 75.434 0 0113.051 3.738 28.15 28.15 0 0111.976 8.345 29.327 29.327 0 011.791 3.379v1.434a61.447 61.447 0 00-15.047-10.445z" fill="#7D7A7C"/><path d="M202.801 147.443a34.184 34.184 0 01-3.685-2.765c-1.023-.716-1.535-1.28-1.433-1.536.103-.256.921 0 2.099.308a29.956 29.956 0 014.247 2.406 18.7 18.7 0 013.327 3.584c.614 1.126.87 1.894.665 2.048-.204.154-.87-.307-1.689-1.126-.818-.82-2.251-1.69-3.531-2.919z" fill="#F9E6CF"/><path opacity=".5" d="M218.82 140.07c-8.7-1.945-16.787-3.327-22.621-4.3l-7.012-1.178a17.39 17.39 0 01-2.559-.563 16.984 16.984 0 012.611 0l7.062.512c5.988.512 14.177 1.28 23.031 2.816a83.732 83.732 0 0123.748 7.014c5.117 2.56 6.755 5.12 6.499 5.479-.256.358-2.149-1.28-7.011-3.072a165.621 165.621 0 00-23.748-6.708z" fill="#7D7A7C"/><path d="M234.942 143.706a45.571 45.571 0 01-10.85-3.943c3.918-.127 7.82.553 11.464 1.997a22.005 22.005 0 0110.236 5.427 105.189 105.189 0 01-10.85-3.481z" fill="#F9E6CF"/><path opacity=".5" d="M168.716 52.673c-3.583 9.933-7.012 19.046-9.622 25.6a620.685 620.685 0 00-3.122 7.782 12.04 12.04 0 01-1.331 2.816c.217-1.004.491-1.996.819-2.97.563-1.945 1.433-4.659 2.457-8.038 2.149-6.758 5.118-16.025 8.188-26.06l8.803-27.597a42.737 42.737 0 013.429-9.216c.87.103-.256 11.98-9.621 37.683z" fill="#7D7A7C"/><path d="M174.448 33.678a44.716 44.716 0 01-5.118 12.8 53.743 53.743 0 013.224-13.363 58.49 58.49 0 014.657-12.902 39.598 39.598 0 01-2.763 13.465z" fill="#F9E6CF"/><path opacity=".5" d="M196.66 160.653c-5.118-3.124-9.469-5.786-12.846-7.68a54.468 54.468 0 01-5.477-3.226c.564.08 1.115.235 1.638.461 1.075.358 2.559.87 4.35 1.638a123.87 123.87 0 0113.768 6.503 48.658 48.658 0 0112.897 9.881c2.303 3.021 2.968 4.762 2.559 5.12-.41.358-4.504-4.454-16.889-12.697z" fill="#7D7A7C"/><path d="M205.616 166.489c-3.275-2.56-5.834-4.761-5.527-5.12.307-.358 3.429.973 6.755 3.584a33.708 33.708 0 013.839 3.84c.819 1.229 1.177 2.048.972 2.202-.205.154-.972-.307-1.945-1.178-.972-.87-2.456-2.048-4.094-3.328z" fill="#F9E6CF"/><path opacity=".5" d="M230.438 116.058c-6.193 0-11.925.768-16.121 1.178a56.83 56.83 0 01-6.807.563 5.844 5.844 0 011.74-.615l4.862-1.177a145.415 145.415 0 0116.173-2.663 46.87 46.87 0 0117.503.717c3.941 1.178 5.476 2.867 5.118 3.123-.358.256-1.843 0-5.374-.665a107.836 107.836 0 00-17.094-.461z" fill="#7D7A7C"/><path d="M242.056 115.495a21.968 21.968 0 01-8.087-1.024 14.78 14.78 0 018.189-.973c4.606.256 8.189 1.792 7.984 2.355-2.7.194-5.414.074-8.086-.358z" fill="#F9E6CF"/><path opacity=".5" d="M223.222 104.18l-16.582 4.403-5.118 1.331c-1.229.307-1.894.461-1.945.358a10.25 10.25 0 011.791-.87l4.862-1.997c4.146-1.638 9.878-3.737 16.173-5.836a91.4 91.4 0 0117.862-4.352c4.145-.461 6.346 0 6.295.46a173.208 173.208 0 01-23.338 6.503z" fill="#7D7A7C"/><path d="M235.044 100.698a20.47 20.47 0 01-8.598 1.229 18.364 18.364 0 018.086-3.175 16.271 16.271 0 018.701-.665 25.579 25.579 0 01-8.189 2.611z" fill="#F9E6CF"/><path opacity=".5" d="M206.793 72.59c-5.988 4.3-11.413 8.396-15.354 11.315l-4.708 3.532a8.083 8.083 0 01-1.843 1.178c.437-.58.935-1.112 1.484-1.587l4.3-4.045a299.28 299.28 0 0114.483-12.595 93.382 93.382 0 0116.941-11.469c4.197-2.048 6.807-2.15 6.807-1.792 0 .359-1.638 1.23-5.118 3.687-3.48 2.457-9.213 6.246-16.992 11.776z" fill="#7D7A7C"/><path d="M217.746 64.244a26.366 26.366 0 01-8.394 4.71c-.307-.46 2.866-3.43 7.268-6.4a18.418 18.418 0 018.803-4.044c.255.512-3.327 2.765-7.677 5.734z" fill="#F9E6CF"/><path opacity=".5" d="M221.635 149.594c-6.141-2.458-11.976-4.25-16.275-5.53l-5.118-1.485-1.842-.665h1.945c1.228 0 3.07.409 5.118.768a141.656 141.656 0 0116.889 4.147 42.373 42.373 0 0116.48 8.755c3.122 3.072 3.685 5.427 3.275 5.581-.409.153-1.484-1.28-4.504-3.482a72.798 72.798 0 00-15.968-8.089z" fill="#7D7A7C"/><path d="M232.997 154.253c-4.094-2.355-7.575-4.045-7.319-4.608a15.35 15.35 0 018.291 2.867c4.3 2.406 6.859 5.734 6.347 6.093a64.54 64.54 0 01-7.319-4.352z" fill="#F9E6CF"/><path opacity=".5" d="M197.376 178.88c-5.783-5.735-11.413-10.701-15.354-14.285l-5.118-4.301a10.882 10.882 0 01-1.74-1.638c.725.334 1.412.746 2.047 1.229 1.28.87 3.122 2.099 5.118 3.737 4.453 3.226 10.236 7.783 16.685 13.261a83.005 83.005 0 0115.354 16.896c2.559 4.454 3.326 7.014 2.917 7.219-.41.205-1.74-1.639-4.606-5.479-2.866-3.839-7.78-9.267-15.303-16.639z" fill="#7D7A7C"/><path d="M208.277 189.478c-3.838-4.352-6.96-7.936-6.551-8.346.41-.409 4.146 2.612 8.036 7.066a52.061 52.061 0 014.503 6.144c.922 1.689 1.28 2.867 1.075 3.021-.205.153-1.023-.768-2.201-2.202-1.177-1.434-2.968-3.481-4.862-5.683z" fill="#F9E6CF"/><path opacity=".5" d="M183.404 191.27c-3.582-6.093-7.063-11.622-9.57-15.667l-2.918-4.813a8.682 8.682 0 01-.972-1.843c.529.445.994.962 1.382 1.536.87 1.075 2.098 2.56 3.531 4.403 2.917 3.789 6.858 9.011 10.85 14.899 10.236 14.131 11.976 23.552 11.157 23.705-.819.154-3.941-6.553-13.46-22.22z" fill="#7D7A7C"/><path d="M190.569 202.38a24.566 24.566 0 01-3.838-8.397c.46-.307 3.019 2.97 5.578 7.424a18.436 18.436 0 013.276 8.704c-.563.205-2.508-3.379-5.016-7.731z" fill="#F9E6CF"/><path opacity=".5" d="M215.852 164.288c-5.118-2.919-9.878-5.12-13.358-7.117a39.928 39.928 0 01-5.63-3.021 38.326 38.326 0 016.142 1.895 141.243 141.243 0 0114.125 5.785 44.747 44.747 0 0113.563 9.165c2.61 2.765 2.968 5.12 2.661 5.12-.307 0-1.381-1.024-4.043-3.072a125.419 125.419 0 00-13.46-8.755z" fill="#7D7A7C"/><path d="M225.474 169.51c-3.429-2.355-6.193-4.352-5.886-5.12.307-.768 3.48.768 7.012 3.226 3.531 2.457 5.629 5.376 5.118 5.734-.512.359-2.866-1.536-6.244-3.84z" fill="#F9E6CF"/><path opacity=".5" d="M202.494 81.55L187.14 92.044l-4.708 3.226a8.818 8.818 0 01-1.792 1.075c.443-.544.94-1.042 1.485-1.485l4.247-3.788c3.583-3.123 8.65-7.322 14.331-11.776a96.516 96.516 0 0116.684-10.803c3.992-1.997 6.398-2.304 6.5-1.946a225.242 225.242 0 01-21.393 15.001z" fill="#7D7A7C"/><path d="M213.191 73.665c-4.248 2.765-7.831 5.12-8.189 4.403-.358-.717 2.815-3.277 7.114-6.093a17.856 17.856 0 018.496-3.89 30.717 30.717 0 01-7.421 5.58z" fill="#F9E6CF"/><path opacity=".5" d="M112.213 221.426l6.756-21.35 2.098-6.553a8.356 8.356 0 01.922-2.356 18.173 18.173 0 01-.41 2.509c-.358 1.587-.819 3.891-1.433 6.707a1425.787 1425.787 0 01-5.118 21.811c-5.118 20.48-10.236 30.259-11.106 29.85-.87-.41 1.689-9.267 8.291-30.618z" fill="#7D7A7C"/><path d="M107.965 237.042a35.863 35.863 0 014.197-10.496 31.587 31.587 0 01-2.303 11.059 31.701 31.701 0 01-4.401 10.24 32.732 32.732 0 012.507-10.803z" fill="#F9E6CF"/><path opacity=".5" d="M165.082 43.662c-2.508 7.885-5.118 15.001-6.961 20.172l-2.354 6.144a13.505 13.505 0 01-.972 2.202c.084-.747.238-1.484.46-2.202l1.689-6.348c1.433-5.12 3.378-12.647 5.476-20.48 2.508-9.574 4.351-16.742 5.681-21.76a33.905 33.905 0 012.099-7.73c.358 0 .921 2.354.358 7.27a132.284 132.284 0 01-5.476 22.732z" fill="#7D7A7C"/><path d="M168.716 28.66a25.99 25.99 0 01-3.685 10.24 33.126 33.126 0 011.74-10.547 40.987 40.987 0 013.07-10.24 23.508 23.508 0 01-1.125 10.547z" fill="#F9E6CF"/><path opacity=".5" d="M190.262 74.689c-3.941 4.045-7.574 7.782-10.236 10.24a41.781 41.781 0 01-4.504 4.198 34.668 34.668 0 013.583-5.12c2.303-3.02 5.579-7.065 9.161-11.469 8.649-10.65 14.228-15.36 14.791-14.643.563.717-2.917 6.247-12.795 16.794z" fill="#7D7A7C"/><path d="M196.762 66.497c-2.713 3.02-5.118 5.12-5.63 4.864-.512-.256 1.433-3.123 4.146-6.195 2.712-3.072 5.118-5.12 5.578-4.813.461.307-1.433 3.123-4.094 6.144z" fill="#F9E6CF"/><path opacity=".5" d="M183.865 61.172L171.428 78.99l-3.89 5.427a13.605 13.605 0 01-1.586 1.894c.304-.768.681-1.505 1.126-2.202l3.326-5.785c2.918-4.813 6.858-11.469 11.158-18.637 10.594-17.356 17.298-25.6 17.964-25.139.665.461-3.327 8.755-15.661 26.624z" fill="#7D7A7C"/><path d="M192.105 47.81a30.314 30.314 0 01-6.961 8.6 30.73 30.73 0 015.118-9.676 29.286 29.286 0 016.756-8.602 31.205 31.205 0 01-4.913 9.677z" fill="#F9E6CF"/></g></svg>