<svg width="31" height="30" fill="none" xmlns="http://www.w3.org/2000/svg"><path d="M24.502 1.134c-.49.626-.89 1.142-.89 1.151 0 .01.124.197.276.417 1.724 2.506 2.912 5.417 3.47 8.513.324 1.797.414 3.773.252 5.625-.324 3.764-1.694 7.549-3.828 10.575l-.184.262.898 1.155c.492.636.9 1.158.902 1.163.012.01.59-.785.859-1.179 1.673-2.46 2.924-5.337 3.607-8.297.749-3.241.834-6.52.254-9.785a25.198 25.198 0 00-2.554-7.376A25.066 25.066 0 0025.582.251L25.393 0l-.89 1.134zM3.836 10.688H.5v8.578h3.329s9.816 9.98 9.825 9.982c.01.002.016-6.42.016-14.272 0-7.851-.004-14.273-.009-14.273l-9.825 9.985z" fill="#005"/><path d="M20.865 5.758c-.481.614-.889 1.14-.907 1.168-.028.044-.016.075.126.33.208.37.64 1.277.802 1.678.605 1.498.966 2.988 1.135 4.683.057.586.057 2.203 0 2.789a16.45 16.45 0 01-1.18 4.781 17.561 17.561 0 01-.9 1.83c-.008.017 1.803 2.326 1.833 2.337.028.012.445-.66.765-1.237.195-.35.573-1.116.762-1.547a19.275 19.275 0 001.43-5.177c.114-.886.137-1.306.14-2.37 0-.977-.014-1.25-.095-2.004a18.962 18.962 0 00-2.845-8.128 1.912 1.912 0 00-.177-.25c-.007 0-.408.503-.89 1.117zm-3.873 4.93L16 11.95l.044.147c.08.26.2.771.26 1.097.122.685.14.912.14 1.817 0 .743-.006.89-.052 1.23a10.96 10.96 0 01-.284 1.427l-.092.338.11.143c.238.31 1.833 2.348 1.863 2.379.017.019.037.028.046.02.007-.008.1-.217.205-.468.502-1.186.825-2.442.97-3.769.05-.461.069-1.692.034-2.184a13.23 13.23 0 00-1.1-4.434c-.063-.143-.122-.26-.136-.263-.012-.004-.468.563-1.015 1.257z" fill="#005"/></svg>